<svg width="165" height="19" viewBox="0 0 165 19" fill="none" xmlns="http://www.w3.org/2000/svg">
<path d="M6.05984 18.35C4.50984 18.35 3.15151 17.975 1.98484 17.225V13.25C3.05151 14.0167 4.23484 14.4 5.53484 14.4C6.66817 14.4 7.60984 14.0667 8.35984 13.4C9.12651 12.7334 9.55984 11.8667 9.65984 10.8C8.72651 11.7167 7.55151 12.175 6.13484 12.175C4.55151 12.175 3.22651 11.6584 2.15984 10.625C1.10984 9.60836 0.584839 8.20836 0.584839 6.42502C0.584839 4.55836 1.20151 3.05002 2.43484 1.90002C3.66817 0.733358 5.23484 0.150024 7.13484 0.150024C9.40151 0.150024 11.1598 0.891692 12.4098 2.37503C13.6598 3.85836 14.2848 5.85003 14.2848 8.35003C14.2848 11 13.6348 13.2917 12.3348 15.225C11.6848 16.1917 10.8182 16.9584 9.73484 17.525C8.65151 18.075 7.42651 18.35 6.05984 18.35ZM7.38484 8.75003C8.46817 8.75003 9.29317 8.24169 9.85984 7.22503C9.85984 6.17503 9.63484 5.35836 9.18484 4.77502C8.75151 4.19169 8.15984 3.90003 7.40984 3.90003C6.70984 3.90003 6.14317 4.12503 5.70984 4.57503C5.27651 5.00836 5.05984 5.58336 5.05984 6.30002C5.05984 7.00002 5.27651 7.58336 5.70984 8.05002C6.14317 8.51669 6.70151 8.75003 7.38484 8.75003Z" fill="url(#paint0_linear_561_3221)"/>
<path d="M19.5565 17.575C19.0565 18.0917 18.4399 18.35 17.7065 18.35C16.9732 18.35 16.3482 18.0917 15.8315 17.575C15.3315 17.0584 15.0815 16.4334 15.0815 15.7C15.0815 14.9667 15.3315 14.35 15.8315 13.85C16.3482 13.3334 16.9732 13.075 17.7065 13.075C18.4399 13.075 19.0565 13.3334 19.5565 13.85C20.0732 14.35 20.3315 14.9667 20.3315 15.7C20.3315 16.4334 20.0732 17.0584 19.5565 17.575Z" fill="url(#paint1_linear_561_3221)"/>
<path d="M33.2624 17.025C32.0457 17.9084 30.6374 18.35 29.0374 18.35C27.4374 18.35 26.029 17.9084 24.8124 17.025C23.629 16.1584 22.7457 15.0417 22.1624 13.675C21.5957 12.325 21.3124 10.85 21.3124 9.25002C21.3124 5.80002 22.479 3.20836 24.8124 1.47503C26.029 0.591691 27.4374 0.150024 29.0374 0.150024C30.6374 0.150024 32.0457 0.591691 33.2624 1.47503C34.4457 2.34169 35.329 3.46669 35.9124 4.85003C36.479 6.18336 36.7624 7.65003 36.7624 9.25002C36.7624 12.7 35.5957 15.2917 33.2624 17.025ZM29.0374 14.225C30.0707 14.225 30.8624 13.7334 31.4124 12.75C31.979 11.7834 32.2624 10.6167 32.2624 9.25002C32.2624 7.88336 31.979 6.71669 31.4124 5.75003C30.8624 4.76669 30.0707 4.27503 29.0374 4.27503C28.0374 4.27503 27.2457 4.76669 26.6624 5.75003C26.0957 6.71669 25.8124 7.88336 25.8124 9.25002C25.8124 10.6167 26.0957 11.7834 26.6624 12.75C27.2457 13.7334 28.0374 14.225 29.0374 14.225Z" fill="url(#paint2_linear_561_3221)"/>
<path d="M50.9137 17.025C49.6971 17.9084 48.2887 18.35 46.6887 18.35C45.0887 18.35 43.6804 17.9084 42.4637 17.025C41.2804 16.1584 40.3971 15.0417 39.8137 13.675C39.2471 12.325 38.9637 10.85 38.9637 9.25002C38.9637 5.80002 40.1304 3.20836 42.4637 1.47503C43.6804 0.591691 45.0887 0.150024 46.6887 0.150024C48.2887 0.150024 49.6971 0.591691 50.9137 1.47503C52.0971 2.34169 52.9804 3.46669 53.5637 4.85003C54.1304 6.18336 54.4137 7.65003 54.4137 9.25002C54.4137 12.7 53.2471 15.2917 50.9137 17.025ZM46.6887 14.225C47.7221 14.225 48.5137 13.7334 49.0637 12.75C49.6304 11.7834 49.9137 10.6167 49.9137 9.25002C49.9137 7.88336 49.6304 6.71669 49.0637 5.75003C48.5137 4.76669 47.7221 4.27503 46.6887 4.27503C45.6887 4.27503 44.8971 4.76669 44.3137 5.75003C43.7471 6.71669 43.4637 7.88336 43.4637 9.25002C43.4637 10.6167 43.7471 11.7834 44.3137 12.75C44.8971 13.7334 45.6887 14.225 46.6887 14.225Z" fill="url(#paint3_linear_561_3221)"/>
<g clip-path="url(#clip0_561_3221)">
<path d="M80.9842 6.95233C80.9462 6.83569 80.8453 6.75063 80.7239 6.73291L74.8954 5.88587L72.2888 0.604467C72.2347 0.494277 72.1226 0.424683 72.0001 0.424683C71.8777 0.424683 71.7653 0.494277 71.7115 0.604467L69.1046 5.88619L63.2761 6.73324C63.1546 6.75096 63.0541 6.83569 63.0158 6.95265C62.9781 7.06896 63.0093 7.1972 63.0973 7.28258L67.3151 11.3938L66.3192 17.1991C66.2986 17.3199 66.3482 17.442 66.4471 17.5142C66.5467 17.587 66.6785 17.5963 66.7864 17.5386L72.0001 14.7981L77.2132 17.5386C77.2603 17.5635 77.3121 17.5757 77.3634 17.5757C77.4301 17.5757 77.4964 17.5551 77.5528 17.5142C77.6521 17.442 77.7017 17.3199 77.6807 17.1991L76.6852 11.3941L80.903 7.28258C80.9906 7.19655 81.0222 7.06864 80.9842 6.95233Z" fill="url(#paint4_linear_561_3221)"/>
</g>
<g clip-path="url(#clip1_561_3221)">
<path d="M122.984 6.95233C122.946 6.83569 122.845 6.75063 122.724 6.73291L116.895 5.88587L114.289 0.604467C114.235 0.494277 114.123 0.424683 114 0.424683C113.878 0.424683 113.765 0.494277 113.711 0.604467L111.105 5.88619L105.276 6.73324C105.155 6.75096 105.054 6.83569 105.016 6.95265C104.978 7.06896 105.009 7.1972 105.097 7.28258L109.315 11.3938L108.319 17.1991C108.299 17.3199 108.348 17.442 108.447 17.5142C108.547 17.587 108.678 17.5963 108.786 17.5386L114 14.7981L119.213 17.5386C119.26 17.5635 119.312 17.5757 119.363 17.5757C119.43 17.5757 119.496 17.5551 119.553 17.5142C119.652 17.442 119.702 17.3199 119.681 17.1991L118.685 11.3941L122.903 7.28258C122.991 7.19655 123.022 7.06864 122.984 6.95233Z" fill="url(#paint5_linear_561_3221)"/>
</g>
<g clip-path="url(#clip2_561_3221)">
<path d="M101.984 6.95233C101.946 6.83569 101.845 6.75063 101.724 6.73291L95.8954 5.88587L93.2888 0.604467C93.2347 0.494277 93.1226 0.424683 93.0001 0.424683C92.8777 0.424683 92.7653 0.494277 92.7115 0.604467L90.1046 5.88619L84.2761 6.73324C84.1546 6.75096 84.0541 6.83569 84.0158 6.95265C83.9781 7.06896 84.0093 7.1972 84.0973 7.28258L88.3151 11.3938L87.3192 17.1991C87.2986 17.3199 87.3482 17.442 87.4471 17.5142C87.5467 17.587 87.6785 17.5963 87.7864 17.5386L93.0001 14.7981L98.2132 17.5386C98.2603 17.5635 98.3121 17.5757 98.3634 17.5757C98.4301 17.5757 98.4964 17.5551 98.5528 17.5142C98.6521 17.442 98.7017 17.3199 98.6807 17.1991L97.6852 11.3941L101.903 7.28258C101.991 7.19655 102.022 7.06864 101.984 6.95233Z" fill="url(#paint6_linear_561_3221)"/>
</g>
<g clip-path="url(#clip3_561_3221)">
<path d="M143.984 6.95233C143.946 6.83569 143.845 6.75063 143.724 6.73291L137.895 5.88587L135.289 0.604467C135.235 0.494277 135.123 0.424683 135 0.424683C134.878 0.424683 134.765 0.494277 134.711 0.604467L132.105 5.88619L126.276 6.73324C126.155 6.75096 126.054 6.83569 126.016 6.95265C125.978 7.06896 126.009 7.1972 126.097 7.28258L130.315 11.3938L129.319 17.1991C129.299 17.3199 129.348 17.442 129.447 17.5142C129.547 17.587 129.678 17.5963 129.786 17.5386L135 14.7981L140.213 17.5386C140.26 17.5635 140.312 17.5757 140.363 17.5757C140.43 17.5757 140.496 17.5551 140.553 17.5142C140.652 17.442 140.702 17.3199 140.681 17.1991L139.685 11.3941L143.903 7.28258C143.991 7.19655 144.022 7.06864 143.984 6.95233Z" fill="url(#paint7_linear_561_3221)"/>
</g>
<g clip-path="url(#clip4_561_3221)">
<path d="M164.984 6.95233C164.946 6.83569 164.845 6.75063 164.724 6.73291L158.895 5.88587L156.289 0.604467C156.235 0.494277 156.123 0.424683 156 0.424683C155.878 0.424683 155.765 0.494277 155.711 0.604467L153.105 5.88619L147.276 6.73324C147.155 6.75096 147.054 6.83569 147.016 6.95265C146.978 7.06896 147.009 7.1972 147.097 7.28258L151.315 11.3938L150.319 17.1991C150.299 17.3199 150.348 17.442 150.447 17.5142C150.547 17.587 150.678 17.5963 150.786 17.5386L156 14.7981L161.213 17.5386C161.26 17.5635 161.312 17.5757 161.363 17.5757C161.43 17.5757 161.496 17.5551 161.553 17.5142C161.652 17.442 161.702 17.3199 161.681 17.1991L160.685 11.3941L164.903 7.28258C164.991 7.19655 165.022 7.06864 164.984 6.95233Z" fill="url(#paint8_linear_561_3221)"/>
</g>
<defs>
<linearGradient id="paint0_linear_561_3221" x1="0.212544" y1="20.6461" x2="37.053" y2="47.2089" gradientUnits="userSpaceOnUse">
<stop offset="0.000302188" stop-color="#FF0844"/>
<stop offset="1" stop-color="#FF8B67"/>
</linearGradient>
<linearGradient id="paint1_linear_561_3221" x1="0.212544" y1="20.6461" x2="37.053" y2="47.2089" gradientUnits="userSpaceOnUse">
<stop offset="0.000302188" stop-color="#FF0844"/>
<stop offset="1" stop-color="#FF8B67"/>
</linearGradient>
<linearGradient id="paint2_linear_561_3221" x1="0.212544" y1="20.6461" x2="37.053" y2="47.2089" gradientUnits="userSpaceOnUse">
<stop offset="0.000302188" stop-color="#FF0844"/>
<stop offset="1" stop-color="#FF8B67"/>
</linearGradient>
<linearGradient id="paint3_linear_561_3221" x1="0.212544" y1="20.6461" x2="37.053" y2="47.2089" gradientUnits="userSpaceOnUse">
<stop offset="0.000302188" stop-color="#FF0844"/>
<stop offset="1" stop-color="#FF8B67"/>
</linearGradient>
<linearGradient id="paint4_linear_561_3221" x1="63.383" y1="14.614" x2="78.504" y2="20.8368" gradientUnits="userSpaceOnUse">
<stop offset="0.000302188" stop-color="#FF0844"/>
<stop offset="1" stop-color="#FF8B67"/>
</linearGradient>
<linearGradient id="paint5_linear_561_3221" x1="105.383" y1="14.614" x2="120.504" y2="20.8368" gradientUnits="userSpaceOnUse">
<stop offset="0.000302188" stop-color="#FF0844"/>
<stop offset="1" stop-color="#FF8B67"/>
</linearGradient>
<linearGradient id="paint6_linear_561_3221" x1="84.383" y1="14.614" x2="99.504" y2="20.8368" gradientUnits="userSpaceOnUse">
<stop offset="0.000302188" stop-color="#FF0844"/>
<stop offset="1" stop-color="#FF8B67"/>
</linearGradient>
<linearGradient id="paint7_linear_561_3221" x1="126.383" y1="14.614" x2="141.504" y2="20.8368" gradientUnits="userSpaceOnUse">
<stop offset="0.000302188" stop-color="#FF0844"/>
<stop offset="1" stop-color="#FF8B67"/>
</linearGradient>
<linearGradient id="paint8_linear_561_3221" x1="147.383" y1="14.614" x2="162.504" y2="20.8368" gradientUnits="userSpaceOnUse">
<stop offset="0.000302188" stop-color="#FF0844"/>
<stop offset="1" stop-color="#FF8B67"/>
</linearGradient>
<clipPath id="clip0_561_3221">
<rect width="18" height="18" fill="white" transform="translate(63)"/>
</clipPath>
<clipPath id="clip1_561_3221">
<rect width="18" height="18" fill="white" transform="translate(105)"/>
</clipPath>
<clipPath id="clip2_561_3221">
<rect width="18" height="18" fill="white" transform="translate(84)"/>
</clipPath>
<clipPath id="clip3_561_3221">
<rect width="18" height="18" fill="white" transform="translate(126)"/>
</clipPath>
<clipPath id="clip4_561_3221">
<rect width="18" height="18" fill="white" transform="translate(147)"/>
</clipPath>
</defs>
</svg>
