<svg width="116" height="34" viewBox="0 0 116 34" fill="none" xmlns="http://www.w3.org/2000/svg">
<path d="M15.7946 19.7405C15.7946 20.2457 15.7548 20.9257 15.6951 21.2366H5.13874C5.55701 22.8881 6.75206 23.6653 8.48489 23.6653C9.64011 23.6653 10.8949 23.1989 11.8908 22.3246L15.0975 25.239C13.4842 26.8128 11.114 27.726 8.22596 27.726C3.32624 27.726 0 24.5396 0 19.7988C0 14.9997 3.26648 11.6967 7.98695 11.6967C12.6277 11.7161 15.7946 14.9803 15.7946 19.7405ZM5.15865 18.1667H10.8352C10.4368 16.6512 9.46085 15.8352 8.02679 15.8352C6.47321 15.8546 5.53709 16.6706 5.15865 18.1667ZM33.5014 17.3701V27.3569H28.522V19.0993C28.522 17.2924 27.6058 16.3015 26.0522 16.3015C24.6779 16.3015 23.5227 17.2147 23.5227 19.177V27.3569H18.5433V12.1436H23.3036V14.0476C24.2795 12.4544 25.853 11.7161 27.9444 11.7161C31.0714 11.7161 33.5014 13.8533 33.5014 17.3701ZM47.8221 13.7173V12.1436H52.6422V25.8996C52.6422 30.893 49.296 33.8658 44.1772 33.8658C41.568 33.8658 38.919 33.2051 37.0467 31.9228L38.8194 28.0563C40.353 29.1055 41.9863 29.6107 43.8187 29.6107C45.8304 29.6107 47.7424 28.5226 47.7424 26.1134V25.1613C46.8262 26.3077 45.4519 27.0848 43.4602 27.0848C39.2775 27.0848 36.2301 23.7235 36.2301 19.4102C36.2301 15.0968 39.2775 11.7161 43.4602 11.7161C45.5316 11.7161 46.9059 12.5516 47.8221 13.7173ZM41.3688 19.4102C41.3688 21.256 42.7033 22.6743 44.6353 22.6743C46.5076 22.6743 47.8221 21.2949 47.8221 19.4102C47.8221 17.5255 46.5275 16.146 44.6353 16.146C42.7033 16.1655 41.3688 17.545 41.3688 19.4102ZM70.4485 20.848C70.4485 25.6082 67.0824 27.7649 62.9396 27.7649C58.7768 27.7649 55.4107 25.6082 55.4107 20.8285V12.1436H60.3901V20.4011C60.3901 22.344 61.4457 23.2184 62.9396 23.2184C64.4135 23.2184 65.489 22.344 65.489 20.4011V12.1436H70.4485V20.848ZM92.4972 13.6008V5.03235H97.4567V27.3569H92.6566V25.7054C91.7205 26.8906 90.2864 27.7455 88.1751 27.7455C84.0124 27.7455 80.9251 24.2093 80.9251 19.7211C80.9251 15.2523 84.0124 11.7161 88.1951 11.7161C90.1669 11.7161 91.5611 12.4933 92.4972 13.6008ZM86.044 19.7405C86.044 21.7223 87.3784 23.2378 89.3702 23.2378C91.3221 23.2378 92.7163 21.7612 92.7163 19.7405C92.7163 17.7198 91.342 16.2432 89.3702 16.2432C87.3784 16.2432 86.044 17.7587 86.044 19.7405ZM116 19.449C116 19.9542 115.96 20.6342 115.9 20.9451H105.324C105.742 22.5966 106.938 23.3738 108.67 23.3738C109.826 23.3738 111.08 22.9075 112.076 22.0332L115.283 24.9476C113.67 26.5214 111.299 27.4346 108.411 27.4346C103.512 27.4346 100.185 24.2481 100.185 19.5073C100.185 14.7082 103.452 11.4052 108.172 11.4052C112.813 11.4247 115.98 14.6888 116 19.449ZM105.344 17.8753H111.021C110.622 16.3598 109.646 15.5437 108.212 15.5437C106.679 15.5437 105.723 16.3792 105.344 17.8753ZM78.1765 27.3569H73.1971V12.1436H78.1765V27.3569Z" fill="#194CD4"/>
<path d="M80.9251 5.12952C80.9251 8.00509 78.6346 10.2201 75.6868 10.2201C72.7191 10.2201 70.4485 8.00509 70.4485 5.12952C70.4485 2.23452 72.7191 0.000125748 75.6868 0.000125748C78.6346 -0.0193038 80.9251 2.21509 80.9251 5.12952Z" fill="#FFC01B"/>
</svg>
