<svg width="515" height="69" viewBox="0 0 515 69" fill="none" xmlns="http://www.w3.org/2000/svg">
<path d="M101.933 27.8979L108.02 13.594H110.901L116.988 27.8979H113.721L112.423 24.7125H106.417L105.118 27.8979H101.933ZM107.533 21.9531H111.307L109.42 17.3475L107.533 21.9531Z" fill="#1F79FF"/>
<path d="M119.18 27.8979V13.6954H122.304V19.3155H128.066V13.6954H131.191V27.8979H128.066V22.1966H122.304V27.8979H119.18Z" fill="#1F79FF"/>
<path d="M137.719 16.5156V27.8979H134.595V13.6954H144.516V16.5156H137.719Z" fill="#1F79FF"/>
<path d="M148.608 13.6954H158.752V27.8979H155.628V16.5156H151.529V17.591C151.529 25.9501 150.17 28.0805 146.924 28.0805C146.416 28.0805 145.666 27.9993 145.28 27.8979L145.483 25.3211C145.625 25.3414 145.767 25.3617 145.97 25.3617C147.654 25.3617 148.608 24.2864 148.608 16.6374V13.6954Z" fill="#1F79FF"/>
<path d="M162.298 27.8979V13.6954H165.422V27.8979H162.298Z" fill="#1F79FF"/>
<path d="M181.206 13.6954V27.8979H178.122V18.5851L171.913 27.8979H168.971V13.6954H172.055V23.0082L178.304 13.6954H181.206ZM175.139 12.6201C173.273 12.6201 172.015 11.4839 171.731 9.53613L173.536 9.2115C173.8 10.0434 174.287 10.5709 175.139 10.5709C175.991 10.5709 176.478 10.0434 176.742 9.2115L178.548 9.53613C178.264 11.4839 177.006 12.6201 175.139 12.6201Z" fill="#1F79FF"/>
<path d="M191.279 28.1413C187.1 28.1413 183.995 24.9154 183.995 20.7966C183.995 16.7591 187.039 13.4519 191.401 13.4519C194.079 13.4519 195.58 14.4664 196.899 15.7649L195.033 17.9156C193.937 16.9214 193.004 16.333 191.381 16.333C188.986 16.333 187.262 18.3214 187.262 20.7966C187.262 23.2314 188.946 25.2603 191.381 25.2603C193.004 25.2603 193.998 24.611 195.114 23.5966L197.102 25.7269C195.641 27.2892 194.018 28.1413 191.279 28.1413Z" fill="#1F79FF"/>
<path d="M199.603 27.8979V13.6954H202.728V18.5243H205.751C209.038 18.5243 210.945 20.3503 210.945 23.1299C210.945 26.0516 208.876 27.8979 205.548 27.8979H199.603ZM205.487 21.2024H202.728V25.0777H205.508C207.05 25.0777 207.841 24.4081 207.841 23.0893C207.841 21.8923 207.05 21.2024 205.487 21.2024Z" fill="#1F79FF"/>
<path d="M213.334 27.8979V13.6954H216.459V19.9039L222.221 13.6954H225.995L220.212 19.7213L226.258 27.8979H222.505L218.102 21.8517L216.459 23.556V27.8979H213.334Z" fill="#1F79FF"/>
<path d="M226.938 27.8979L233.024 13.594H235.905L241.992 27.8979H238.726L237.427 24.7125H231.421L230.123 27.8979H226.938ZM232.537 21.9531H236.311L234.424 17.3475L232.537 21.9531Z" fill="#1F79FF"/>
<path d="M255.319 13.4519C258.362 13.4519 260.452 15.0548 260.452 17.2663C260.452 19.0315 259.417 19.9851 258.159 20.5329C259.681 21.0198 260.817 22.0749 260.817 23.8806C260.817 26.3356 258.728 28.1413 255.42 28.1413C252.438 28.1413 250.632 27.3095 249.11 25.7675L250.774 23.5966C251.931 24.7328 253.452 25.4023 255.299 25.4023C256.617 25.4023 257.693 24.7936 257.693 23.698C257.693 22.5212 256.496 22.0343 254.873 22.0343H253.229V19.4373H254.832C256.475 19.4373 257.368 18.8692 257.368 17.7938C257.368 16.7997 256.435 16.2113 255.076 16.2113C253.331 16.2113 252.194 16.7997 251.241 17.7736L249.597 15.7852C250.916 14.4055 252.621 13.4519 255.319 13.4519Z" fill="#1F79FF"/>
<path d="M263.542 27.8979V13.6954H269.345C272.733 13.6954 274.782 15.7041 274.782 18.646C274.782 21.9328 272.226 23.6371 269.041 23.6371H266.667V27.8979H263.542ZM266.667 20.8575H269.142C270.704 20.8575 271.617 19.9242 271.617 18.6663C271.617 17.2663 270.643 16.5156 269.081 16.5156H266.667V20.8575Z" fill="#1F79FF"/>
<path d="M283.1 21.2024L286.529 13.6954H289.917L284.46 24.6719C283.222 27.1472 281.802 28.1211 279.813 28.1211C278.596 28.1211 277.643 27.7964 276.75 27.2892L277.967 24.9965C278.535 25.3414 279.103 25.4632 279.651 25.4632C280.219 25.4632 280.868 25.1994 281.437 24.327L275.756 13.6954H279.245L283.1 21.2024Z" fill="#1F79FF"/>
<path d="M300.232 27.8979V22.6024C299.278 23.069 297.919 23.6574 296.479 23.6574C293.658 23.6574 291.711 22.1763 291.711 18.8895V13.6954H294.835V17.9764C294.835 19.7416 295.525 20.7358 297.128 20.7358C298.386 20.7358 299.583 20.33 300.232 19.8228V13.6954H303.357V27.8979H300.232Z" fill="#1F79FF"/>
<path d="M306.756 27.8979V13.6954H309.88V19.3155H315.642V13.6954H318.767V27.8979H315.642V22.1966H309.88V27.8979H306.756Z" fill="#1F79FF"/>
<path d="M329.069 28.1413C324.687 28.1413 321.542 24.8748 321.542 20.7966C321.542 16.7591 324.727 13.4519 329.11 13.4519C333.492 13.4519 336.637 16.7185 336.637 20.7966C336.637 24.8342 333.452 28.1413 329.069 28.1413ZM329.11 25.2603C331.626 25.2603 333.37 23.2719 333.37 20.7966C333.37 18.3619 331.585 16.333 329.069 16.333C326.553 16.333 324.808 18.3214 324.808 20.7966C324.808 23.2314 326.594 25.2603 329.11 25.2603Z" fill="#1F79FF"/>
<path d="M348.799 27.8979V16.5765H344.477V13.6954H356.245V16.5765H351.923V27.8979H348.799Z" fill="#1F79FF"/>
<path d="M357.43 27.8979L363.517 13.594H366.398L372.485 27.8979H369.219L367.92 24.7125H361.914L360.616 27.8979H357.43ZM363.03 21.9531H366.804L364.917 17.3475L363.03 21.9531Z" fill="#1F79FF"/>
<path d="M380.76 27.8979V13.6954H391.473V16.475H383.864V19.3561H390.56V22.1357H383.864V25.1182H391.574V27.8979H380.76Z" fill="#1F79FF"/>
<path d="M403.665 17.2257V24.1444C405.958 24.1444 407.479 22.8053 407.479 20.6749C407.479 18.5851 405.958 17.2257 403.665 17.2257ZM403.665 28.466H400.54V26.924C396.158 26.924 393.5 24.2052 393.5 20.614C393.5 17.0634 396.178 14.4461 400.54 14.4461V13.1476H403.665V14.4461C408.007 14.4461 410.705 17.0634 410.705 20.6343C410.705 24.2052 408.047 26.924 403.665 26.924V28.466ZM400.54 24.1444V17.2257C398.248 17.2257 396.706 18.5851 396.706 20.6749C396.706 22.8053 398.248 24.1444 400.54 24.1444Z" fill="#1F79FF"/>
<path d="M413.254 27.8979V13.6954H423.967V16.475H416.359V19.3561H423.054V22.1357H416.359V25.1182H424.069V27.8979H413.254Z" fill="#1F79FF"/>
<path d="M426.847 27.8979V13.6954H429.971V19.9039L435.733 13.6954H439.507L433.725 19.7213L439.771 27.8979H436.017L431.615 21.8517L429.971 23.556V27.8979H426.847Z" fill="#1F79FF"/>
<path d="M444.974 27.8979V16.5765H440.653V13.6954H452.421V16.5765H448.099V27.8979H444.974Z" fill="#1F79FF"/>
<path d="M467.058 13.6954V27.8979H463.974V18.5851L457.765 27.8979H454.823V13.6954H457.907V23.0082L464.157 13.6954H467.058Z" fill="#1F79FF"/>
<path d="M470.476 27.8979V13.6954H477.07C478.693 13.6954 479.972 14.1418 480.783 14.9534C481.432 15.6026 481.757 16.3939 481.757 17.4083C481.757 19.0112 480.905 19.9039 479.891 20.472C481.534 21.101 482.548 22.0546 482.548 24.0023C482.548 26.5994 480.438 27.8979 477.233 27.8979H470.476ZM473.52 19.4373H476.401C477.78 19.4373 478.653 18.9909 478.653 17.8953C478.653 16.962 477.922 16.4345 476.604 16.4345H473.52V19.4373ZM473.52 25.1588H477.233C478.612 25.1588 479.444 24.6719 479.444 23.5763C479.444 22.6227 478.734 22.0343 477.131 22.0343H473.52V25.1588Z" fill="#1F79FF"/>
<path d="M485.119 27.8979V13.6954H488.243V19.3155H494.005V13.6954H497.13V27.8979H494.005V22.1966H488.243V27.8979H485.119Z" fill="#1F79FF"/>
<path d="M507.432 28.1413C503.05 28.1413 499.905 24.8748 499.905 20.7966C499.905 16.7591 503.09 13.4519 507.473 13.4519C511.855 13.4519 515 16.7185 515 20.7966C515 24.8342 511.814 28.1413 507.432 28.1413ZM507.473 25.2603C509.988 25.2603 511.733 23.2719 511.733 20.7966C511.733 18.3619 509.948 16.333 507.432 16.333C504.916 16.333 503.171 18.3214 503.171 20.7966C503.171 23.2314 504.957 25.2603 507.473 25.2603Z" fill="#1F79FF"/>
<path d="M110.049 50.9667C105.666 50.9667 102.521 47.7002 102.521 43.622C102.521 39.5845 105.707 36.2773 110.089 36.2773C114.472 36.2773 117.617 39.5439 117.617 43.622C117.617 47.6596 114.431 50.9667 110.049 50.9667ZM110.089 48.0857C112.605 48.0857 114.35 46.0973 114.35 43.622C114.35 41.1873 112.565 39.1584 110.049 39.1584C107.533 39.1584 105.788 41.1467 105.788 43.622C105.788 46.0567 107.573 48.0857 110.089 48.0857Z" fill="#1F79FF"/>
<path d="M120.388 50.7233V36.5208H123.513V42.1409H129.275V36.5208H132.4V50.7233H129.275V45.022H123.513V50.7233H120.388Z" fill="#1F79FF"/>
<path d="M137.69 36.5208H147.835V50.7233H144.71V39.341H140.612V40.4163C140.612 48.7755 139.253 50.9059 136.006 50.9059C135.499 50.9059 134.748 50.8247 134.363 50.7233L134.566 48.1465C134.708 48.1668 134.85 48.1871 135.053 48.1871C136.737 48.1871 137.69 47.1118 137.69 39.4627V36.5208Z" fill="#1F79FF"/>
<path d="M150.021 50.7233L156.108 36.4194H158.989L165.076 50.7233H161.809L160.51 47.5378H154.505L153.206 50.7233H150.021ZM155.621 44.7785H159.395L157.508 40.1729L155.621 44.7785Z" fill="#1F79FF"/>
<path d="M179.502 36.5208V50.7233H176.418V41.4105L170.209 50.7233H167.268V36.5208H170.352V45.8335L176.601 36.5208H179.502ZM173.435 35.4455C171.569 35.4455 170.311 34.3093 170.027 32.3615L171.833 32.0369C172.096 32.8687 172.583 33.3963 173.435 33.3963C174.288 33.3963 174.775 32.8687 175.038 32.0369L176.844 32.3615C176.56 34.3093 175.302 35.4455 173.435 35.4455Z" fill="#1F79FF"/>
<path d="M182.92 50.7233V36.5208H186.045V42.1409H191.807V36.5208H194.932V50.7233H191.807V45.022H186.045V50.7233H182.92Z" fill="#1F79FF"/>
<path d="M223.916 36.5208V50.7233H204.418V36.5208H207.543V47.903H212.595V36.5208H215.719V47.903H220.792V36.5208H223.916Z" fill="#1F79FF"/>
<path d="M227.323 50.7233V36.5208H230.447V42.7293L236.21 36.5208H239.983L234.201 42.5467L240.247 50.7233H236.494L232.091 44.6771L230.447 46.3814V50.7233H227.323Z" fill="#1F79FF"/>
<path d="M249.042 50.9667C244.659 50.9667 241.515 47.7002 241.515 43.622C241.515 39.5845 244.7 36.2773 249.082 36.2773C253.465 36.2773 256.61 39.5439 256.61 43.622C256.61 47.6596 253.424 50.9667 249.042 50.9667ZM249.082 48.0857C251.598 48.0857 253.343 46.0973 253.343 43.622C253.343 41.1873 251.558 39.1584 249.042 39.1584C246.526 39.1584 244.781 41.1467 244.781 43.622C244.781 46.0567 246.567 48.0857 249.082 48.0857Z" fill="#1F79FF"/>
<path d="M261.268 36.5208H271.413V50.7233H268.288V39.341H264.19V40.4163C264.19 48.7755 262.831 50.9059 259.584 50.9059C259.077 50.9059 258.326 50.8247 257.941 50.7233L258.144 48.1465C258.286 48.1668 258.428 48.1871 258.631 48.1871C260.315 48.1871 261.268 47.1118 261.268 39.4627V36.5208Z" fill="#1F79FF"/>
<path d="M273.599 50.7233L279.686 36.4194H282.567L288.653 50.7233H285.387L284.088 47.5378H278.083L276.784 50.7233H273.599ZM279.199 44.7785H282.973L281.086 40.1729L279.199 44.7785Z" fill="#1F79FF"/>
<path d="M300.235 50.7233V39.4019H295.914V36.5208H307.682V39.4019H303.36V50.7233H300.235Z" fill="#1F79FF"/>
<path d="M310.085 50.7233V36.5208H316.679C318.302 36.5208 319.58 36.9672 320.392 37.7787C321.041 38.428 321.365 39.2193 321.365 40.2337C321.365 41.8366 320.513 42.7293 319.499 43.2974C321.142 43.9264 322.157 44.88 322.157 46.8277C322.157 49.4247 320.047 50.7233 316.841 50.7233H310.085ZM313.128 42.2626H316.009C317.389 42.2626 318.261 41.8163 318.261 40.7207C318.261 39.7874 317.531 39.2598 316.212 39.2598H313.128V42.2626ZM313.128 47.9842H316.841C318.221 47.9842 319.052 47.4973 319.052 46.4016C319.052 45.4481 318.342 44.8597 316.739 44.8597H313.128V47.9842Z" fill="#1F79FF"/>
<path d="M331.625 50.9667C327.243 50.9667 324.098 47.7002 324.098 43.622C324.098 39.5845 327.283 36.2773 331.666 36.2773C336.048 36.2773 339.193 39.5439 339.193 43.622C339.193 47.6596 336.008 50.9667 331.625 50.9667ZM331.666 48.0857C334.182 48.0857 335.927 46.0973 335.927 43.622C335.927 41.1873 334.141 39.1584 331.625 39.1584C329.109 39.1584 327.365 41.1467 327.365 43.622C327.365 46.0567 329.15 48.0857 331.666 48.0857Z" fill="#1F79FF"/>
<path d="M345.089 39.341V50.7233H341.965V36.5208H351.886V39.341H345.089Z" fill="#1F79FF"/>
<path d="M360.989 50.9667C356.607 50.9667 353.462 47.7002 353.462 43.622C353.462 39.5845 356.647 36.2773 361.03 36.2773C365.412 36.2773 368.557 39.5439 368.557 43.622C368.557 47.6596 365.372 50.9667 360.989 50.9667ZM361.03 48.0857C363.546 48.0857 365.29 46.0973 365.29 43.622C365.29 41.1873 363.505 39.1584 360.989 39.1584C358.473 39.1584 356.728 41.1467 356.728 43.622C356.728 46.0567 358.514 48.0857 361.03 48.0857Z" fill="#1F79FF"/>
<path d="M383.417 44.0278L386.846 36.5208H390.234L384.777 47.4973C383.539 49.9725 382.119 50.9464 380.13 50.9464C378.913 50.9464 377.959 50.6218 377.067 50.1146L378.284 47.8219C378.852 48.1668 379.42 48.2885 379.968 48.2885C380.536 48.2885 381.185 48.0248 381.753 47.1523L376.072 36.5208H379.562L383.417 44.0278Z" fill="#1F79FF"/>
<path d="M398.966 50.9667C394.787 50.9667 391.682 47.7407 391.682 43.622C391.682 39.5845 394.726 36.2773 399.088 36.2773C401.766 36.2773 403.268 37.2918 404.586 38.5903L402.72 40.741C401.624 39.7468 400.691 39.1584 399.068 39.1584C396.674 39.1584 394.949 41.1467 394.949 43.622C394.949 46.0567 396.633 48.0857 399.068 48.0857C400.691 48.0857 401.685 47.4364 402.801 46.4219L404.789 48.5523C403.328 50.1146 401.705 50.9667 398.966 50.9667Z" fill="#1F79FF"/>
<path d="M407.291 50.7233V36.5208H419.139V50.7233H416.015V39.341H410.415V50.7233H407.291Z" fill="#1F79FF"/>
<path d="M422.689 50.7233V36.5208H425.814V50.7233H422.689Z" fill="#1F79FF"/>
<path d="M428.288 50.7233L433.238 43.5003L428.491 36.5208H432.143L435.125 41.1265L438.128 36.5208H441.679L436.931 43.4597L441.881 50.7233H438.229L435.044 45.8538L431.838 50.7233H428.288Z" fill="#1F79FF"/>
<path d="M450.229 44.0278L453.658 36.5208H457.046L451.588 47.4973C450.351 49.9725 448.93 50.9464 446.942 50.9464C445.725 50.9464 444.771 50.6218 443.878 50.1146L445.096 47.8219C445.664 48.1668 446.232 48.2885 446.78 48.2885C447.348 48.2885 447.997 48.0248 448.565 47.1523L442.884 36.5208H446.374L450.229 44.0278Z" fill="#1F79FF"/>
<g clip-path="url(#clip0_410_6272)">
<path d="M88.7653 0H0V44.0278H88.7653V0Z" fill="#1F79FF"/>
<path d="M14.0472 23.7836L11.3057 31.346C10.8637 32.4158 10.602 33.5503 10.5311 34.7042C10.5271 35.0296 10.5934 35.352 10.7255 35.6498C10.8576 35.9476 11.0524 36.2139 11.297 36.4308C11.8098 36.8922 12.461 37.1742 13.1508 37.2337V37.6481H3.38562V37.2337C3.90294 37.125 4.40142 36.9418 4.86518 36.6898C5.25932 36.4284 5.59911 36.0943 5.86607 35.7056C6.75541 34.3274 7.47702 32.8495 8.01579 31.3029L15.727 11.1105C15.8836 10.7048 16.0142 10.3595 16.1186 10.066C16.2145 9.78248 16.2959 9.49434 16.3623 9.20267C16.4249 8.91908 16.457 8.62969 16.458 8.33938C16.4645 8.15205 16.4314 7.96545 16.361 7.79153C16.2905 7.6176 16.1843 7.46018 16.049 7.32932C15.7336 7.08977 15.3565 6.94318 14.9611 6.90631V6.46603H25.5965V6.90631C25.1884 6.96995 24.8189 7.18204 24.5598 7.50123C24.3008 7.82042 24.1708 8.22385 24.1953 8.63289C24.2439 9.26252 24.3938 9.88039 24.6392 10.4631L32.8116 33.8323C33.1681 34.7279 33.5959 35.594 34.091 36.4222C34.5176 36.9034 35.0987 37.2236 35.7359 37.3286V37.743H24.8655V37.3286C26.4379 36.9718 27.227 35.8582 27.2328 33.9877C27.1514 32.3295 26.542 30.7397 25.4921 29.4468C24.2375 27.7856 22.6146 26.4327 20.7488 25.4929C18.6835 24.4033 16.3862 23.8173 14.0472 23.7836ZM24.4477 25.1994L19.1387 10.0142L14.787 21.4182C16.6102 21.4117 18.419 21.7395 20.1221 22.3851C21.7571 22.9923 23.2349 23.9538 24.4477 25.1994Z" fill="white"/>
<path d="M56.798 6.04303H74.3526C76.2106 6.00101 78.0638 6.24862 79.8444 6.77682C80.5443 6.98583 81.1489 7.43035 81.554 8.03386C81.959 8.63736 82.1393 9.36208 82.0638 10.0832C82.0678 11.1568 81.6815 12.1958 80.9758 13.0098C80.3057 13.8324 79.4992 14.536 78.5911 15.0903C77.7266 15.6083 76.5081 16.2788 74.9357 17.1018C76.2749 17.5109 77.5718 18.0457 78.8087 18.6989C79.9937 19.3159 81.0936 20.0819 82.0812 20.9779C83.0473 21.8446 83.8439 22.8806 84.4311 24.034C85.0235 25.2343 85.3217 26.5565 85.3014 27.8929C85.3361 29.6584 84.8358 31.3936 83.8653 32.8741C82.8871 34.3269 81.4659 35.431 79.8096 36.0251C78.7164 36.4162 77.5888 36.7052 76.4414 36.8884C75.2902 37.0847 74.1273 37.2059 72.9601 37.2509C71.8286 37.2509 70.4535 37.3114 68.8347 37.3114H56.8241V36.8884C58.1731 36.6898 59.026 36.1632 59.3655 35.3172C59.7751 34.0605 59.9664 32.744 59.9312 31.4237V12.2501C59.9604 10.8531 59.7665 9.46039 59.3568 8.12356C59.1373 7.6362 58.7827 7.22078 58.3343 6.92577C57.8858 6.63076 57.3621 6.46832 56.8241 6.45741L56.798 6.04303ZM65.1619 12.2069V18.5089C66.8033 18.0382 68.4185 17.4821 70.0009 16.8428C71.5822 16.218 73.0697 15.3815 74.4222 14.3565C74.9887 13.9891 75.4597 13.4943 75.797 12.9122C76.1342 12.3302 76.3282 11.6774 76.3631 11.0069C76.3801 10.6392 76.296 10.2738 76.1197 9.94988C75.9434 9.62596 75.6815 9.35572 75.3622 9.16814C74.6803 8.7327 73.9056 8.46077 73.0993 8.37391C72.1682 8.27933 71.2328 8.23323 70.2968 8.23578C67.68 8.23578 66.1221 8.55232 65.6232 9.1854C65.3272 9.60841 65.1619 10.6012 65.1619 12.1724V12.2069ZM65.1619 20.7362V31.3633C65.1297 32.1868 65.2058 33.011 65.3882 33.815C65.4597 34.051 65.5871 34.2666 65.7597 34.4438C65.9322 34.621 66.1451 34.7547 66.3803 34.8337C67.2007 35.0628 68.053 35.159 68.9043 35.1186C72.2812 35.1186 74.8139 34.5949 76.5023 33.5474C77.2031 33.0755 77.8206 32.4921 78.33 31.8208C78.8343 31.1654 79.2228 30.4298 79.4789 29.6454C79.8163 28.6176 79.9325 27.531 79.8201 26.4559C79.7076 25.3807 79.369 24.341 78.8261 23.4038C78.1165 22.1692 77.1704 21.0841 76.0411 20.2096C74.9352 19.315 73.7038 18.585 72.3856 18.0428L65.1619 20.7362Z" fill="white"/>
<path d="M45.7882 19.778V24.8023C45.7801 24.9759 45.8102 25.1493 45.8764 25.3102C45.9425 25.4712 46.0431 25.616 46.1712 25.7346H43.3078C43.4764 25.6446 43.6163 25.5096 43.7117 25.3448C43.807 25.1801 43.854 24.9922 43.8474 24.8023V19.778H38.7994C38.6024 19.7641 38.4045 19.7875 38.2163 19.847C38.0538 19.9314 37.9136 20.0527 37.8073 20.201V17.4384C37.9229 17.5766 38.07 17.6855 38.2365 17.756C38.403 17.8266 38.584 17.8568 38.7646 17.8442H43.8474V12.8716C43.8613 12.6636 43.8317 12.4549 43.7603 12.2587C43.673 12.0925 43.5363 11.9569 43.3687 11.8702H46.206C46.0516 11.9773 45.9289 12.1234 45.8509 12.2935C45.7728 12.4636 45.7421 12.6513 45.7621 12.8371V17.8442H50.8361C51.0177 17.8541 51.1991 17.8227 51.3666 17.7524C51.534 17.682 51.683 17.5747 51.8022 17.4384V20.2873C51.7072 20.1274 51.5707 19.9959 51.4068 19.9063C51.243 19.8167 51.058 19.7723 50.871 19.778H45.7882Z" fill="white"/>
<path d="M88.7653 65.4632H0V68.4761H88.7653V65.4632Z" fill="#1F79FF"/>
<path d="M2.84595 59.3598L4.2646 57.685C5.3985 58.7782 6.91319 59.3965 8.49442 59.4116C9.94787 59.4116 10.8704 58.7468 10.8704 57.685C10.8704 56.6232 10.3308 56.226 7.84167 55.6304C4.98697 54.9743 3.38556 54.1369 3.38556 51.642C3.38556 49.3629 5.30028 47.7917 7.9548 47.7917C9.72482 47.7546 11.4501 48.3454 12.82 49.4578L11.558 51.2276C10.5281 50.3909 9.25033 49.9118 7.91999 49.8636C6.54487 49.8636 5.73545 50.5629 5.73545 51.4779C5.73545 52.393 6.35339 52.9542 8.91217 53.5671C11.7495 54.2491 13.2638 55.2937 13.2638 57.4951C13.2638 59.9813 11.2882 61.4662 8.46831 61.4662C6.39386 61.4902 4.38643 60.7381 2.84595 59.3598Z" fill="#1F79FF"/>
<path d="M15.4049 54.6462C15.3813 53.7373 15.5435 52.833 15.8817 51.9879C16.2199 51.1427 16.7272 50.3743 17.373 49.729C18.0187 49.0836 18.7896 48.5747 19.639 48.2328C20.4884 47.8909 21.3989 47.7233 22.3154 47.7399C23.2832 47.706 24.2475 47.8728 25.1467 48.2296C26.0458 48.5863 26.8601 49.1252 27.5374 49.8118L26.0317 51.5384C25.5449 51.0321 24.9623 50.6259 24.3172 50.3429C23.672 50.06 22.977 49.9059 22.2719 49.8895C21.0023 49.8895 19.7848 50.3897 18.8871 51.2802C17.9894 52.1706 17.485 53.3783 17.485 54.6376C17.485 55.8968 17.9894 57.1046 18.8871 57.995C19.7848 58.8854 21.0023 59.3857 22.2719 59.3857C23.0004 59.3806 23.7198 59.2243 24.3838 58.927C25.0478 58.6296 25.6418 58.1977 26.1274 57.6591L27.6331 59.1785C26.9595 59.9464 26.1217 60.5556 25.1807 60.9618C24.2397 61.368 23.2192 61.561 22.1935 61.5266C21.2878 61.5328 20.39 61.3579 19.5539 61.0125C18.7177 60.667 17.9602 60.158 17.3267 59.5159C16.6931 58.8738 16.1964 58.1117 15.8663 57.275C15.5361 56.4384 15.3792 55.5443 15.4049 54.6462Z" fill="#1F79FF"/>
<path d="M30.131 47.9989H32.4896V53.5239H38.8865V47.9989H41.2364V61.2935H38.8865V55.6908H32.4896V61.2935H30.131V47.9989Z" fill="#1F79FF"/>
<path d="M44.0911 54.6462C44.0825 53.2681 44.4872 51.9186 45.2537 50.7691C46.0203 49.6197 47.114 48.7223 48.396 48.191C49.678 47.6596 51.0903 47.5184 52.4534 47.7851C53.8165 48.0519 55.0689 48.7147 56.0513 49.6892C57.0337 50.6636 57.7019 51.9059 57.9709 53.258C58.2398 54.61 58.0974 56.0109 57.5617 57.2825C57.0261 58.5541 56.1213 59.639 54.9625 60.3993C53.8037 61.1597 52.4432 61.5611 51.0538 61.5525C50.1359 61.5653 49.2247 61.3954 48.3741 61.0529C47.5236 60.7103 46.7509 60.2021 46.1017 59.5582C45.4526 58.9143 44.9402 58.1479 44.5949 57.3042C44.2495 56.4605 44.0782 55.5567 44.0911 54.6462ZM55.6405 54.6462C55.6638 54.0362 55.5633 53.4277 55.345 52.8568C55.1268 52.286 54.7951 51.7645 54.3697 51.3233C53.9444 50.882 53.434 50.5301 52.8689 50.2882C52.3037 50.0464 51.6954 49.9196 51.0799 49.9154C50.4656 49.9169 49.858 50.0422 49.294 50.2837C48.73 50.5252 48.2214 50.8779 47.799 51.3203C47.3765 51.7627 47.0492 52.2857 46.8367 52.8574C46.6242 53.4291 46.531 54.0377 46.5629 54.6462C46.536 55.254 46.6336 55.8609 46.8496 56.4303C47.0655 56.9997 47.3955 57.5199 47.8197 57.9594C48.2438 58.3989 48.7532 58.7487 49.3173 58.9876C49.8813 59.2266 50.4883 59.3498 51.1017 59.3498C51.715 59.3498 52.322 59.2266 52.8861 58.9876C53.4501 58.7487 53.9596 58.3989 54.3837 57.9594C54.8078 57.5199 55.1378 56.9997 55.3538 56.4303C55.5698 55.8609 55.6673 55.254 55.6405 54.6462Z" fill="#1F79FF"/>
<path d="M60.3664 54.6462C60.3578 53.2681 60.7625 51.9186 61.529 50.7691C62.2955 49.6197 63.3893 48.7223 64.6713 48.191C65.9533 47.6596 67.3656 47.5184 68.7287 47.7851C70.0918 48.0519 71.3441 48.7147 72.3266 49.6892C73.309 50.6636 73.9772 51.9059 74.2461 53.258C74.5151 54.61 74.3727 56.0109 73.837 57.2825C73.3013 58.5541 72.3966 59.639 71.2378 60.3993C70.079 61.1597 68.7184 61.5611 67.3291 61.5525C66.4112 61.5653 65.5 61.3954 64.6494 61.0529C63.7988 60.7103 63.0261 60.2021 62.377 59.5582C61.7279 58.9143 61.2155 58.1479 60.8701 57.3042C60.5248 56.4605 60.3535 55.5567 60.3664 54.6462ZM71.9157 54.6462C71.9391 54.0362 71.8386 53.4277 71.6203 52.8568C71.402 52.286 71.0704 51.7645 70.645 51.3233C70.2196 50.882 69.7092 50.5301 69.1441 50.2882C68.579 50.0464 67.9706 49.9196 67.3552 49.9154C66.7409 49.9169 66.1333 50.0422 65.5693 50.2837C65.0053 50.5252 64.4966 50.8779 64.0742 51.3203C63.6518 51.7627 63.3244 52.2857 63.1119 52.8574C62.8995 53.4291 62.8063 54.0377 62.8382 54.6462C62.8113 55.254 62.9088 55.8609 63.1248 56.4303C63.3408 56.9997 63.6708 57.5199 64.0949 57.9594C64.519 58.3989 65.0285 58.7487 65.5925 58.9876C66.1566 59.2266 66.7636 59.3498 67.3769 59.3498C67.9903 59.3498 68.5973 59.2266 69.1614 58.9876C69.7254 58.7487 70.2348 58.3989 70.659 57.9594C71.0831 57.5199 71.4131 56.9997 71.6291 56.4303C71.8451 55.8609 71.9426 55.254 71.9157 54.6462Z" fill="#1F79FF"/>
<path d="M77.2334 47.9989H79.592V59.1698H86.633V61.2935H77.2334V47.9989Z" fill="#1F79FF"/>
</g>
<defs>
<clipPath id="clip0_410_6272">
<rect width="88.7653" height="68.4761" fill="white"/>
</clipPath>
</defs>
</svg>
