<svg width="587" height="212" viewBox="0 0 587 212" fill="none" xmlns="http://www.w3.org/2000/svg">
<mask id="mask0_663_3207" style="mask-type:alpha" maskUnits="userSpaceOnUse" x="311" y="0" width="276" height="212">
<rect x="311" width="276" height="212" rx="12" fill="white"/>
</mask>
<g mask="url(#mask0_663_3207)">
<path opacity="0.5" fill-rule="evenodd" clip-rule="evenodd" d="M375.479 148.7C369.267 153.372 363.181 158.025 357.209 162.84C350.317 168.398 340.237 167.299 334.696 160.386C329.154 153.473 330.25 143.363 337.143 137.806C346.308 130.415 355.819 123.317 365.048 116.429C367.423 114.656 369.779 112.897 372.107 111.151C383.631 102.503 394.639 94.0164 404.862 84.9026C408.606 81.5647 412.887 78.3307 417.069 75.6462L417.087 75.6347C417.943 75.085 422.781 71.9781 429.383 73.5374C437.856 75.5386 440.584 82.6644 441.23 85.1897C441.893 87.7863 441.728 89.9033 441.677 90.5156C441.604 91.4134 441.469 92.1218 441.39 92.5018C441.139 93.7101 440.782 94.6885 440.714 94.8729C440.711 94.8816 440.709 94.8885 440.707 94.8936C440.478 95.5284 440.213 96.1609 440.04 96.5665C439.644 97.4989 439.093 98.731 438.483 100.073C437.242 102.804 435.535 106.475 433.78 110.227C431.964 114.107 430.114 118.035 428.608 121.234C427.141 124.349 425.999 126.774 425.53 127.791C418.901 142.187 410.065 155.01 402.156 166.488C401.24 167.817 400.337 169.128 399.451 170.421C398.915 171.203 398.384 171.981 397.858 172.754C401.928 169.388 405.911 165.635 409.981 161.46C421.554 149.59 435.382 141.158 447.557 133.92C458.099 120.841 470.648 108.961 484.812 100.4C486.466 99.4006 488.23 98.4418 490.035 97.6867C491.549 97.0532 494.455 95.9657 498.006 95.9435C502.127 95.9176 509.285 97.5814 513.146 104.929C516.07 110.493 514.954 115.721 514.574 117.296C513.644 121.162 511.596 124.38 510.498 125.994C509.955 126.792 509.365 127.596 508.744 128.383C509.543 128.19 510.68 127.981 512.014 127.938C513.131 127.902 521.852 127.708 526.55 136.214C530.506 143.381 527.471 149.896 527.124 150.642C527.115 150.661 527.108 150.676 527.103 150.687C526.335 152.373 525.447 153.531 525.151 153.911C524.743 154.436 524.382 154.834 524.169 155.061C523.482 155.796 522.821 156.361 522.642 156.513L522.626 156.528C521.722 157.301 520.323 158.372 519.229 159.204C518.038 160.109 516.825 161.02 515.708 161.859C515.539 161.987 515.371 162.113 515.206 162.237C512.568 165.079 509.995 168.843 506.57 173.853C505.725 175.089 504.828 176.401 503.865 177.793C499.55 184.037 495.64 190.698 491.864 197.728C498.807 193.313 505.472 189.042 512.228 184.287C516.207 181.487 520.616 178.846 524.397 176.582C525.092 176.166 525.765 175.762 526.411 175.373C529.072 173.016 531.816 170.677 534.654 168.348C536.046 167.206 539.274 165.041 541.297 163.835C541.849 163.506 542.728 162.996 543.689 162.538C544.096 162.344 545.092 161.879 546.37 161.499C546.973 161.32 548.283 160.961 549.98 160.849C551.168 160.77 555.602 160.549 560.074 163.581C566.054 167.636 567.412 173.998 567.093 178.167C566.84 181.477 565.623 183.838 565.224 184.588C564.283 186.357 563.194 187.598 562.882 187.954L562.872 187.965C562.001 188.958 561.023 189.874 560.292 190.538C555.477 194.914 550.228 198.401 545.555 201.29C530.403 215.011 518.11 229.603 505.396 247.456C500.255 254.674 490.254 256.345 483.057 251.19C480.919 249.658 479.268 247.695 478.14 245.504C471.792 250.248 465.916 255.177 460.614 260.544C460.588 260.583 460.561 260.624 460.532 260.668C460.1 261.327 459.589 262.146 459.003 263.085L458.915 263.227C458.449 263.974 457.777 265.05 457.243 265.829C457.087 266.057 456.811 266.454 456.468 266.894C456.299 267.111 456.003 267.483 455.613 267.914L455.608 267.919C455.356 268.196 454.425 269.223 453.007 270.238C452.341 270.714 450.693 271.832 448.293 272.553C445.837 273.292 440.652 274.126 435.348 270.885C430.227 267.756 428.595 263.002 428.089 260.854C427.56 258.614 427.642 256.789 427.697 256.011C427.812 254.358 428.164 253.092 428.264 252.734C428.416 252.187 428.569 251.744 428.665 251.478C430.667 245.898 433.697 240.256 436.316 235.625C436.102 235.791 435.888 235.957 435.673 236.122C430.846 239.827 424.809 243.829 419.305 247.476C416.325 249.452 413.5 251.324 411.109 252.989C403.286 258.437 397.363 263.369 393.504 268.605C393.494 268.62 393.479 268.64 393.46 268.665C393.176 269.056 391.981 270.7 390.487 272.045C390.479 272.053 390.468 272.063 390.455 272.075C390.119 272.381 388.272 274.064 385.423 275.156C383.905 275.738 380.055 276.959 375.307 275.608C369.632 273.992 366.324 269.82 364.864 266.273C363.644 263.311 363.628 260.751 363.652 259.73C363.682 258.487 363.849 257.501 363.957 256.952C364.174 255.853 364.46 255.003 364.586 254.641C365.176 252.943 366.308 250.777 366.76 249.914C366.799 249.838 366.834 249.772 366.862 249.718C367.087 249.284 367.307 248.863 367.521 248.453C368.017 247.501 368.484 246.607 368.92 245.742C369.279 245.029 369.462 244.634 369.532 244.485C372.879 233.935 378.758 226.125 384.45 219.896C385.524 218.721 386.622 217.571 387.712 216.456C387.087 216.729 386.457 216.997 385.822 217.262C385.822 217.262 385.737 217.298 385.453 217.423C385.379 217.456 385.28 217.5 385.167 217.55C384.961 217.641 384.71 217.752 384.485 217.851C383.71 218.192 382.698 218.631 381.56 219.098C379.402 219.982 376.3 221.167 373.103 221.959C371.507 222.354 369.438 222.768 367.177 222.882C365.166 222.985 361.442 222.949 357.504 221.143C352.701 218.94 348.7 214.562 347.401 208.578C346.338 203.675 347.483 199.433 348.36 196.991C354.544 179.762 364.181 165.183 373.055 152.23C373.871 151.039 374.679 149.863 375.479 148.7ZM469.079 158.469C467.865 160.089 466.682 161.735 465.53 163.4C467.965 160.973 470.448 158.544 472.987 156.132C471.669 156.926 470.365 157.704 469.079 158.469ZM367.488 249.852C367.491 249.846 367.547 249.771 367.649 249.647C367.537 249.797 367.486 249.859 367.488 249.852ZM460.95 260.053C460.949 260.054 460.934 260.076 460.904 260.116C460.935 260.071 460.95 260.052 460.95 260.053ZM484.275 107.515C484.279 107.514 484.249 107.573 484.171 107.695C484.233 107.577 484.271 107.516 484.275 107.515ZM378.517 207.805C378.51 207.827 378.502 207.849 378.494 207.871L378.497 207.862C378.501 207.851 378.508 207.832 378.517 207.805Z" fill="url(#paint0_linear_663_3207)"/>
</g>
<mask id="mask1_663_3207" style="mask-type:alpha" maskUnits="userSpaceOnUse" x="0" y="0" width="273" height="212">
<rect width="273" height="212" rx="12" transform="matrix(1 0 0 -1 0 212)" fill="white"/>
</mask>
<g mask="url(#mask1_663_3207)">
<path opacity="0.5" fill-rule="evenodd" clip-rule="evenodd" d="M61.4788 68.2997C55.2667 63.6282 49.1811 58.9748 43.2095 54.1599C36.3167 48.6024 26.2369 49.7012 20.6956 56.6143C15.1544 63.5274 16.25 73.6368 23.1428 79.1944C32.3084 86.5845 41.8193 93.6832 51.0476 100.571C53.4229 102.344 55.7795 104.103 58.1066 105.849C69.631 114.497 80.6387 122.984 90.8615 132.097C94.6057 135.435 98.8871 138.669 103.069 141.354L103.087 141.365C103.943 141.915 108.781 145.022 115.383 143.463C123.856 141.461 126.584 134.336 127.23 131.81C127.893 129.214 127.728 127.097 127.677 126.484C127.604 125.587 127.469 124.878 127.39 124.498C127.139 123.29 126.782 122.312 126.714 122.127C126.711 122.118 126.709 122.112 126.707 122.106C126.478 121.472 126.213 120.839 126.04 120.434C125.644 119.501 125.093 118.269 124.483 116.927C123.242 114.196 121.535 110.525 119.78 106.773C117.964 102.893 116.114 98.9653 114.608 95.7661C113.141 92.6505 111.999 90.2259 111.53 89.2087C104.901 74.8127 96.0649 61.9898 88.156 50.5122C87.2403 49.1832 86.337 47.8723 85.4509 46.5791C84.9149 45.7966 84.3839 45.0191 83.8584 44.2459C87.9278 47.6121 91.9115 51.3648 95.9815 55.5395C107.554 67.4096 121.382 75.842 133.557 83.08C144.099 96.1595 156.648 108.039 170.812 116.6C172.466 117.599 174.23 118.558 176.035 119.313C177.549 119.947 180.455 121.034 184.006 121.057C188.127 121.082 195.285 119.419 199.146 112.071C202.07 106.507 200.954 101.279 200.574 99.7039C199.644 95.8381 197.596 92.6201 196.498 91.0058C195.955 90.2076 195.365 89.4045 194.744 88.6173C195.543 88.8102 196.68 89.0189 198.014 89.0618C199.131 89.0978 207.852 89.2922 212.55 80.7855C216.506 73.6194 213.471 67.1038 213.124 66.3582C213.115 66.3395 213.108 66.3244 213.103 66.3131C212.335 64.627 211.447 63.469 211.151 63.0888C210.743 62.5638 210.382 62.1657 210.169 61.9388C209.482 61.204 208.821 60.6394 208.642 60.4866L208.626 60.4725C207.722 59.6993 206.323 58.6284 205.229 57.7965C204.038 56.891 202.825 55.9797 201.708 55.1407C201.539 55.0132 201.371 54.8873 201.206 54.7633C198.568 51.9209 195.995 48.1574 192.57 43.1473C191.725 41.9112 190.828 40.5992 189.865 39.2065C185.55 32.963 181.64 26.3024 177.864 19.2722C184.807 23.6873 191.472 27.9578 198.228 32.7126C202.207 35.5133 206.616 38.1537 210.397 40.4185C211.092 40.8345 211.765 41.2378 212.411 41.6272C215.072 43.9836 217.816 46.3227 220.654 48.6517C222.046 49.7943 225.274 51.9593 227.297 53.1647C227.849 53.4939 228.728 54.004 229.689 54.462C230.096 54.6563 231.092 55.1212 232.37 55.5009C232.973 55.6801 234.283 56.039 235.98 56.1513C237.168 56.23 241.602 56.4506 246.074 53.4188C252.054 49.3641 253.412 43.0023 253.093 38.8335C252.84 35.523 251.623 33.1624 251.224 32.4119C250.283 30.6432 249.194 29.4017 248.882 29.046L248.872 29.0346C248.001 28.0416 247.023 27.1264 246.292 26.4622C241.477 22.0858 236.228 18.5991 231.555 15.7098C216.403 1.98872 204.11 -12.6032 191.396 -30.4558C186.255 -37.6736 176.254 -39.3454 169.057 -34.1898C166.919 -32.6577 165.268 -30.6951 164.14 -28.5037C157.792 -33.2477 151.916 -38.1769 146.614 -43.544C146.588 -43.5827 146.561 -43.6239 146.532 -43.6677C146.1 -44.327 145.589 -45.1464 145.003 -46.0853L144.915 -46.2267C144.449 -46.9737 143.777 -48.0503 143.243 -48.8291C143.087 -49.0565 142.811 -49.4535 142.468 -49.894C142.299 -50.1111 142.003 -50.4834 141.613 -50.9137L141.608 -50.9189C141.356 -51.1965 140.425 -52.2231 139.007 -53.2376C138.341 -53.7135 136.693 -54.8315 134.293 -55.5535C131.837 -56.2922 126.652 -57.1261 121.348 -53.885C116.227 -50.7562 114.595 -46.0019 114.089 -43.8544C113.56 -41.6142 113.642 -39.7887 113.697 -39.0113C113.812 -37.3582 114.164 -36.0923 114.264 -35.7338C114.416 -35.187 114.569 -34.7435 114.665 -34.4776C116.667 -28.898 119.697 -23.2562 122.316 -18.6254C122.102 -18.7912 121.888 -18.9566 121.673 -19.1217C116.846 -22.8274 110.809 -26.8285 105.305 -30.4763C102.325 -32.4518 99.5004 -34.3236 97.1095 -35.9888C89.286 -41.4374 83.3631 -46.3689 79.5042 -51.6053C79.4936 -51.6197 79.4789 -51.6398 79.4604 -51.6652C79.1763 -52.056 77.9808 -53.7003 76.4874 -55.0452C76.4789 -55.0529 76.468 -55.0628 76.4547 -55.0749C76.1186 -55.3812 74.272 -57.064 71.4226 -58.1564C69.9054 -58.7381 66.0548 -59.9594 61.3069 -58.6078C55.6324 -56.9923 52.324 -52.8197 50.8639 -49.2733C49.6444 -46.3114 49.6278 -43.7507 49.6521 -42.7295C49.6817 -41.4871 49.8492 -40.5006 49.9573 -39.9519C50.1738 -38.8533 50.4601 -38.0029 50.5859 -37.6408C51.1758 -35.9435 52.3083 -33.777 52.7595 -32.9138C52.7992 -32.8379 52.8336 -32.7721 52.8619 -32.7175C53.0871 -32.2837 53.3066 -31.8631 53.5206 -31.4532C54.0174 -30.5012 54.484 -29.6073 54.9198 -28.7419C55.2789 -28.0287 55.4618 -27.6343 55.5322 -27.4849C58.879 -16.9351 64.7577 -9.1253 70.4502 -2.89605C71.5241 -1.72099 72.6217 -0.570698 73.7117 0.543622C73.0871 0.271387 72.4571 0.00286113 71.8218 -0.261891C71.8223 -0.261662 71.7365 -0.298087 71.4527 -0.423324C71.3791 -0.455795 71.2797 -0.49976 71.1665 -0.549826C70.9612 -0.640664 70.7103 -0.751629 70.4853 -0.850652C69.71 -1.19182 68.6984 -1.63141 67.5599 -2.09777C65.4024 -2.98153 62.2998 -4.16669 59.1026 -4.95901C57.5071 -5.35439 55.4377 -5.76763 53.1775 -5.88238C51.166 -5.98451 47.4421 -5.94907 43.5036 -4.14278C38.7012 -1.94032 34.6997 2.4384 33.4013 8.42243C32.3376 13.3247 33.4832 17.5668 34.36 20.0095C40.544 37.238 50.1806 51.8172 59.0549 64.7701C59.8708 65.961 60.679 67.1367 61.4788 68.2997ZM155.079 58.5308C153.865 56.9107 152.682 55.2653 151.53 53.5997C153.965 56.0269 156.448 58.4561 158.987 60.8685C157.669 60.074 156.365 59.2957 155.079 58.5308ZM53.4883 -32.8524C53.4909 -32.846 53.547 -32.7713 53.6488 -32.6473C53.5366 -32.7968 53.4857 -32.8588 53.4883 -32.8524ZM146.95 -43.053C146.949 -43.0543 146.934 -43.0762 146.904 -43.1155C146.935 -43.0714 146.95 -43.0517 146.95 -43.053ZM170.275 109.485C170.279 109.486 170.249 109.427 170.171 109.305C170.233 109.423 170.271 109.484 170.275 109.485ZM64.5174 9.19535C64.5095 9.17337 64.5016 9.15138 64.4937 9.1294L64.4968 9.13779C64.5009 9.14908 64.508 9.16835 64.5174 9.19535Z" fill="url(#paint1_linear_663_3207)"/>
</g>
<defs>
<linearGradient id="paint0_linear_663_3207" x1="449.149" y1="73.1039" x2="449.149" y2="276.221" gradientUnits="userSpaceOnUse">
<stop stop-color="#DAE8FF"/>
<stop offset="1" stop-color="white" stop-opacity="0"/>
</linearGradient>
<linearGradient id="paint1_linear_663_3207" x1="135.149" y1="143.896" x2="135.149" y2="-59.2208" gradientUnits="userSpaceOnUse">
<stop stop-color="#DAE8FF"/>
<stop offset="1" stop-color="white" stop-opacity="0"/>
</linearGradient>
</defs>
</svg>
