<?xml version="1.0" encoding="UTF-8"?>

<svg version="1.1" xmlns="http://www.w3.org/2000/svg" xmlns:xlink="http://www.w3.org/1999/xlink">
    <symbol viewBox="0 0 16 16" id="phone" xmlns="http://www.w3.org/2000/svg">
        <path fill-rule="evenodd" clip-rule="evenodd" d="M8.25565 0C10.2367 0.276344 12.0312 1.17197 13.4496 2.59031C14.7947 3.93874 15.677 5.63676 15.9999 7.50791L14.7714 7.71766C14.495 6.10288 13.7326 4.63459 12.5706 3.47262C11.3454 2.25071 9.79386 1.47495 8.08252 1.23523L8.25565 0ZM12.1643 10.5843C11.6416 10.0683 10.989 10.0683 10.4696 10.5843C10.0734 10.9772 9.67723 11.3701 9.28768 11.7696C9.18114 11.8795 9.09125 11.9028 8.9614 11.8295C8.85982 11.7741 8.75563 11.7229 8.65151 11.6717L8.65147 11.6717C8.49283 11.5937 8.33438 11.5158 8.18564 11.4233C7.03698 10.7009 6.07477 9.77194 5.22243 8.72649C4.79959 8.20709 4.42336 7.65108 4.16033 7.02514C4.10706 6.89862 4.11705 6.81538 4.22026 6.71217C4.5596 6.38424 4.89161 6.04899 5.22465 5.71268L5.2247 5.71263L5.39223 5.54353C5.93493 4.99751 5.93493 4.35825 5.3889 3.80889C5.23411 3.65244 5.07932 3.49765 4.92453 3.34286L4.92447 3.34279L4.9244 3.34273C4.76959 3.18792 4.61479 3.03312 4.45998 2.87665C4.35344 2.7701 4.24726 2.66318 4.14108 2.55627C3.92874 2.34245 3.7164 2.12862 3.5011 1.91776C2.97838 1.40836 2.32581 1.40836 1.80641 1.92109C1.64656 2.07828 1.48937 2.23707 1.33228 2.39576L1.33228 2.39576C1.09675 2.63368 0.86147 2.87136 0.617799 3.10305C0.241571 3.4593 0.0517927 3.89546 0.0118394 4.40486C-0.0514202 5.2339 0.151676 6.01632 0.438009 6.77876C1.02399 8.35692 1.91628 9.75862 2.99835 11.0438C4.45998 12.7818 6.20461 14.1568 8.24557 15.149C9.16449 15.5951 10.1167 15.9381 11.1522 15.9947C11.8647 16.0346 12.484 15.8548 12.98 15.2988C13.2033 15.0494 13.4452 14.8143 13.6869 14.5794C13.8129 14.4569 13.9389 14.3345 14.0621 14.2101C14.5948 13.6707 14.5982 13.0181 14.0688 12.4854C13.4362 11.8495 12.8003 11.2169 12.1643 10.5843ZM11.5284 7.93075L12.757 7.72099C12.5639 6.59231 12.0312 5.57017 11.2221 4.75778C10.3665 3.90212 9.28439 3.36275 8.09244 3.19627L7.91931 4.4315C8.84157 4.56135 9.68059 4.97753 10.3432 5.64009C10.9691 6.26603 11.3786 7.05843 11.5284 7.93075Z" fill="currentColor"/>
    </symbol>

    <symbol viewBox="0 0 16 12" id="email" xmlns="http://www.w3.org/2000/svg">
        <path fill-rule="evenodd" clip-rule="evenodd" d="M1.40621 0.375H14.5937C14.8037 0.375 15.0012 0.424375 15.1803 0.50725L10.0374 5.66738L10.0363 5.66813L10.0355 5.66922L8.36358 7.34675C8.18595 7.52438 7.81402 7.52438 7.63639 7.34675L5.96411 5.66894C5.96411 5.66894 5.96405 5.66847 5.96371 5.66813L5.96261 5.66738L0.81958 0.507281C0.998673 0.424438 1.19621 0.375 1.40621 0.375ZM9.02736 8.00866L10.3674 6.66409L15.1803 11.4927C15.0012 11.5756 14.8038 11.625 14.5938 11.625H1.40627C1.19627 11.625 0.998736 11.5756 0.81958 11.4927L5.63258 6.66409L6.97267 8.00866C7.52783 8.56572 8.48395 8.55397 9.02736 8.00866ZM0.149563 1.16287C0.0568752 1.35031 0 1.55837 0 1.78125V10.2187C0 10.4416 0.0568123 10.6497 0.149531 10.8371L4.97087 6.00015L0.149563 1.16287ZM11.0292 6.00016L15.8505 1.16281C15.9431 1.35025 16 1.55831 16 1.78125V10.2187C16 10.4417 15.9431 10.6497 15.8505 10.8372L11.0292 6.00016Z" fill="currentColor"/>
    </symbol>

    <symbol viewBox="0 0 20 20" id="instagram" xmlns="http://www.w3.org/2000/svg">
        <path d="M10 1.80723C12.6506 1.80723 13.0121 1.80723 14.0964 1.80723C15.0602 1.80723 15.5422 2.04819 15.9036 2.16868C16.3855 2.40964 16.747 2.53012 17.1084 2.89157C17.4699 3.25301 17.7108 3.61446 17.8313 4.09639C17.9518 4.45783 18.0723 4.93976 18.1928 5.90362C18.1928 6.98795 18.1928 7.22892 18.1928 10C18.1928 12.7711 18.1928 13.0121 18.1928 14.0964C18.1928 15.0602 17.9518 15.5422 17.8313 15.9036C17.5904 16.3855 17.4699 16.747 17.1084 17.1084C16.747 17.4699 16.3855 17.7108 15.9036 17.8313C15.5422 17.9518 15.0602 18.0723 14.0964 18.1928C13.0121 18.1928 12.7711 18.1928 10 18.1928C7.22892 18.1928 6.98795 18.1928 5.90362 18.1928C4.93976 18.1928 4.45783 17.9518 4.09639 17.8313C3.61446 17.5904 3.25301 17.4699 2.89157 17.1084C2.53012 16.747 2.28916 16.3855 2.16868 15.9036C2.04819 15.5422 1.92771 15.0602 1.80723 14.0964C1.80723 13.0121 1.80723 12.7711 1.80723 10C1.80723 7.22892 1.80723 6.98795 1.80723 5.90362C1.80723 4.93976 2.04819 4.45783 2.16868 4.09639C2.40964 3.61446 2.53012 3.25301 2.89157 2.89157C3.25301 2.53012 3.61446 2.28916 4.09639 2.16868C4.45783 2.04819 4.93976 1.92771 5.90362 1.80723C6.98795 1.80723 7.3494 1.80723 10 1.80723ZM10 0C7.22892 0 6.98795 0 5.90362 0C4.81928 0 4.09639 0.240965 3.49398 0.481928C2.89157 0.722892 2.28916 1.08434 1.68675 1.68675C1.08434 2.28916 0.843374 2.77109 0.481928 3.49398C0.240965 4.09639 0.120482 4.81928 0 5.90362C0 6.98795 0 7.3494 0 10C0 12.7711 0 13.0121 0 14.0964C0 15.1807 0.240965 15.9036 0.481928 16.506C0.722892 17.1084 1.08434 17.7108 1.68675 18.3133C2.28916 18.9157 2.77109 19.1566 3.49398 19.5181C4.09639 19.759 4.81928 19.8795 5.90362 20C6.98795 20 7.3494 20 10 20C12.6506 20 13.0121 20 14.0964 20C15.1807 20 15.9036 19.759 16.506 19.5181C17.1084 19.2771 17.7108 18.9157 18.3133 18.3133C18.9157 17.7108 19.1566 17.2289 19.5181 16.506C19.759 15.9036 19.8795 15.1807 20 14.0964C20 13.0121 20 12.6506 20 10C20 7.3494 20 6.98795 20 5.90362C20 4.81928 19.759 4.09639 19.5181 3.49398C19.2771 2.89157 18.9157 2.28916 18.3133 1.68675C17.7108 1.08434 17.2289 0.843374 16.506 0.481928C15.9036 0.240965 15.1807 0.120482 14.0964 0C13.0121 0 12.7711 0 10 0Z" fill="currentColor"/>
        <path d="M10 4.81928C7.10843 4.81928 4.81928 7.10843 4.81928 10C4.81928 12.8916 7.10843 15.1807 10 15.1807C12.8916 15.1807 15.1807 12.8916 15.1807 10C15.1807 7.10843 12.8916 4.81928 10 4.81928ZM10 13.3735C8.19277 13.3735 6.62651 11.9277 6.62651 10C6.62651 8.19277 8.07229 6.62651 10 6.62651C11.8072 6.62651 13.3735 8.07229 13.3735 10C13.3735 11.8072 11.8072 13.3735 10 13.3735Z" fill="currentColor"/>
        <path d="M15.3012 5.90362C15.9666 5.90362 16.506 5.3642 16.506 4.6988C16.506 4.03339 15.9666 3.49398 15.3012 3.49398C14.6358 3.49398 14.0964 4.03339 14.0964 4.6988C14.0964 5.3642 14.6358 5.90362 15.3012 5.90362Z" fill="currentColor"/>
    </symbol>

    <symbol viewBox="0 0 12 23" id="facebook" xmlns="http://www.w3.org/2000/svg">
        <path d="M7.65708 12.3648H11.3793L11.9637 8.56055H7.65632V6.48134C7.65632 4.90099 8.16957 3.49962 9.63891 3.49962H12V0.179741C11.5852 0.123382 10.7078 0 9.04996 0C5.58819 0 3.55867 1.8393 3.55867 6.0297V8.56055H0V12.3648H3.55867V22.821C4.26344 22.9276 4.97729 23 5.71007 23C6.37245 23 7.01893 22.9391 7.65708 22.8522V12.3648Z" fill="currentColor"/>
    </symbol>

    <symbol viewBox="0 0 19 17" id="telegram" xmlns="http://www.w3.org/2000/svg">
        <path d="M19 0.602225L15.9946 16.2923C15.9946 16.2923 15.5741 17.3801 14.4189 16.8584L7.48458 11.3526L7.45242 11.3364C8.38909 10.4654 15.6524 3.70266 15.9698 3.39612C16.4613 2.92136 16.1562 2.63873 15.5856 2.99736L4.85679 10.053L0.717638 8.61077C0.717638 8.61077 0.0662573 8.37083 0.00359284 7.84911C-0.0598962 7.32653 0.739076 7.0439 0.739076 7.0439L17.6131 0.188948C17.6131 0.188948 19 -0.44207 19 0.602225Z" fill="currentColor"/>
    </symbol>

    <symbol viewBox="0 0 21 23" id="viber" xmlns="http://www.w3.org/2000/svg">
        <path d="M16.2539 0.545914C12.4424 -0.181971 8.48429 -0.181971 4.67277 0.545914C2.98691 0.909856 0.861257 2.94793 0.494764 4.54928C-0.164922 7.67919 -0.164922 10.8819 0.494764 14.0118C0.934555 15.6131 3.06021 17.6512 4.67277 18.0152C4.74607 18.0152 4.81937 18.0879 4.81937 18.1607V22.7464C4.81937 22.9648 5.11257 23.1103 5.25916 22.892L7.45812 20.6355C7.45812 20.6355 9.21728 18.8158 9.51047 18.5247C9.51047 18.5247 9.58377 18.4519 9.65707 18.4519C11.856 18.5247 14.1283 18.3063 16.3272 17.9424C18.0131 17.5784 20.1387 15.5403 20.5052 13.939C21.1649 10.8091 21.1649 7.6064 20.5052 4.47649C20.0654 2.94793 17.9398 0.909856 16.2539 0.545914ZM16.3272 14.2302C15.9607 14.958 15.5209 15.5403 14.788 15.9043C14.5681 15.9771 14.3482 16.0499 14.1283 16.1227C13.8351 16.0499 13.6152 15.9771 13.3953 15.9043C11.0497 14.958 8.85079 13.6478 7.09162 11.7553C6.13874 10.6635 5.33246 9.42611 4.67277 8.11592C4.37958 7.46082 4.08639 6.87851 3.86649 6.22342C3.6466 5.64111 4.01309 5.0588 4.37958 4.62207C4.74607 4.18534 5.18586 3.89418 5.69895 3.67582C6.06544 3.45745 6.43194 3.60303 6.72513 3.89418C7.31152 4.62207 7.8979 5.34995 8.3377 6.15063C8.63089 6.66015 8.55759 7.24245 8.0445 7.6064C7.8979 7.67919 7.82461 7.75198 7.67801 7.89755C7.60471 7.97034 7.45811 8.04313 7.38481 8.1887C7.23822 8.40707 7.23822 8.62544 7.31152 8.8438C7.8979 10.5179 8.99738 11.8281 10.6832 12.556C10.9764 12.7016 11.1963 12.7744 11.5628 12.7744C12.0759 12.7016 12.2958 12.1193 12.6623 11.8281C13.0288 11.537 13.4686 11.537 13.9084 11.7553C14.2749 11.9737 14.6414 12.2649 15.0811 12.556C15.4476 12.8472 15.8141 13.0655 16.1806 13.3567C16.4005 13.5023 16.4738 13.8662 16.3272 14.2302ZM13.2487 8.77101C13.1021 8.77101 13.1754 8.77101 13.2487 8.77101C12.9555 8.77101 12.8822 8.62544 12.8089 8.40707C12.8089 8.26149 12.8089 8.04313 12.7356 7.89755C12.6623 7.6064 12.5157 7.31524 12.2225 7.09688C12.0759 7.02409 11.9293 6.9513 11.7827 6.87851C11.5628 6.80572 11.4162 6.80572 11.1963 6.80572C10.9764 6.73294 10.9031 6.58736 10.9031 6.36899C10.9031 6.22342 11.123 6.07784 11.2696 6.07784C12.4424 6.15063 13.322 6.80572 13.4686 8.1887C13.4686 8.26149 13.4686 8.40707 13.4686 8.47986C13.4686 8.62544 13.3953 8.77101 13.2487 8.77101ZM12.5157 5.56832C12.1492 5.42274 11.7827 5.27717 11.3429 5.20438C11.1963 5.20438 10.9764 5.13159 10.8298 5.13159C10.6099 5.13159 10.4634 4.98601 10.5366 4.76765C10.5366 4.54928 10.6832 4.4037 10.9031 4.47649C11.6361 4.54928 12.2958 4.69486 12.9555 4.98601C14.2749 5.64111 15.0079 6.73293 15.2277 8.1887C15.2277 8.26149 15.2277 8.33428 15.2277 8.40707C15.2277 8.55265 15.2277 8.69822 15.2277 8.91659C15.2277 8.98938 15.2277 9.06217 15.2277 9.13496C15.1545 9.42611 14.6414 9.4989 14.5681 9.13496C14.5681 9.06217 14.4948 8.91659 14.4948 8.8438C14.4948 8.18871 14.3482 7.53361 14.055 6.9513C13.6152 6.2962 13.1021 5.85947 12.5157 5.56832ZM16.4738 9.93563C16.2539 9.93563 16.1073 9.71727 16.1073 9.4989C16.1073 9.06217 16.034 8.62543 15.9607 8.1887C15.6675 5.85947 13.7618 3.96697 11.4895 3.60303C11.123 3.53024 10.7565 3.53024 10.4634 3.45745C10.2435 3.45745 9.95026 3.45745 9.87696 3.1663C9.80366 2.94793 10.0236 2.72957 10.2435 2.72957C10.3168 2.72957 10.3901 2.72957 10.3901 2.72957C10.5367 2.72957 13.3953 2.80236 10.3901 2.72957C13.4686 2.80236 16.034 4.84044 16.5471 7.89755C16.6204 8.40707 16.6937 8.91659 16.6937 9.4989C16.8403 9.71727 16.6937 9.93563 16.4738 9.93563Z" fill="currentColor"/>
    </symbol>

    <symbol viewBox="0 0 10 7" id="dropdown-arrow" xmlns="http://www.w3.org/2000/svg">
        <path d="M4.91016 6.40234L1.19141 2.68359C0.917969 2.41016 0.917969 2 1.19141 1.75391L1.79297 1.125C2.06641 0.878906 2.47656 0.878906 2.72266 1.125L5.34766 3.77734L8 1.125C8.24609 0.878906 8.65625 0.878906 8.92969 1.125L9.53125 1.75391C9.80469 2 9.80469 2.41016 9.53125 2.68359L5.8125 6.40234C5.56641 6.64844 5.15625 6.64844 4.91016 6.40234Z" fill="currentColor"/>
    </symbol>

    <symbol viewBox="0 0 23 15" id="up-arrow" xmlns="http://www.w3.org/2000/svg">
        <path d="M10.7754 0.494141L1.47852 9.79102C0.794922 10.4746 0.794922 11.5 1.47852 12.1152L2.98242 13.6875C3.66602 14.3027 4.69141 14.3027 5.30664 13.6875L11.8691 7.05664L18.5 13.6875C19.1152 14.3027 20.1406 14.3027 20.8242 13.6875L22.3281 12.1152C23.0117 11.5 23.0117 10.4746 22.3281 9.79102L13.0312 0.494141C12.416 -0.121094 11.3906 -0.121094 10.7754 0.494141Z" fill="currentColor"/>
    </symbol>

    <symbol viewBox="0 0 30 26" id="flag" xmlns="http://www.w3.org/2000/svg">
        <path fill-rule="evenodd" clip-rule="evenodd" d="M17.4165 9.96777C16.9311 9.96777 16.5376 9.57433 16.5376 9.08887V0.402344H13.4624V9.08887C13.4624 9.57433 13.0689 9.96777 12.5835 9.96777H0V13.043H12.5835C13.0689 13.043 13.4624 13.4365 13.4624 13.9219V22.6062H16.5376V13.9219C16.5376 13.4365 16.9311 13.043 17.4165 13.043H30V9.96777H17.4165ZM18.2954 6.96713L24.7884 0.474212C24.4817 0.426834 24.1674 0.402344 23.8477 0.402344H18.2954V6.96713ZM30 8.20996H19.5383L26.6631 1.08533C28.6432 2.10889 30 4.17615 30 6.55469V8.20996ZM19.5348 14.8008L26.6434 21.9335C28.6343 20.9136 30 18.8401 30 16.4538V14.8008H19.5348ZM11.7046 0.402344V6.96713L5.21164 0.474212C5.51834 0.426834 5.8326 0.402344 6.15234 0.402344H11.7046ZM18.2954 16.0473V22.6062H23.8477C24.1592 22.6062 24.4652 22.5828 24.7641 22.538L18.2954 16.0473ZM3.33687 1.08533L10.4617 8.20996H0V6.55469C0 4.17615 1.35681 2.10866 3.33687 1.08533ZM10.4617 14.8008H0V16.4538C0 18.8331 1.3575 20.9008 3.33847 21.9241L10.4617 14.8008ZM5.2137 22.5348L11.7046 16.0439V23.9016L10.5858 25.3209C10.4192 25.5324 10.1646 25.6558 9.89548 25.6558C9.62631 25.6558 9.37202 25.5324 9.20517 25.3209L7.06535 22.6062H6.15234C5.83328 22.6062 5.51971 22.5817 5.2137 22.5348Z" fill="currentColor"/>
    </symbol>

    <symbol viewBox="0 0 28 22" id="hat" xmlns="http://www.w3.org/2000/svg">
        <path fill-rule="evenodd" clip-rule="evenodd" d="M14.3328 0.931275L26.6516 6.13909C26.7901 6.20094 26.9077 6.30158 26.9903 6.42885C27.0728 6.55612 27.1167 6.70458 27.1167 6.85628C27.1167 7.00797 27.0728 7.15643 26.9903 7.2837C26.9077 7.41097 26.7901 7.51161 26.6516 7.57346L25.1469 8.21096C25.1455 8.46903 25.1463 9.74571 25.1471 11.1222C25.1481 12.7498 25.1491 14.517 25.1468 14.9048C25.9011 15.2924 26.1464 16.6814 25.6953 17.4547L26.5719 20.5344C26.5961 20.6282 26.591 20.7273 26.5572 20.8182C26.5234 20.9091 26.4626 20.9874 26.3829 21.0426C26.3031 21.0978 26.2084 21.1272 26.1114 21.1268C26.0145 21.1265 25.9199 21.0964 25.8406 21.0407C25.4883 20.7759 25.0579 20.6357 24.6172 20.6422C24.203 20.6523 23.802 20.7898 23.4687 21.036C23.3925 21.0939 23.3002 21.1268 23.2045 21.1302C23.1088 21.1335 23.0145 21.1072 22.9344 21.0547C22.8537 21.0039 22.7909 20.9291 22.7548 20.8409C22.7186 20.7527 22.711 20.6553 22.7328 20.5625L23.4219 17.4688C22.9003 16.6096 23.2783 15.0224 24.2094 14.7875C24.2111 14.4569 24.2101 13.2179 24.2091 11.9302C24.2079 10.4544 24.2066 8.9146 24.2094 8.60471C22.1206 9.4909 16.5074 11.8637 14.3328 12.7813C14.1411 12.8613 13.9257 12.863 13.7328 12.786L6.96399 9.93125C6.631 9.78642 5.16738 9.17005 3.80394 8.59586C2.70691 8.13387 1.67473 7.69918 1.34849 7.5594C1.20953 7.49707 1.09163 7.39578 1.00906 7.26781C0.926499 7.13983 0.882815 6.99066 0.883305 6.83837C0.883794 6.68607 0.928436 6.53718 1.01182 6.40974C1.09521 6.2823 1.21376 6.18177 1.35312 6.12034L13.7328 0.931275C13.8276 0.890682 13.9297 0.869751 14.0328 0.869751C14.1359 0.869751 14.238 0.890682 14.3328 0.931275ZM12.2367 13.1709C12.8188 13.4168 13.2405 13.595 13.3672 13.6485C13.7935 13.8242 14.2721 13.8242 14.6984 13.6485C14.82 13.5971 15.2287 13.4244 15.7956 13.185C17.801 12.3381 21.7856 10.6553 22.0391 10.5453V15.111C22.0355 15.3607 21.9708 15.6057 21.8507 15.8247C21.7305 16.0437 21.5587 16.2299 21.35 16.3672C19.0775 17.8802 16.3967 18.662 13.6672 18.6078C11.1762 18.5365 8.75769 17.7542 6.69687 16.3531C6.49329 16.2166 6.32593 16.0326 6.20917 15.817C6.09241 15.6015 6.02974 15.3608 6.02655 15.1156V10.55C6.29634 10.6612 10.2244 12.3207 12.2367 13.1709Z" fill="currentColor"/>
    </symbol>

    <symbol viewBox="0 0 62 42" id="youtube" xmlns="http://www.w3.org/2000/svg">
        <path fill-rule="evenodd" clip-rule="evenodd" d="M6.3761 40.7591C5.27064 40.4341 4.26198 39.856 3.43524 39.0736C2.60851 38.2912 1.98795 37.3273 1.62594 36.2634C-0.442677 30.7646 -1.0556 7.8034 2.92841 3.27061C4.25436 1.79606 6.12642 0.888212 8.13826 0.744126C18.8261 -0.370497 51.8474 -0.221879 55.6399 1.11567C56.7066 1.4513 57.6811 2.01672 58.4905 2.76954C59.2999 3.52237 59.9231 4.44308 60.3134 5.4627C62.5736 11.1473 62.6502 31.8049 60.007 37.2666C59.3058 38.6883 58.1319 39.8399 56.6742 40.5362C52.6902 42.4682 11.6626 42.431 6.3761 40.7591ZM23.3464 29.9844L42.5003 20.3243L23.3464 10.59V29.9844Z" fill="white"/>
    </symbol>

    <symbol viewBox="0 0 51 57" id="tiktok" xmlns="http://www.w3.org/2000/svg">
        <path d="M50.1524 15.7626C48.4196 15.7626 46.7039 15.4213 45.103 14.7582C43.5022 14.0952 42.0476 13.1233 40.8224 11.8981C39.5971 10.6728 38.6252 9.21829 37.9621 7.61745C37.299 6.01662 36.9577 4.30085 36.9577 2.56812H27.5311V39.4813C27.5293 41.1643 26.9978 42.804 26.0121 44.1681C25.0263 45.5321 23.6363 46.5513 22.0389 47.0812C20.4416 47.6111 18.718 47.6248 17.1124 47.1204C15.5068 46.616 14.1007 45.6191 13.0934 44.2709C12.086 42.9227 11.5285 41.2917 11.4999 39.609C11.4713 37.9263 11.9731 36.2773 12.934 34.8956C13.895 33.514 15.2664 32.4699 16.8539 31.9112C18.4415 31.3525 20.1645 31.3077 21.779 31.783V22.6196C18.348 22.157 14.8575 22.752 11.7737 24.3254C8.68981 25.8987 6.15933 28.3754 4.52012 31.4248C2.88092 34.4742 2.21101 37.951 2.59986 41.3912C2.9887 44.8313 4.41779 48.0709 6.6963 50.6774C8.9748 53.284 11.9943 55.1334 15.3515 55.9786C18.7088 56.8239 22.244 56.6249 25.4851 55.4081C28.7263 54.1913 31.5191 52.0146 33.4906 49.1688C35.4621 46.3229 36.5185 42.9434 36.5187 39.4813L36.7922 20.8227C40.6654 23.6661 45.3465 25.196 50.1513 25.1889L50.1524 15.7626Z" fill="#F0014B"/>
        <path d="M47.6597 13.1946C44.1603 13.1945 40.8043 11.8043 38.33 9.32987C35.8556 6.8554 34.4656 3.49935 34.4656 0H25.0389V36.9132C25.0372 38.5962 24.5058 40.2359 23.52 41.6C22.5343 42.964 21.1443 43.9833 19.5469 44.5132C17.9496 45.0431 16.2259 45.0569 14.6203 44.5525C13.0147 44.0481 11.6086 43.0512 10.6012 41.703C9.59387 40.3549 9.03638 38.7238 9.00777 37.0411C8.97916 35.3584 9.48089 33.7094 10.4418 32.3277C11.4028 30.9461 12.7742 29.9019 14.3617 29.3433C15.9493 28.7846 17.6724 28.7397 19.2868 29.2151V20.0515C15.8558 19.5888 12.3654 20.1839 9.2815 21.7573C6.19764 23.3306 3.66715 25.8073 2.02794 28.8567C0.388731 31.906 -0.281177 35.3829 0.107668 38.823C0.496514 42.2631 1.92561 45.5028 4.20411 48.1093C6.48262 50.7158 9.5021 52.5652 12.8594 53.4105C16.2166 54.2558 19.7518 54.0567 22.993 52.8399C26.2341 51.6231 29.0269 49.4465 30.9984 46.6006C32.9699 43.7548 34.0263 40.3752 34.0265 36.9132L34.3015 18.2548C38.1747 21.0981 42.8558 22.6279 47.6606 22.6208L47.6597 13.1946Z" fill="#00E6E4"/>
        <path d="M47.6598 15.5266C44.3982 14.899 41.4933 13.0645 39.5249 10.3892C37.0371 8.44212 35.3306 5.66689 34.7159 2.56812H27.531V39.4814C27.5308 41.2333 26.9574 42.937 25.8983 44.3325C24.8392 45.728 23.3525 46.7386 21.6652 47.21C19.978 47.6815 18.1828 47.5879 16.5537 46.9435C14.9246 46.2991 13.5511 45.1394 12.6428 43.6413C11.0277 42.59 9.84477 40.9927 9.31018 39.1412C8.77558 37.2897 8.92502 35.3077 9.73118 33.5573C10.5373 31.8069 11.9464 30.405 13.7009 29.6077C15.4554 28.8105 17.4382 28.6712 19.2869 29.2152V22.4719C16.1159 22.5128 13.0194 23.4392 10.3469 25.1466C7.67449 26.854 5.53251 29.2744 4.16277 32.1346C2.79304 34.9949 2.25007 38.1811 2.59517 41.3335C2.94028 44.486 4.1597 47.4793 6.11581 49.9754C8.59915 52.0476 11.6217 53.3689 14.8293 53.7844C18.0368 54.1999 21.2963 53.6925 24.2257 52.3215C27.155 50.9506 29.6329 48.773 31.3688 46.044C33.1047 43.315 34.0267 40.1477 34.0266 36.9134L34.3016 18.2549C38.1748 21.0982 42.8559 22.6281 47.6607 22.6209L47.6598 15.5266Z" fill="#FCF7F7"/>         
    </symbol>

    <symbol viewBox="0 0 30 28" id="rules-icon-1" xmlns="http://www.w3.org/2000/svg">
        <path fill-rule="evenodd" clip-rule="evenodd" d="M29.4319 3.76227L22.8694 0.949776C22.6312 0.8504 22.3669 0.8504 22.1287 0.949776L15.5662 3.76227C15.2231 3.9104 15 4.24978 15 4.62478V8.37477C15 13.5329 16.9069 16.5479 22.0331 19.501C22.1775 19.5835 22.3387 19.6248 22.5 19.6248C22.6613 19.6248 22.8225 19.5835 22.9669 19.501C28.0931 16.5554 30 13.5404 30 8.37477V4.62478C30 4.24978 29.7769 3.9104 29.4319 3.76227ZM28.125 8.37477C28.125 12.7041 26.6925 15.0873 22.5 17.5998C18.3075 15.0816 16.875 12.6985 16.875 8.37477V5.24352L22.5 2.83228L28.125 5.24352V8.37477ZM28.125 18.6873C28.125 18.1698 28.545 17.7498 29.0625 17.7498C29.58 17.7498 30 18.1698 30 18.6873V25.2498C30 26.2848 29.16 27.1248 28.125 27.1248H1.875C0.84 27.1248 0 26.2848 0 25.2498V8.37477C0 7.33978 0.84 6.49977 1.875 6.49977H12.1875C12.705 6.49977 13.125 6.91978 13.125 7.43727C13.125 7.95478 12.705 8.37477 12.1875 8.37477H1.875V12.1248H12.1875C12.705 12.1248 13.125 12.5448 13.125 13.0623C13.125 13.5798 12.705 13.9998 12.1875 13.9998H1.875V25.2498H28.125V18.6873ZM4.6875 17.7498H8.4375C8.955 17.7498 9.375 18.1698 9.375 18.6873C9.375 19.2048 8.955 19.6248 8.4375 19.6248H4.6875C4.17 19.6248 3.75 19.2048 3.75 18.6873C3.75 18.1698 4.17 17.7498 4.6875 17.7498ZM24.5812 6.8504C24.9075 6.44728 25.4963 6.3854 25.8994 6.70415C26.3044 7.02853 26.3681 7.61728 26.0456 8.02228L22.2956 12.7098C22.1156 12.9348 21.8456 13.0623 21.5625 13.0623H21.5231C21.2231 13.0473 20.9494 12.8935 20.7825 12.6441L18.9075 9.83165C18.6206 9.40228 18.7388 8.81915 19.1681 8.53228C19.5938 8.24728 20.1769 8.36165 20.4675 8.7929L21.6338 10.5366L24.5812 6.8504Z" fill="currentColor"/>
    </symbol>

    <symbol viewBox="0 0 30 28" id="rules-icon-2" xmlns="http://www.w3.org/2000/svg">
        <path fill-rule="evenodd" clip-rule="evenodd" d="M15.632 0.89092C14.0502 0.89092 12.5638 1.49547 11.4456 2.6091C11.2729 2.78183 10.9956 2.78183 10.8229 2.61365C10.6502 2.44092 10.6502 2.16365 10.8229 1.99092C13.4775 -0.654534 17.7865 -0.645443 20.432 2.01365C20.6047 2.18638 20.6047 2.46365 20.432 2.63638C20.3456 2.72274 20.2365 2.76365 20.1229 2.76365C20.0093 2.76365 19.8956 2.71819 19.8093 2.63183C18.6956 1.51365 17.2138 0.895466 15.632 0.89092ZM29.3769 24.2227C29.086 23.7409 28.5723 23.45 28.0087 23.45H27.6905V9.18181C27.6905 7.41363 26.2496 5.97272 24.4814 5.97272H5.51324C3.74506 5.97272 2.30415 7.41363 2.30415 9.18181V23.45H1.98597C1.42233 23.45 0.913239 23.7364 0.617784 24.2227C0.326875 24.7045 0.308694 25.2954 0.567784 25.7954C0.758694 26.1636 1.00415 26.5 1.2996 26.7909C2.07688 27.5682 3.10415 27.9909 4.19506 27.9909H25.7905C27.3178 27.9909 28.7087 27.15 29.4178 25.7954C29.6905 25.2909 29.6723 24.7045 29.3769 24.2227ZM3.18597 9.18181C3.18597 7.89999 4.23142 6.85454 5.51324 6.85454H24.4814C25.7632 6.85454 26.8087 7.89999 26.8087 9.18181V23.45H3.18597V9.18181ZM17.8314 24.3318L17.536 24.9136C17.486 25.0091 17.386 25.0682 17.2814 25.0682H13.2451C13.136 25.0682 13.036 25.0091 12.986 24.9136L12.6905 24.3318H17.8314ZM28.6451 25.3818C28.086 26.4454 26.9951 27.1045 25.7951 27.1045H4.1996C3.34051 27.1045 2.53597 26.7682 1.92688 26.1591C1.6996 25.9318 1.50415 25.6682 1.35415 25.3773C1.23597 25.1545 1.24506 24.8909 1.37688 24.6727C1.50869 24.4545 1.73142 24.3273 1.99051 24.3273H11.6951L12.1951 25.3091C12.3951 25.7 12.7951 25.9454 13.2405 25.9454H17.2769C17.7178 25.9454 18.1178 25.7 18.3178 25.3091L18.8223 24.3273H28.0132C28.2678 24.3273 28.4905 24.4545 28.6269 24.6727C28.7541 24.8954 28.7632 25.1591 28.6451 25.3818ZM24.0958 8.2818H5.90486C5.19577 8.2818 4.62305 8.85907 4.62305 9.56362V20.7363C4.62305 21.4454 5.20032 22.0182 5.90486 22.0182H24.1003C24.8094 22.0182 25.3821 21.4409 25.3821 20.7363V9.56362C25.3821 8.85907 24.8049 8.2818 24.0958 8.2818ZM24.5003 20.7363C24.5003 20.9591 24.323 21.1363 24.1003 21.1363H5.90486C5.68214 21.1363 5.50486 20.9591 5.50486 20.7363V9.56362C5.50486 9.34089 5.68668 9.16362 5.90486 9.16362H24.1003C24.323 9.16362 24.5003 9.34544 24.5003 9.56362V20.7363ZM18.5588 3.8818C18.6724 3.8818 18.7815 3.84089 18.8679 3.75453C19.0406 3.5818 19.0406 3.30453 18.8679 3.1318C18.0042 2.26362 16.8542 1.78634 15.627 1.7818H15.6133C14.3906 1.7818 13.2451 2.25453 12.3815 3.11362C12.2088 3.28635 12.2088 3.56362 12.3815 3.73635C12.5542 3.90907 12.8315 3.90907 13.0042 3.73635C13.7042 3.04089 14.636 2.65453 15.627 2.65907C16.6179 2.66362 17.5451 3.04998 18.2451 3.74998C18.3315 3.83634 18.4451 3.8818 18.5588 3.8818ZM13.945 4.85906C13.7722 4.68633 13.7722 4.40906 13.945 4.23633C14.8722 3.31361 16.3768 3.31815 17.3041 4.24542C17.4768 4.41815 17.4768 4.69542 17.3041 4.86815C17.2177 4.95451 17.1086 4.99542 16.995 4.99542C16.8813 4.99542 16.7677 4.94997 16.6813 4.86361C16.0995 4.28179 15.1495 4.27724 14.5677 4.85906C14.395 5.03179 14.1177 5.03179 13.945 4.85906ZM14.9996 10.6182C12.4996 10.6182 10.4678 12.65 10.4678 15.15C10.4678 17.65 12.4996 19.6818 14.9996 19.6818C17.4996 19.6818 19.5314 17.65 19.5314 15.15C19.5314 12.65 17.4996 10.6182 14.9996 10.6182ZM14.9996 18.8C12.986 18.8 11.3496 17.1636 11.3496 15.15C11.3496 13.1363 12.986 11.5 14.9996 11.5C17.0132 11.5 18.6496 13.1363 18.6496 15.15C18.6496 17.1636 17.0132 18.8 14.9996 18.8ZM16.6587 14.1137L15.6223 15.15L16.6632 16.1864C16.8359 16.3591 16.8359 16.6364 16.6632 16.8091C16.5768 16.8955 16.4632 16.9364 16.3496 16.9364C16.2359 16.9364 16.1223 16.8955 16.0359 16.8091L14.9996 15.7728L13.9678 16.8091C13.8814 16.8955 13.7678 16.9364 13.6541 16.9364C13.5405 16.9364 13.4268 16.8955 13.3405 16.8091C13.1678 16.6364 13.1678 16.3591 13.3405 16.1864L14.3768 15.15L13.3405 14.1137C13.1678 13.9409 13.1678 13.6637 13.3405 13.4909C13.5132 13.3182 13.7905 13.3182 13.9632 13.4909L14.9996 14.5273L16.0359 13.4909C16.2087 13.3182 16.4859 13.3182 16.6587 13.4909C16.8314 13.6637 16.8314 13.9409 16.6587 14.1137Z" fill="currentColor"/>
    </symbol>

    <symbol viewBox="0 0 30 24" id="rules-icon-3" xmlns="http://www.w3.org/2000/svg">
        <path fill-rule="evenodd" clip-rule="evenodd" d="M16.4062 2.15623H18.2812C24.4842 2.15623 29.5312 7.20327 29.5312 13.4062C29.5312 13.665 29.3217 13.875 29.0625 13.875H26.25C25.9908 13.875 25.7812 13.665 25.7812 13.4062C25.7812 9.27092 22.4166 5.90624 18.2812 5.90624H16.4062V6.84374C16.4062 7.00639 16.3219 7.15686 16.1841 7.24264C16.0463 7.32795 15.8738 7.33545 15.728 7.26327L10.103 4.45077C9.94406 4.37108 9.84375 4.20889 9.84375 4.03123C9.84375 3.85358 9.94406 3.69139 10.1025 3.6117L15.7275 0.799203C15.8728 0.726547 16.0453 0.734047 16.1836 0.819828C16.3219 0.90561 16.4062 1.05608 16.4062 1.21873V2.15623ZM18.2812 4.96874C22.7766 4.96874 26.4619 8.50217 26.7061 12.9375H28.5834C28.3369 7.46811 23.8106 3.09373 18.2812 3.09373H15.9375C15.6783 3.09373 15.4688 2.88373 15.4688 2.62498V1.97717L11.3606 4.03123L15.4688 6.0853V5.43749C15.4688 5.17873 15.6783 4.96874 15.9375 4.96874H18.2812ZM22.9683 17.625H12.5845C12.5222 17.8767 12.4219 18.1186 12.2756 18.3375L12.0459 18.6825L19.1625 19.8061C20.0095 19.9402 20.6245 20.6597 20.6245 21.518C20.6245 22.4728 19.8473 23.25 18.892 23.25H11.7183C10.4194 23.25 9.11906 22.943 7.95703 22.3622L5.26641 21.0169C4.50844 20.6377 3.66 20.4375 2.8125 20.4375H0.46875V19.5H2.8125C3.80437 19.5 4.79812 19.7344 5.68594 20.1783L8.37656 21.5236C9.40875 22.0397 10.5642 22.3125 11.7183 22.3125H18.892C19.3303 22.3125 19.687 21.9558 19.687 21.518C19.687 21.1237 19.4048 20.7933 19.0158 20.7323L11.1764 19.4944C11.1089 19.4836 11.0452 19.4583 10.9898 19.4212L6.77109 16.6088L7.29094 15.8287L11.1197 18.3811L11.4956 17.8172C11.6419 17.5988 11.7188 17.3442 11.7188 17.0812C11.7188 16.6767 11.5373 16.2994 11.2209 16.0458L8.51953 13.8848C7.23469 12.8573 5.35875 12.6581 3.885 13.3941L3.34219 13.6655C2.45438 14.1094 1.46062 14.3438 0.46875 14.3438V13.4062C1.31625 13.4062 2.16469 13.2061 2.92266 12.8269L3.46547 12.5555C4.1925 12.1922 5.00625 12 5.81859 12C6.06844 12 6.31641 12.022 6.56203 12.0572V9.65625C6.56203 9.3975 6.77156 9.1875 7.03078 9.1875H22.9683C23.2275 9.1875 23.437 9.3975 23.437 9.65625V17.1562C23.437 17.415 23.2275 17.625 22.9683 17.625ZM22.4995 14.8598C21.5827 15.0469 20.8589 15.7706 20.6719 16.6875H22.4995V14.8598ZM20.6719 10.125C20.8589 11.0419 21.5827 11.7656 22.4995 11.9527V10.125H20.6719ZM7.49953 11.9527C8.41641 11.7656 9.14016 11.0419 9.32719 10.125H7.49953V11.9527ZM10.0083 13.875L11.8064 15.3136C12.2419 15.6623 12.5241 16.1498 12.6187 16.688H19.7245C19.9313 15.2541 21.0656 14.1197 22.4995 13.913V12.9005C21.0656 12.6938 19.9313 11.5594 19.7245 10.1255H10.2745C10.1114 11.258 9.36984 12.2048 8.35781 12.6548C8.61984 12.7987 8.87063 12.9652 9.10547 13.1531L9.84328 13.7433V12.9375H11.7183V13.875H10.0083ZM17.3438 13.4062C17.3438 14.6986 16.2923 15.75 15 15.75C13.7077 15.75 12.6562 14.6986 12.6562 13.4062C12.6562 12.1139 13.7077 11.0625 15 11.0625C16.2923 11.0625 17.3438 12.1139 17.3438 13.4062ZM16.4062 13.4062C16.4062 12.6309 15.7753 12 15 12C14.2247 12 13.5938 12.6309 13.5938 13.4062C13.5938 14.1816 14.2247 14.8125 15 14.8125C15.7753 14.8125 16.4062 14.1816 16.4062 13.4062ZM18.2812 12.9375H20.1562V13.875H18.2812V12.9375Z" fill="currentColor"/>
    </symbol>

    <symbol viewBox="0 0 22 30" id="rules-icon-4" xmlns="http://www.w3.org/2000/svg">
        <path d="M20.1822 19.8151V16.692L18.8643 17.2048L18.8604 17.1961L18.829 17.1391C18.324 16.3527 17.5072 15.8057 16.5875 15.6389L13.4161 15.0619V14.8115C14.6021 14.1228 15.4706 12.9479 15.7413 11.5589C16.6199 11.3772 17.2825 10.5977 17.2825 9.66588V4.89239C17.2825 3.54351 16.399 2.36717 15.1173 1.98441L14.8757 1.74276C13.7515 0.618616 12.2572 0 10.6676 0C7.38655 0 4.71684 2.66923 4.71684 5.9508V9.66588C4.71684 10.5977 5.37943 11.3772 6.25806 11.5589C6.52919 12.9479 7.39718 14.1233 8.58319 14.8115V15.0619L5.41229 15.6384C4.49355 15.8052 3.67727 16.3513 3.17174 17.1371L3.14275 17.2077L1.81707 16.692V19.8151C1.0177 19.8151 0.367188 20.4656 0.367188 21.2649V23.1981C0.367188 23.9975 1.0177 24.648 1.81707 24.648V26.4285L10.9997 30L20.1822 26.4285V24.648C20.9816 24.648 21.6321 23.9975 21.6321 23.1981V21.2649C21.6321 20.4656 20.9816 19.8151 20.1822 19.8151ZM14.3218 16.2092L16.4145 16.5896C17.0307 16.7017 17.5763 17.0574 17.9402 17.5639L13.2644 19.382L14.3218 16.2092ZM9.59086 15.2547C10.0369 15.391 10.5096 15.4654 10.9997 15.4654C11.4897 15.4654 11.9624 15.391 12.4085 15.2547L10.9997 16.3112L9.59086 15.2547ZM10.2641 16.9675L9.27768 17.9534L8.6378 16.0342L8.94566 15.9787L10.2641 16.9675ZM13.0537 15.9792L13.3615 16.0347L12.7216 17.9539L11.7352 16.968L13.0537 15.9792ZM15.8326 10.4981V8.83365C16.1202 9.00135 16.3159 9.3097 16.3159 9.66588C16.3159 10.0221 16.1202 10.3304 15.8326 10.4981ZM6.16672 10.4981C5.87916 10.3304 5.68342 10.0221 5.68342 9.66588C5.68342 9.3097 5.87916 9.00135 6.16672 8.83365V10.4981ZM6.16672 7.24941V7.80133C5.99466 7.84628 5.83324 7.91394 5.68342 8.00142V5.9508C5.68342 3.20279 7.91914 0.966588 10.6676 0.966588C11.9986 0.966588 13.2508 1.48516 14.1923 2.42662L14.6186 2.85337L14.7486 2.88527C15.6717 3.1158 16.3159 3.94126 16.3159 4.89239V8.00142C16.1661 7.91394 16.0047 7.8458 15.8326 7.80133V7.24941H14.3001C12.9903 7.24941 11.7386 6.62403 10.9533 5.57673L10.569 5.06347L9.60874 6.02426C8.81807 6.81445 7.76739 7.24941 6.65001 7.24941H6.16672ZM7.13331 10.6325V8.19377C8.32656 8.08309 9.43379 7.56549 10.2921 6.70764L10.4801 6.51964C11.4491 7.58917 12.8449 8.216 14.3001 8.216H14.866V10.6325C14.866 12.7643 13.1315 14.4988 10.9997 14.4988C8.86785 14.4988 7.13331 12.7643 7.13331 10.6325ZM5.58483 16.5896L7.67749 16.2092L8.73494 19.382L4.0581 17.5634C4.42203 17.0564 4.96863 16.7017 5.58483 16.5896ZM1.33378 23.1981V21.2649C1.33378 20.9982 1.55077 20.7816 1.81707 20.7816C2.61644 20.7816 3.26695 21.4322 3.26695 22.2315C3.26695 23.0309 2.61644 23.6814 1.81707 23.6814C1.55077 23.6814 1.33378 23.4649 1.33378 23.1981ZM10.5164 28.7744L2.78366 25.7678V24.4431C3.63571 24.069 4.23354 23.2199 4.23354 22.2315C4.23354 21.2432 3.63571 20.394 2.78366 20.02V18.1052L10.5164 21.1122V28.7744ZM9.08146 19.5173L10.9997 17.5987L12.9179 19.5169L10.9997 20.2631L9.08146 19.5173ZM19.2157 25.7673L11.483 28.7739V21.1122L19.2157 18.1052V20.02C18.3636 20.394 17.7658 21.2432 17.7658 22.2315C17.7658 23.2199 18.3636 24.069 19.2157 24.4431V25.7673ZM20.6655 23.1981C20.6655 23.4649 20.4485 23.6814 20.1822 23.6814C19.3829 23.6814 18.7324 23.0309 18.7324 22.2315C18.7324 21.4322 19.3829 20.7816 20.1822 20.7816C20.4485 20.7816 20.6655 20.9982 20.6655 21.2649V23.1981Z" fill="currentColor"/>
    </symbol>

    <symbol viewBox="0 0 30 30" id="discount" xmlns="http://www.w3.org/2000/svg">
        <path fill-rule="evenodd" clip-rule="evenodd" d="M28.0056 14.6114C27.8849 14.8583 27.8849 15.1416 28.0056 15.3885L29.1245 17.6775C29.7475 18.952 29.2539 20.4711 28.0008 21.1359L25.7503 22.3301C25.5075 22.4589 25.341 22.6881 25.2935 22.9588L24.8533 25.4681C24.6082 26.8654 23.3164 27.8043 21.9115 27.6056L19.3888 27.2487C19.1167 27.2105 18.8474 27.2978 18.6498 27.4889L16.8186 29.2603C16.309 29.7534 15.6546 30 15.0005 30C14.3462 30.0001 13.6922 29.7535 13.1823 29.2603L11.3512 27.4889C11.1536 27.2978 10.8842 27.2101 10.6122 27.2487L8.08957 27.6056C7.96365 27.6234 7.83838 27.6321 7.71492 27.6321C6.46143 27.6322 5.37077 26.7401 5.14765 25.4682L4.7075 22.9587C4.65998 22.6881 4.49351 22.4588 4.2507 22.3301L2.00013 21.1359C0.74705 20.4711 0.253459 18.952 0.876425 17.6776L1.99532 15.3887C2.11603 15.1418 2.11603 14.8585 1.99532 14.6115L0.876483 12.3226C0.253518 11.0482 0.747109 9.52903 2.00019 8.86423L4.25076 7.6701C4.49351 7.54125 4.65998 7.31209 4.7075 7.04139L5.14765 4.53201C5.39275 3.13479 6.68473 2.19578 8.08951 2.39458L10.6121 2.75142C10.8844 2.78974 11.1536 2.70237 11.3512 2.51124L13.1823 0.739671C14.2019 -0.246749 15.7991 -0.24669 16.8187 0.739671L18.6498 2.51107C18.8473 2.70214 19.1166 2.78968 19.3888 2.75124L21.9115 2.39441C23.3158 2.19572 24.6082 3.13462 24.8533 4.53184L25.2935 7.04133C25.341 7.31198 25.5075 7.54119 25.7503 7.66998L28.0008 8.86412C29.2539 9.52897 29.7475 11.048 29.1245 12.3225L28.0056 14.6114ZM24.9393 20.8015L27.1898 19.6074C27.6138 19.3825 27.7808 18.8685 27.57 18.4372L26.4511 16.1483C26.0944 15.4185 26.0944 14.5813 26.4511 13.8515L27.57 11.5626C27.7808 11.1314 27.6138 10.6175 27.1898 10.3926L24.9392 9.19845C24.2216 8.81777 23.7296 8.14049 23.5892 7.34034L23.149 4.83084C23.0661 4.35811 22.6287 4.04047 22.1537 4.10768L19.6311 4.46451C18.8267 4.57836 18.0305 4.31961 17.4466 3.75477L15.6155 1.98337C15.2705 1.64974 14.7301 1.64974 14.3853 1.98337L12.5541 3.75477C11.9702 4.31955 11.1739 4.57836 10.3697 4.46451L7.84705 4.10768C7.37168 4.04053 6.93469 4.35811 6.85172 4.83084L6.41157 7.34028C6.27124 8.14043 5.77911 8.81765 5.06158 9.19845L2.811 10.3926C2.38702 10.6175 2.22003 11.1314 2.43079 11.5626L3.54969 13.8516C3.90641 14.5814 3.90641 15.4185 3.54969 16.1483L2.43079 18.4373C2.22003 18.8685 2.38702 19.3824 2.811 19.6073L5.06158 20.8015C5.77917 21.1821 6.27124 21.8594 6.41163 22.6596L6.85184 25.1691C6.93481 25.6418 7.37221 25.9594 7.84717 25.8922L10.3698 25.5354C10.4944 25.5178 10.6188 25.5091 10.7421 25.5091C11.4156 25.5091 12.0607 25.7678 12.5542 26.2451L14.3853 28.0165C14.7303 28.3502 15.2707 28.3502 15.6156 28.0165L17.4468 26.2452C18.0306 25.6804 18.8267 25.4215 19.6312 25.5355L22.1538 25.8923C22.6292 25.9594 23.0662 25.6419 23.1491 25.1691L23.5893 22.6597C23.7296 21.8595 24.2217 21.1823 24.9393 20.8015ZM20.0984 8.67862C20.4362 8.34077 20.9841 8.34077 21.3219 8.67862C21.6598 9.01653 21.6598 9.56426 21.3218 9.90217L9.9026 21.3214C9.73373 21.4904 9.51225 21.5748 9.29088 21.5748C9.06952 21.5748 8.84809 21.4903 8.67917 21.3214C8.34132 20.9835 8.34132 20.4357 8.67917 20.0979L20.0984 8.67862ZM11.5394 7.21378C9.79025 7.21378 8.36719 8.63683 8.36719 10.386C8.36719 12.1351 9.79025 13.5582 11.5394 13.5582C13.2885 13.5582 14.7116 12.1351 14.7116 10.386C14.7116 8.63683 13.2885 7.21378 11.5394 7.21378ZM11.5394 11.8278C10.7443 11.8278 10.0975 11.181 10.0975 10.3859C10.0975 9.59085 10.7443 8.94404 11.5394 8.94404C12.3344 8.94404 12.9813 9.59085 12.9813 10.3859C12.9812 11.181 12.3344 11.8278 11.5394 11.8278ZM15.2891 19.6141C15.2891 17.865 16.7121 16.4419 18.4613 16.4419C20.2104 16.4419 21.6334 17.865 21.6334 19.6141C21.6334 21.3632 20.2104 22.7863 18.4613 22.7863C16.7121 22.7863 15.2891 21.3632 15.2891 19.6141ZM17.0193 19.6141C17.0193 20.4091 17.6662 21.056 18.4613 21.056C19.2563 21.056 19.9031 20.4091 19.9031 19.6141C19.9031 18.819 19.2563 18.1722 18.4613 18.1722C17.6661 18.1722 17.0193 18.819 17.0193 19.6141Z" fill="currentColor"/>
    </symbol>

    <symbol viewBox="0 0 33 33" id="close-modal" xmlns="http://www.w3.org/2000/svg">
        <path d="M31.7027 1.29739C30.9331 0.527822 29.6989 0.527822 28.9293 1.29739L16.5 13.7267L4.07071 1.29739C3.30114 0.527822 2.06692 0.527822 1.29735 1.29739C0.527776 2.06696 0.527776 3.30118 1.29735 4.07075L13.7266 16.5L1.29735 28.9293C0.527776 29.6989 0.527776 30.9331 1.29735 31.7027C1.67487 32.0802 2.18308 32.2835 2.67677 32.2835C3.17045 32.2835 3.67866 32.0947 4.05619 31.7027L16.4855 19.2734L28.9148 31.7027C29.2923 32.0802 29.8005 32.2835 30.2942 32.2835C30.8024 32.2835 31.2961 32.0947 31.6736 31.7027C32.4432 30.9331 32.4432 29.6989 31.6736 28.9293L19.2734 16.5L31.7027 4.07075C32.4722 3.30118 32.4722 2.06696 31.7027 1.29739Z" fill="currentColor"/>
    </symbol>




    <symbol viewBox="" id="id" xmlns="http://www.w3.org/2000/svg">
        
    </symbol>
</svg>