<svg width="316" height="186" viewBox="0 0 316 186" fill="none" xmlns="http://www.w3.org/2000/svg">
<path opacity="0.5" fill-rule="evenodd" clip-rule="evenodd" d="M59.3458 101.234C51.027 107.489 42.8776 113.721 34.8808 120.168C25.6505 127.611 12.1523 126.139 4.73185 116.882C-2.68863 107.624 -1.22143 94.0864 8.00892 86.644C20.2829 76.7477 33.0192 67.2416 45.377 58.018C48.5579 55.6438 51.7137 53.2884 54.8301 50.9499C70.2627 39.3692 85.0034 28.0045 98.6931 15.8001C103.707 11.3301 109.44 6.99939 115.041 3.40452L115.065 3.38909C116.211 2.65296 122.689 -1.50754 131.53 0.580474C142.877 3.26043 146.531 12.8028 147.395 16.1845C148.283 19.6616 148.062 22.4966 147.994 23.3165C147.895 24.5188 147.715 25.4675 147.609 25.9763C147.273 27.5944 146.795 28.9046 146.705 29.1516C146.701 29.1632 146.697 29.1724 146.695 29.1792C146.388 30.0294 146.033 30.8764 145.802 31.4195C145.271 32.6681 144.534 34.318 143.717 36.1153C142.055 39.772 139.77 44.688 137.418 49.7122C134.987 54.9086 132.51 60.1683 130.492 64.4524C128.528 68.6245 126.999 71.8714 126.372 73.2336C117.493 92.5118 105.661 109.683 95.0701 125.053C93.8438 126.833 92.6341 128.588 91.4477 130.32C90.7298 131.368 90.0188 132.409 89.315 133.445C94.7645 128.937 100.099 123.911 105.549 118.321C121.046 102.425 139.564 91.1333 155.868 81.4407C169.984 63.9256 186.789 48.0168 205.757 36.5537C207.973 35.2148 210.335 33.9307 212.751 32.9197C214.779 32.0712 218.67 30.615 223.426 30.5852C228.944 30.5506 238.53 32.7786 243.701 42.6179C247.616 50.0689 246.121 57.0699 245.613 59.1792C244.367 64.3559 241.625 68.6653 240.154 70.827C239.427 71.8959 238.638 72.9714 237.805 74.0256C238.875 73.7672 240.398 73.4878 242.184 73.4303C243.681 73.3821 255.359 73.1218 261.649 84.5133C266.948 94.1097 262.884 102.835 262.419 103.833C262.407 103.858 262.398 103.879 262.391 103.894C261.362 106.152 260.172 107.702 259.777 108.212C259.23 108.915 258.746 109.448 258.462 109.752C257.541 110.736 256.657 111.492 256.417 111.696L256.395 111.715C255.185 112.75 253.312 114.185 251.846 115.299C250.251 116.511 248.627 117.731 247.132 118.855C246.904 119.026 246.68 119.194 246.459 119.36C242.926 123.167 239.48 128.207 234.893 134.916C233.762 136.571 232.561 138.328 231.272 140.193C225.493 148.554 220.257 157.473 215.201 166.888C224.499 160.975 233.424 155.256 242.471 148.889C247.799 145.139 253.703 141.603 258.767 138.57C259.697 138.013 260.599 137.473 261.463 136.951C265.027 133.796 268.701 130.664 272.502 127.545C274.367 126.015 278.689 123.115 281.398 121.501C282.137 121.06 283.314 120.377 284.601 119.764C285.147 119.504 286.48 118.881 288.191 118.373C288.999 118.133 290.754 117.652 293.025 117.502C294.616 117.396 300.555 117.101 306.543 121.161C314.551 126.591 316.369 135.11 315.942 140.693C315.603 145.126 313.973 148.287 313.439 149.292C312.18 151.66 310.721 153.323 310.303 153.799L310.29 153.815C309.123 155.144 307.814 156.37 306.835 157.259C300.387 163.12 293.358 167.789 287.099 171.658C266.81 190.033 250.348 209.573 233.321 233.48C226.438 243.146 213.045 245.384 203.407 238.48C200.544 236.429 198.334 233.8 196.822 230.866C188.322 237.219 180.454 243.82 173.352 251.007C173.318 251.059 173.282 251.114 173.243 251.172C172.665 252.055 171.98 253.153 171.195 254.41L171.077 254.599C170.453 255.6 169.554 257.041 168.839 258.084C168.63 258.389 168.26 258.92 167.801 259.51C167.575 259.801 167.178 260.299 166.656 260.876L166.649 260.883C166.312 261.254 165.066 262.629 163.166 263.988C162.274 264.625 160.067 266.122 156.853 267.089C153.565 268.078 146.622 269.195 139.518 264.855C132.661 260.665 130.476 254.298 129.797 251.422C129.09 248.422 129.2 245.978 129.272 244.937C129.427 242.723 129.898 241.028 130.032 240.548C130.236 239.816 130.441 239.222 130.568 238.866C133.25 231.394 137.308 223.839 140.815 217.637C140.528 217.859 140.241 218.081 139.953 218.302C133.49 223.265 125.405 228.623 118.035 233.507C114.044 236.153 110.262 238.659 107.06 240.889C96.5833 248.186 88.6518 254.79 83.4841 261.802C83.4699 261.821 83.4503 261.848 83.4256 261.882C83.0451 262.405 81.4441 264.607 79.4443 266.408C79.4329 266.419 79.4183 266.432 79.4005 266.448C78.9504 266.858 76.4775 269.112 72.6619 270.575C70.6302 271.354 65.4737 272.989 59.1157 271.179C51.5167 269.016 47.0864 263.428 45.1311 258.679C43.4981 254.713 43.4758 251.284 43.5083 249.916C43.5479 248.252 43.7723 246.931 43.917 246.197C44.207 244.725 44.5903 243.587 44.7588 243.102C45.5488 240.829 47.0653 237.927 47.6696 236.772C47.7227 236.67 47.7688 236.582 47.8067 236.509C48.1082 235.928 48.4022 235.364 48.6887 234.816C49.3541 233.541 49.9789 232.344 50.5625 231.185C51.0434 230.23 51.2882 229.702 51.3825 229.502C55.8643 215.374 63.7367 204.916 71.3598 196.574C72.7978 195 74.2676 193.46 75.7273 191.968C74.8908 192.332 74.0472 192.692 73.1964 193.046C73.1972 193.046 73.0823 193.095 72.7021 193.263C72.6036 193.306 72.4705 193.365 72.319 193.432C72.044 193.554 71.7081 193.702 71.4067 193.835C70.3685 194.292 69.0138 194.88 67.4892 195.505C64.6 196.688 60.4453 198.275 56.1638 199.336C54.0272 199.866 51.256 200.419 48.2293 200.573C45.5356 200.71 40.5488 200.662 35.2746 198.243C28.8437 195.294 23.4852 189.43 21.7464 181.417C20.322 174.852 21.8561 169.171 23.0302 165.9C31.3115 142.829 44.2161 123.306 56.0999 105.96C57.1925 104.365 58.2748 102.791 59.3458 101.234ZM184.688 114.315C183.063 116.485 181.479 118.688 179.936 120.919C183.197 117.668 186.522 114.415 189.922 111.185C188.157 112.249 186.411 113.291 184.688 114.315ZM48.6455 236.689C48.649 236.681 48.7241 236.581 48.8605 236.415C48.7102 236.615 48.642 236.698 48.6455 236.689ZM173.802 250.349C173.802 250.351 173.781 250.38 173.742 250.433C173.783 250.374 173.803 250.347 173.802 250.349ZM205.039 46.0812C205.044 46.0801 205.003 46.1592 204.899 46.3223C204.981 46.164 205.033 46.0824 205.039 46.0812ZM63.4149 180.382C63.4043 180.411 63.3938 180.441 63.3832 180.47L63.3873 180.459C63.3928 180.444 63.4023 180.418 63.4149 180.382Z" fill="url(#paint0_linear_81_795)"/>
<defs>
<linearGradient id="paint0_linear_81_795" x1="158" y1="0" x2="158" y2="272" gradientUnits="userSpaceOnUse">
<stop stop-color="#DAE8FF"/>
<stop offset="1" stop-color="white" stop-opacity="0"/>
</linearGradient>
</defs>
</svg>
