<svg width="555" height="424" viewBox="0 0 555 424" fill="none" xmlns="http://www.w3.org/2000/svg">
<g clip-path="url(#clip0_327_9564)">
<path d="M104.319 423.569C75.9342 390.189 59.2285 349.315 59.2285 305.163C59.2285 192.572 167.834 101.299 301.805 101.299C435.776 101.299 544.382 192.578 544.382 305.163C544.382 349.315 527.677 390.189 499.288 423.569H104.319Z" fill="#EDF3FF"/>
<path d="M413.891 423.535C414.079 360.805 463.518 310.821 555.014 303.091C535.929 337.993 553.302 367.28 527.314 394.825C507.222 416.11 469.277 423.542 469.277 423.542L413.891 423.535Z" fill="#0A54C2"/>
<path d="M442.45 365.267C435.386 376.241 416.825 408.479 424.703 414.154C432.582 419.829 490.204 413.532 502.014 405.501C523.705 390.74 547.769 313.641 548.111 308.725C548.453 303.809 469.311 323.559 442.45 365.267Z" fill="#0066E3"/>
<path d="M519.852 185.7C509.015 215.251 515.685 231.593 508.101 257.759C500.517 283.926 479.682 292.52 473.44 311.846C460.178 352.809 482.455 393.741 440.936 423.484H316.939C301.811 404.732 310.676 349.736 337.062 324.386C363.447 299.037 386.443 299.269 398.926 286.281C417.416 267.061 413.65 233.572 433.468 210.94C445.89 196.763 478.976 182.233 519.852 185.7Z" fill="#0049A7"/>
<path d="M511.946 189.071C515.881 191.105 505.246 203.634 503.044 216.998C500.842 230.362 501.493 245.541 496.638 260.152C491.782 274.764 453.054 296.12 448.887 310.229C444.719 324.338 457.491 385.441 452.403 396.702C447.315 407.963 372.47 414.52 354.723 399.389C336.976 384.258 346.163 329.083 359.383 320.027C372.603 310.971 405.306 295.026 412.709 273.902C420.111 252.778 427.582 217.152 448.887 206.722C470.191 196.291 508.789 187.423 511.946 189.071Z" fill="#0C64C7"/>
<path d="M206.563 423.484C206.563 423.484 219.099 395.898 201.14 368.477C190.505 352.238 168.581 348.686 152.772 334.902C119.08 305.525 116.889 284.305 70.918 280.986C75.6294 304.271 67.761 357.831 90.7772 393.396C99.8885 407.467 116.577 417.255 136.635 423.48L206.563 423.484Z" fill="#0C2399"/>
<path d="M200.523 382.596C190.505 353.274 155.638 356.918 146.301 348.601C133.115 336.861 132.673 315.392 115.433 301.009C98.1934 286.627 81.5904 284.206 79.9264 285.037C78.2623 285.868 90.373 305.033 91.0475 326.868C91.7221 348.703 82.015 380.401 109.537 396.951C137.059 413.501 157.449 415.58 174.936 413.918C192.422 412.257 204.827 395.218 200.523 382.596Z" fill="#183AB5"/>
<path d="M151.18 423.549C151.063 383.892 107.955 359.869 50.1133 354.983C62.1795 377.048 58.0193 390.74 74.4545 408.148C87.1541 421.607 104.079 423.569 104.079 423.569L151.18 423.549Z" fill="#0045CF"/>
<path d="M133.121 386.716C137.572 393.649 149.32 414.031 144.342 417.61C139.363 421.19 103.168 417.662 95.2619 413.299C87.3559 408.937 62.186 363.869 61.9772 360.751C61.7683 357.633 116.138 360.347 133.121 386.716Z" fill="#005DF9"/>
<path d="M387.923 52.9179V403.334C387.923 414.438 380.167 423.474 370.535 423.474H213.631C203.999 423.474 196.1 414.438 196.1 403.334V52.9179C196.1 41.814 203.999 32.8195 213.631 32.8195H370.535C380.167 32.8366 387.923 41.814 387.923 52.9179Z" fill="#FFFFFC"/>
<path d="M379.65 52.9179V403.334C379.65 414.438 371.895 423.474 362.263 423.474H205.338C195.706 423.474 187.807 414.438 187.807 403.334V52.9179C187.807 41.814 195.706 32.8195 205.338 32.8195H362.246C371.878 32.8366 379.65 41.814 379.65 52.9179Z" fill="#005DF9"/>
<path d="M211.125 402.004H356.765C362.712 402.004 367.533 397.19 367.533 391.252L367.533 58.1144C367.533 52.1763 362.712 47.3626 356.765 47.3626H211.125C205.177 47.3626 200.356 52.1763 200.356 58.1144L200.356 391.252C200.356 397.19 205.177 402.004 211.125 402.004Z" fill="#8ABAFF"/>
<path d="M387.923 76.4522V52.9179C387.923 41.814 379.483 32.84 369.074 32.84" stroke="#005DF9" stroke-width="3.25" stroke-linecap="round" stroke-linejoin="round"/>
<path d="M387.926 148.272V133.729" stroke="#005DF9" stroke-width="3.25" stroke-linecap="round" stroke-linejoin="round"/>
<path d="M369.074 423.446C379.483 423.446 387.923 414.448 387.923 403.344V175.123" stroke="#005DF9" stroke-width="3.25" stroke-linecap="round" stroke-linejoin="round"/>
<path d="M388.285 76.4488H385.998C384.587 76.4488 383.443 77.5907 383.443 78.9992V131.179C383.443 132.587 384.587 133.729 385.998 133.729H388.285C389.696 133.729 390.839 132.587 390.839 131.179V78.9992C390.839 77.5907 389.696 76.4488 388.285 76.4488Z" stroke="#005DF9" stroke-width="3.25" stroke-linecap="round" stroke-linejoin="round"/>
<path d="M387.611 148.05H385.324C383.913 148.05 382.77 149.192 382.77 150.6V172.572C382.77 173.981 383.913 175.123 385.324 175.123H387.611C389.022 175.123 390.165 173.981 390.165 172.572V150.6C390.165 149.192 389.022 148.05 387.611 148.05Z" stroke="#005DF9" stroke-width="3.25" stroke-linecap="round" stroke-linejoin="round"/>
<path d="M386.131 131.394V78.7838C386.131 77.4642 387.035 76.4522 388.271 76.4522H385.583C384.347 76.4522 383.443 77.4779 383.443 78.7838V131.394C383.443 132.714 384.347 133.729 385.583 133.729H388.271C387.035 133.729 386.131 132.714 386.131 131.394Z" fill="#005DF9"/>
<path d="M385.471 172.743V150.522C385.471 149.202 386.378 148.057 387.614 148.057H384.926C383.687 148.057 382.779 149.202 382.779 150.522V172.743C382.779 174.063 383.687 175.136 384.926 175.136H387.614C386.368 175.123 385.471 174.063 385.471 172.743Z" fill="#005DF9"/>
<path d="M325.404 64.815H348.486" stroke="white" stroke-width="7.46" stroke-linecap="round" stroke-linejoin="round"/>
<path d="M325.404 71.5293H348.486" stroke="white" stroke-width="7.46" stroke-linecap="round" stroke-linejoin="round"/>
<path d="M325.404 78.4624H348.486" stroke="white" stroke-width="7.46" stroke-linecap="round" stroke-linejoin="round"/>
<path d="M170.787 228.519C168.712 226.229 129.877 182.367 123.231 171.174C122.186 169.41 112.38 177.851 113.986 180.599C124.494 198.568 134.27 281.666 180.275 278.241C197.34 276.969 215.405 254.498 216.507 247.052C219.017 230.095 176.21 219.227 170.787 228.519Z" fill="#FFC4B5"/>
<path d="M333.666 277.639C333.666 280.172 336.658 290.004 337.466 293.495C308.311 291.358 265.357 332.468 222.742 328.683C220.489 305.956 219.109 269.297 219.794 259.366C220.855 246.85 203.016 139.11 204.872 135.79C212.405 122.3 252.87 102.81 261.669 98.9917C272.855 94.1406 296.183 93.3406 307.719 97.9148C325.147 104.827 356.75 118.389 367.18 128.854C376.493 138.207 333.666 276.323 333.666 277.639Z" fill="#1E389C"/>
<path d="M337.465 293.495C334.531 324.8 326.381 370.391 321.372 402.008H234.546C231.245 384.23 226.051 362.064 222.74 328.683C265.355 332.485 308.31 291.358 337.465 293.495Z" fill="#070256"/>
<path d="M265.996 90.8039C267.27 89.8706 297.107 85.9391 300.921 87.1938C301.411 87.3544 307.906 97.1832 307.735 97.9148C304.729 110.827 269.023 155.277 263.141 155.39C261.429 155.421 259.813 132.621 259.648 120.694C259.648 119.757 257.751 123.524 257.039 123.128C255.707 122.386 258.446 109.668 259.847 104.017C260.686 100.551 265.085 91.4705 265.996 90.8039Z" fill="#FFFFFC"/>
<path d="M367.179 128.854C377.451 139.325 420.158 206.024 422.648 225.904C423.298 231.1 379.18 248.58 375.759 240.218C374.807 237.893 350.918 199.47 334.37 173.082C316.058 143.872 343.608 104.855 367.179 128.854Z" fill="#1E389C"/>
<path d="M216.838 252.915C218.571 241.428 229.164 217.077 235.756 183.013C243.405 143.496 214.006 120.109 204.868 135.794C193.777 154.822 174.894 216.465 170.785 228.519C186.09 231.435 215.876 259.301 216.838 252.915Z" fill="#1E389C"/>
<path d="M211.531 156.446C208.696 173.492 225.299 252.098 217.923 287.796" stroke="#8ABAFF" stroke-width="4.09" stroke-linecap="round" stroke-linejoin="round"/>
<path d="M355.014 208.441C351.703 200.298 341.05 185.536 338.746 180.066" stroke="#8ABAFF" stroke-width="4.09" stroke-linecap="round" stroke-linejoin="round"/>
<path d="M304.068 304.684C304.102 316.827 302.473 331.692 323.653 344.382" stroke="#8ABAFF" stroke-width="4.09" stroke-linecap="round" stroke-linejoin="round"/>
<path d="M256.898 124.704C256.898 124.704 269.061 108.913 269.711 108.913C270.362 108.913 280.226 126.006 281.147 126.218C282.198 126.464 290.926 118.441 303.403 108.913" stroke="#1E389C" stroke-width="4.34" stroke-linecap="round" stroke-linejoin="round"/>
<path d="M304.299 316.198C308.77 310.763 312.386 308.742 313.697 307.528C315.409 305.942 329.29 315.101 328.421 316.291C327.66 317.316 327 331.22 318.296 340.348C308.849 335.234 303.703 321.566 304.299 316.198Z" fill="#FFC4B5"/>
<path d="M313.697 307.529C337.467 292.391 358.274 246.618 374.141 234.252C380.229 229.507 410.24 218.978 418.996 221.172C422.611 222.082 427.292 236.97 420.742 249.818C403.964 282.736 330.235 313.457 328.414 316.291C326.592 319.125 314.094 312.455 313.697 307.529Z" fill="#FFC4B5"/>
<path d="M307.257 57.5469C298.947 69.2046 305.312 74.2985 303.966 77.0505C303.282 78.418 300.244 78.2368 298.793 77.0095C295.584 74.2745 294.229 65.8611 294.229 65.8611L298.509 59.0819L307.257 57.5469Z" fill="#070256"/>
<path d="M264.604 98.7455C264.539 95.3029 269.922 71.3447 270.665 68.032L270.747 67.9944L301.309 51.2975C301.309 51.2975 298.382 73.707 300.214 89.3099C300.409 90.9475 273.164 108.297 270.178 107.197C268.436 106.55 264.628 100.034 264.604 98.7455Z" fill="#FFC4B5"/>
<path d="M297.08 71.1704C286.808 95.9593 250.575 101.569 247.521 74.6985C246.545 66.121 248.585 56.9213 251.044 47.5506C252.133 43.3969 255.31 26.7479 257.101 25.5992C259.737 23.8898 277.018 17.4251 281.137 17.7704C285.462 18.1328 301.592 32.1084 302.274 33.1545C302.774 33.8964 299.665 64.9381 297.08 71.1704Z" fill="#FFC4B5"/>
<path d="M315.697 33.8827C317.409 26.0197 313.184 18.4644 307.257 17.7122C308.969 12.4816 306.199 5.44256 302.85 3.19989C292.178 -3.93834 282.211 3.00161 276.109 3.66825C272.37 4.08192 269.877 1.27517 267.33 2.98452C266.303 3.66825 266.162 5.61349 266.669 6.45107C263.101 6.49552 257.119 -0.509387 250.436 2.20164C244.714 4.52293 242.561 16.126 256.62 25.5069C254.726 27.6162 249.34 31.3597 248.357 34.5117C246.837 39.3765 249.361 46.4771 251.045 47.5335C251.864 44.2379 255.531 33.3938 257.143 25.8043C264.556 30.317 276.355 30.4059 290.123 27.8179C290.918 28.382 287.042 32.6212 287.261 36.474C287.775 44.8191 295.437 49.9403 294.623 58.0118C295.807 58.5759 298.303 56.3948 298.824 55.1914C299.598 53.4068 306.052 62.1245 306.562 60.1963C309.222 50.1454 313.109 45.7934 315.697 33.8827Z" fill="#071666"/>
<path d="M309.221 50.1454C313.33 54.3299 302.328 71.4541 298.001 62.5723C294.354 55.0957 304.242 45.0584 309.221 50.1454Z" fill="#FFC4B5"/>
<path d="M300.744 57.3657C301.521 53.8 306.942 51.7795 308.051 52.1043" stroke="#F26979" stroke-width="3.25" stroke-linecap="round" stroke-linejoin="round"/>
<path d="M305.209 57.5469C304.991 56.8985 304.579 56.333 304.027 55.9278C303.475 55.5227 302.812 55.2977 302.127 55.2837" stroke="#F26979" stroke-width="3.25" stroke-linecap="round" stroke-linejoin="round"/>
<path d="M260.111 54.0324C261.015 49.7488 266.148 50.9556 266.134 54.6341" stroke="#28003B" stroke-width="3.25" stroke-linecap="round" stroke-linejoin="round"/>
<path d="M285.092 57.8135L299.182 52.4564" stroke="#28003B" stroke-width="3.25" stroke-linecap="round" stroke-linejoin="round"/>
<path d="M260.593 45.6213L249.251 43.235C248.567 43.091 247.895 43.5284 247.75 44.2119L245.14 56.5826C244.995 57.2662 245.433 57.9371 246.118 58.0811L257.459 60.4674C258.144 60.6114 258.816 60.1741 258.96 59.4905L261.571 47.1199C261.715 46.4363 261.277 45.7653 260.593 45.6213Z" stroke="#28003B" stroke-width="3.25" stroke-linecap="round" stroke-linejoin="round"/>
<path d="M285.062 50.7719L268.96 47.3839C268.276 47.2399 267.604 47.6773 267.459 48.3608L264.849 60.7315C264.704 61.415 265.142 62.086 265.827 62.23L281.929 65.618C282.614 65.7621 283.286 65.3247 283.43 64.6411L286.041 52.2705C286.185 51.5869 285.747 50.916 285.062 50.7719Z" stroke="#28003B" stroke-width="3.25" stroke-linecap="round" stroke-linejoin="round"/>
<path d="M281.262 57.8135C281.083 58.5688 280.779 59.2888 280.361 59.9434" stroke="white" stroke-width="4.34" stroke-miterlimit="10" stroke-linecap="round"/>
<path d="M281.754 53.9094C281.754 53.9094 281.754 54.5931 281.654 55.5503" stroke="white" stroke-width="4.34" stroke-miterlimit="10" stroke-linecap="round"/>
<path d="M255.519 54.3421C257.737 54.1589 259.406 52.4468 259.246 50.5181C259.086 48.5894 257.158 47.1744 254.94 47.3577C252.722 47.5409 251.053 49.253 251.213 51.1817C251.373 53.1104 253.301 54.5254 255.519 54.3421Z" fill="white"/>
<path d="M258.157 51.467C258.531 49.9217 258.031 48.4752 257.04 48.2363C256.05 47.9973 254.943 49.0563 254.57 50.6017C254.196 52.147 254.696 53.5935 255.687 53.8324C256.677 54.0714 257.784 53.0123 258.157 51.467Z" fill="#04153D"/>
<path d="M256.633 52.2034C256.476 52.7675 256.02 53.1538 255.606 53.0684C255.192 52.9829 255.003 52.4598 255.161 51.8958C255.318 51.3317 255.774 50.9419 256.188 51.0274C256.602 51.1129 256.791 51.6394 256.633 52.2034Z" fill="white"/>
<path d="M274.534 57.228C277.191 57.2225 279.341 55.4547 279.337 53.2796C279.332 51.1045 277.175 49.3458 274.518 49.3514C271.861 49.3569 269.711 51.1247 269.715 53.2997C269.72 55.4748 271.877 57.2336 274.534 57.228Z" fill="white"/>
<path d="M277.26 54.0418C277.809 52.4774 277.368 50.8988 276.274 50.5161C275.18 50.1334 273.848 51.0914 273.299 52.6559C272.75 54.2204 273.192 55.7988 274.286 56.1816C275.38 56.5643 276.711 55.6063 277.26 54.0418Z" fill="#04153D"/>
<path d="M275.412 54.3401C275.255 54.9042 274.799 55.2905 274.385 55.2085C273.971 55.1264 273.783 54.5965 273.94 54.0324C274.098 53.4684 274.553 53.082 274.967 53.1675C275.382 53.253 275.56 53.776 275.412 54.3401Z" fill="white"/>
<path d="M273.137 41.2739L273.27 41.0654C273.293 41.0269 273.32 40.9903 273.349 40.956C273.395 40.9071 273.444 40.8614 273.496 40.8192L273.674 40.6688C273.739 40.6278 273.804 40.5936 273.876 40.5526C274.028 40.4675 274.19 40.4031 274.359 40.3611C274.542 40.3117 274.728 40.2786 274.917 40.262C275.308 40.2394 275.7 40.2716 276.081 40.3577C276.269 40.3981 276.454 40.4495 276.636 40.5115C276.811 40.5733 276.982 40.644 277.149 40.7235C277.446 40.8625 277.727 41.0346 277.985 41.2363C278.175 41.3794 278.348 41.5447 278.499 41.7286C278.558 41.8054 278.612 41.8852 278.663 41.9679C278.694 42.0196 278.707 42.08 278.701 42.1401C278.695 42.2001 278.67 42.2566 278.629 42.3012C278.589 42.3457 278.535 42.3759 278.475 42.3873C278.416 42.3987 278.354 42.3907 278.3 42.3645L278.249 42.3405C278.249 42.3405 278.173 42.3063 278.06 42.2448C277.947 42.1833 277.916 42.1799 277.831 42.1388L277.523 42.0055C277.406 41.9645 277.29 41.9064 277.153 41.8619C277.016 41.8175 276.886 41.7559 276.739 41.7081C276.591 41.6602 276.444 41.6123 276.293 41.5611C276.143 41.5098 275.985 41.4688 275.831 41.4346L275.602 41.3799C275.523 41.3799 275.448 41.3594 275.372 41.3423C275.227 41.3161 275.081 41.2978 274.934 41.2876C274.803 41.2807 274.672 41.2807 274.54 41.2876C274.425 41.2923 274.31 41.3095 274.198 41.3389L274.051 41.373C274.017 41.373 273.979 41.4004 273.945 41.4141L273.842 41.4483C273.804 41.4677 273.769 41.4906 273.736 41.5166L273.53 41.6568C273.5 41.678 273.465 41.6929 273.429 41.7007C273.392 41.7084 273.354 41.7087 273.318 41.7017C273.281 41.6947 273.246 41.6805 273.215 41.6599C273.184 41.6392 273.157 41.6126 273.137 41.5816C273.107 41.5356 273.092 41.4822 273.092 41.4277C273.092 41.3733 273.107 41.3199 273.137 41.2739Z" fill="#04153D"/>
<path d="M253.827 39.4757C253.827 39.4757 253.872 39.4176 253.954 39.3252C254.004 39.262 254.064 39.2077 254.132 39.1646C254.239 39.0911 254.354 39.0292 254.474 38.98C254.604 38.9242 254.742 38.8863 254.882 38.8671C254.957 38.8671 255.036 38.8432 255.115 38.8364H255.354C255.519 38.8514 255.682 38.8835 255.841 38.9321C255.994 38.985 256.143 39.0502 256.286 39.127C256.425 39.2004 256.558 39.285 256.683 39.3799C256.802 39.4704 256.917 39.5674 257.025 39.6705C257.208 39.8546 257.368 40.0587 257.505 40.2791C257.603 40.4351 257.685 40.6013 257.748 40.7748C257.792 40.9081 257.809 40.9867 257.809 40.9867C257.821 41.0452 257.814 41.1058 257.789 41.1602C257.765 41.2145 257.724 41.2598 257.672 41.2899C257.621 41.3199 257.561 41.3332 257.501 41.3279C257.442 41.3226 257.386 41.2989 257.34 41.2602L257.309 41.2329L257.186 41.1235C257.104 41.0517 256.991 40.9525 256.844 40.8329C256.697 40.7132 256.532 40.5833 256.347 40.4602C256.164 40.333 255.972 40.2188 255.772 40.1184C255.673 40.0603 255.577 40.0329 255.481 39.9851C255.391 39.9518 255.3 39.9233 255.207 39.8996C255.123 39.8769 255.037 39.8598 254.95 39.8483C254.865 39.8278 254.793 39.8483 254.714 39.8483C254.635 39.8483 254.587 39.8483 254.526 39.8483C254.464 39.8483 254.385 39.8825 254.331 39.8928C254.269 39.9134 254.206 39.9305 254.142 39.944C254.067 39.9573 253.989 39.9408 253.925 39.8982C253.861 39.8555 253.816 39.7899 253.8 39.715C253.788 39.6753 253.784 39.6336 253.789 39.5925C253.794 39.5514 253.807 39.5117 253.827 39.4757Z" fill="#04153D"/>
<path d="M262.385 52.4564C261.197 53.6666 252.216 65.2423 253.914 66.9175C255.612 68.5926 262.002 67.7209 262.026 64.709C262.05 61.6971 262.385 52.4564 262.385 52.4564Z" fill="#FFC4B5"/>
<path d="M261.745 53.294C261.745 53.294 261.495 53.5846 261.06 54.1179C260.625 54.6512 260.064 55.4273 259.396 56.3777C258.728 57.3281 257.985 58.4631 257.225 59.6972C256.856 60.3229 256.486 60.9724 256.13 61.6425C255.774 62.3125 255.445 63.0099 255.15 63.6937C254.85 64.3643 254.613 65.0613 254.442 65.7757C254.365 66.0563 254.349 66.3502 254.397 66.6372C254.475 66.8776 254.623 67.0895 254.822 67.2457C255.31 67.573 255.884 67.7468 256.472 67.7448C257.063 67.766 257.655 67.7305 258.239 67.6388C259.141 67.4949 260.031 67.28 260.899 66.9961C261.536 66.791 261.892 66.6543 261.892 66.6543C261.958 66.6315 262.03 66.6348 262.094 66.6634C262.158 66.692 262.208 66.7437 262.235 66.8081C262.259 66.8704 262.26 66.9392 262.237 67.002C262.214 67.0649 262.17 67.1174 262.111 67.15L261.861 67.2867C261.7 67.3756 261.457 67.5021 261.139 67.6457C260.821 67.7893 260.434 67.9568 259.975 68.1209C259.459 68.3047 258.932 68.4554 258.396 68.5722C257.749 68.7214 257.085 68.7949 256.421 68.791C255.599 68.819 254.79 68.579 254.116 68.1072C253.726 67.8061 253.441 67.3898 253.301 66.9175C253.211 66.4578 253.231 65.9835 253.36 65.5329C253.579 64.7514 253.891 63.9986 254.288 63.2903C254.657 62.586 255.075 61.9228 255.489 61.2664C255.904 60.61 256.318 59.9844 256.736 59.3827C257.547 58.1657 258.348 57.0614 259.04 56.1213C259.732 55.1811 260.331 54.4119 260.752 53.8752C261.173 53.3385 261.437 53.041 261.437 53.041C261.469 53.0039 261.515 52.981 261.564 52.9775C261.613 52.9739 261.662 52.99 261.699 53.0222C261.736 53.0544 261.759 53.1001 261.762 53.1491C261.766 53.1981 261.75 53.2466 261.718 53.2838L261.745 53.294Z" fill="#F26979"/>
<mask id="mask0_327_9564" style="mask-type:luminance" maskUnits="userSpaceOnUse" x="256" y="71" width="20" height="9">
<path d="M275.284 71.9225C272.613 77.2761 265.176 80.6743 260.701 79.4128C258.53 78.7974 256.982 75.7993 256.982 72.5754C261.365 74.0694 270.887 73.6728 275.284 71.9225Z" fill="white"/>
</mask>
<g mask="url(#mask0_327_9564)">
<path d="M275.144 87.3203C281.537 80.9373 281.537 70.5883 275.144 64.2053C268.751 57.8223 258.386 57.8223 251.993 64.2053C245.6 70.5884 245.6 80.9373 251.993 87.3203C258.386 93.7033 268.751 93.7034 275.144 87.3203Z" fill="#F26979"/>
<path d="M258.581 75.1599C259.135 75.7309 272.123 77.259 274.766 71.1738C278.06 63.6014 257.461 70.6917 257.461 70.6917C257.461 70.6917 257.776 74.336 258.581 75.1599Z" fill="white"/>
</g>
<path d="M265.566 92.3218H265.908C266.141 92.3218 266.501 92.3218 266.936 92.3218C267.371 92.3218 267.87 92.291 268.47 92.2227C268.771 92.1885 269.089 92.168 269.421 92.1235L270.473 91.9663C270.842 91.9218 271.219 91.8329 271.613 91.7577C272.007 91.6825 272.411 91.6107 272.822 91.4979L274.092 91.1765C274.523 91.0535 274.958 90.9133 275.4 90.7766C275.622 90.7082 275.848 90.6432 276.085 90.5646L276.769 90.3185C277.215 90.1441 277.68 89.9971 278.139 89.7988L279.491 89.2074C279.947 89.0193 280.378 88.7664 280.823 88.551C281.721 88.1202 282.559 87.5869 283.402 87.0912C283.826 86.8485 284.21 86.5476 284.61 86.2844C285.011 86.0211 285.408 85.7579 285.771 85.4673L286.846 84.6092C287.197 84.3458 287.533 84.0639 287.853 83.7648L288.771 82.9204C289.063 82.6651 289.342 82.3947 289.606 82.1102L291 80.623C291.404 80.1683 291.719 79.741 291.999 79.406L292.859 78.3359C292.891 78.3041 292.934 78.2851 292.98 78.2825C293.025 78.2799 293.07 78.2939 293.106 78.3219C293.142 78.3499 293.167 78.3899 293.175 78.4346C293.184 78.4793 293.176 78.5257 293.153 78.565L292.308 79.6658C292.034 80.0077 291.725 80.4487 291.328 80.917L289.959 82.4589C289.716 82.7495 289.421 83.0127 289.127 83.2999L288.216 84.1785C287.897 84.4899 287.562 84.7843 287.213 85.0605L286.141 85.9562C285.778 86.2605 285.371 86.5237 284.98 86.8143C284.59 87.1049 284.193 87.4091 283.768 87.6655C282.919 88.192 282.077 88.7561 281.169 89.2142C280.721 89.4467 280.289 89.7168 279.824 89.9185C279.358 90.1202 278.909 90.3458 278.454 90.5543C277.999 90.7629 277.533 90.9304 277.084 91.1184L276.4 91.3885C276.174 91.474 275.944 91.5423 275.715 91.621C275.263 91.768 274.821 91.9252 274.383 92.062L273.089 92.4209C272.671 92.5474 272.25 92.6226 271.849 92.7184C271.449 92.8141 271.062 92.903 270.682 92.9577L269.6 93.1457C269.257 93.2004 268.915 93.2312 268.617 93.2688C268.004 93.3577 267.446 93.3782 266.994 93.4124C266.542 93.4466 266.203 93.4329 265.967 93.4397H265.604C265.527 93.4457 265.45 93.4358 265.377 93.4106C265.304 93.3855 265.238 93.3455 265.181 93.2933C265.125 93.2412 265.08 93.1779 265.049 93.1075C265.018 93.0371 265.002 92.961 265.002 92.8842C265.002 92.8073 265.018 92.7313 265.049 92.6609C265.08 92.5905 265.125 92.5272 265.181 92.475C265.238 92.4228 265.304 92.3829 265.377 92.3577C265.45 92.3325 265.527 92.3226 265.604 92.3286L265.566 92.3218Z" fill="#F26979"/>
<path d="M122.508 154.388C124.563 159.995 124.22 173.475 121.118 176.74C119.594 178.333 108.99 154.48 112.294 153.246C113.277 152.877 107.631 146.368 107.09 141.715C106.724 138.584 107.829 136.177 109.446 135.903C110.473 135.743 111.075 139.732 112.294 142.317C113.743 145.445 120.861 149.91 122.508 154.388Z" fill="#FFC4B5"/>
<path d="M118.429 153.417C115.593 155.469 104.342 149.722 92.4061 145.353C83.6132 142.132 76.6557 137.555 74.365 137.572C72.8653 137.572 71.6258 140.307 73.0742 143.561C77.6178 153.681 93.3066 173.393 106.972 178.893C131.186 188.647 118.429 153.417 118.429 153.417Z" fill="#FFC4B5"/>
<path d="M103.065 150.864C103.065 150.864 102.822 150.939 102.381 151.062L102.213 151.11L102.052 151.178L101.709 151.328C101.456 151.414 101.162 151.602 100.843 151.749C100.677 151.834 100.516 151.929 100.36 152.033C100.196 152.139 100.018 152.228 99.8468 152.344C99.5044 152.587 99.1415 152.822 98.7854 153.106C98.6039 153.246 98.4156 153.38 98.2375 153.534C98.0595 153.687 97.8746 153.841 97.6897 153.992C97.3199 154.303 96.9535 154.631 96.5974 154.973C96.2413 155.315 95.875 155.657 95.536 155.998L94.5293 157.024L93.6014 158.005L92.7762 158.894L91.5368 160.238C91.2354 160.579 91.0574 160.744 91.0574 160.744C90.9797 160.821 90.8744 160.864 90.7646 160.864C90.6549 160.864 90.5496 160.821 90.4719 160.744C90.4082 160.68 90.3669 160.597 90.354 160.508C90.341 160.418 90.3571 160.327 90.4 160.248C90.4 160.248 90.5232 160.026 90.7424 159.636C90.9615 159.246 91.3108 158.706 91.7696 158.077C92.2284 157.448 92.7591 156.709 93.3823 155.985C93.7041 155.622 94.0192 155.233 94.3821 154.87C94.745 154.508 95.1011 154.132 95.4812 153.773C95.8613 153.414 96.2619 153.089 96.6625 152.747C97.0631 152.405 97.4774 152.122 97.8951 151.848C98.2919 151.58 98.7022 151.332 99.1244 151.106C99.5105 150.907 99.9071 150.729 100.312 150.573C100.659 150.432 101.016 150.317 101.381 150.231L101.85 150.132L102.055 150.091H102.233C102.678 150.06 102.935 150.05 102.935 150.05C103.045 150.046 103.151 150.086 103.231 150.16C103.311 150.234 103.359 150.337 103.363 150.446C103.367 150.539 103.34 150.63 103.286 150.706C103.232 150.782 103.154 150.837 103.065 150.864Z" fill="#F26979"/>
<path d="M112.681 153.318V153.479C112.681 153.581 112.681 153.732 112.654 153.933C112.627 154.135 112.562 154.422 112.476 154.71C112.39 154.997 112.298 155.298 112.161 155.609C112.024 155.92 111.897 156.268 111.733 156.614L111.24 157.697C111.069 158.063 110.897 158.45 110.737 158.832C110.576 159.215 110.428 159.609 110.278 159.998C110.127 160.388 110.007 160.781 109.935 161.171C109.898 161.366 109.836 161.557 109.809 161.749C109.781 161.94 109.75 162.132 109.723 162.316C109.697 162.498 109.685 162.682 109.685 162.867C109.685 163.048 109.665 163.208 109.658 163.4C109.692 163.742 109.706 164.084 109.73 164.374C109.754 164.665 109.843 164.949 109.884 165.198C109.932 165.412 109.992 165.623 110.062 165.831C110.165 166.172 110.216 166.395 110.216 166.395V166.453C110.23 166.505 110.233 166.559 110.226 166.612C110.219 166.665 110.201 166.716 110.173 166.762C110.146 166.809 110.109 166.849 110.066 166.881C110.023 166.913 109.974 166.936 109.922 166.948C109.838 166.969 109.75 166.963 109.67 166.931C109.591 166.899 109.523 166.843 109.477 166.771C109.477 166.771 109.353 166.576 109.134 166.22C109.004 166.01 108.89 165.791 108.792 165.564C108.686 165.294 108.569 164.99 108.449 164.648C108.329 164.306 108.285 163.913 108.21 163.506C108.166 163.072 108.153 162.636 108.169 162.2C108.186 161.974 108.206 161.745 108.223 161.516C108.251 161.286 108.292 161.058 108.347 160.832C108.442 160.369 108.567 159.912 108.72 159.465C108.894 159.034 109.062 158.59 109.254 158.186C109.446 157.783 109.655 157.386 109.853 157.014C110.052 156.641 110.264 156.296 110.452 155.971C110.641 155.646 110.819 155.342 110.986 155.062C111.154 154.781 111.278 154.532 111.408 154.306L111.675 153.763C111.795 153.393 111.866 153.181 111.866 153.181C111.883 153.13 111.911 153.082 111.946 153.041C111.982 153 112.025 152.966 112.074 152.941C112.122 152.917 112.175 152.902 112.23 152.898C112.284 152.894 112.339 152.901 112.39 152.918C112.476 152.944 112.551 152.997 112.604 153.069C112.656 153.141 112.684 153.229 112.681 153.318Z" fill="#F26979"/>
<path d="M74.6333 145.045L74.873 144.966C74.9822 144.922 75.0978 144.896 75.2154 144.888C75.3872 144.858 75.5616 144.847 75.7358 144.853C76.1586 144.868 76.5767 144.948 76.9753 145.089C77.4668 145.258 77.9395 145.477 78.386 145.742C78.8983 146.043 79.3912 146.375 79.8617 146.737C80.3617 147.11 80.865 147.527 81.3683 147.975C81.8716 148.423 82.3955 148.884 82.8817 149.376C83.3679 149.869 83.8815 150.364 84.3814 150.863L87.2439 153.821C87.7027 154.286 88.1444 154.73 88.569 155.147C88.9936 155.564 89.4044 155.937 89.7879 156.275C90.3878 156.817 91.0379 157.3 91.7293 157.718L92.0717 157.896C92.1528 157.937 92.2362 157.974 92.3217 158.005L92.5306 158.094L92.5888 158.115C92.6883 158.15 92.7703 158.222 92.8175 158.316C92.8647 158.41 92.8735 158.519 92.842 158.62C92.8105 158.72 92.7412 158.805 92.6486 158.855C92.556 158.906 92.4474 158.918 92.3456 158.891L92.0752 158.832C91.818 158.781 91.5659 158.706 91.3219 158.61C90.955 158.465 90.5991 158.294 90.257 158.097C89.8195 157.852 89.3965 157.581 88.9901 157.287C88.771 157.127 88.5484 156.945 88.3053 156.778L87.6205 156.207C87.1514 155.81 86.6618 155.383 86.179 154.921C85.6963 154.46 85.1963 153.992 84.7067 153.499L83.2241 152.005C82.7379 151.503 82.2483 151 81.7655 150.515C81.2827 150.029 80.8102 149.547 80.3411 149.099C79.872 148.652 79.4235 148.221 78.9715 147.841C78.5195 147.462 78.1018 147.117 77.7012 146.816C77.3404 146.559 76.9604 146.33 76.5644 146.132C76.2785 145.989 75.9744 145.886 75.6605 145.824C75.6073 145.808 75.5518 145.8 75.4961 145.8H75.3626C75.2734 145.782 75.1813 145.782 75.0921 145.8L74.8421 145.838C74.7388 145.857 74.6322 145.835 74.5441 145.778C74.4561 145.721 74.3933 145.632 74.3688 145.53C74.3442 145.428 74.3598 145.321 74.4121 145.23C74.4645 145.139 74.5498 145.072 74.6504 145.041L74.6333 145.045Z" fill="#F26979"/>
<path d="M73.8243 141.729L74.0879 141.643L74.2317 141.595C74.2933 141.595 74.3721 141.575 74.4543 141.561C74.6353 141.532 74.8189 141.521 75.0021 141.53C75.2111 141.529 75.4197 141.548 75.6253 141.585L75.9677 141.643C76.0841 141.667 76.2005 141.705 76.3101 141.736C76.8466 141.885 77.37 142.078 77.8749 142.313C78.4609 142.582 79.0323 142.881 79.5869 143.209C80.1758 143.551 80.775 143.93 81.381 144.341C81.9871 144.751 82.6068 145.185 83.2197 145.643L85.0584 147.041L86.8629 148.47L88.6091 149.858C89.7322 150.754 90.7765 151.568 91.6907 152.251C92.1529 152.593 92.5741 152.877 92.9542 153.123C93.3342 153.369 93.6766 153.561 93.9574 153.715C94.1724 153.826 94.393 153.926 94.6182 154.016L94.8545 154.108L94.9024 154.128C94.9526 154.147 94.9986 154.176 95.0375 154.213C95.0765 154.25 95.1077 154.294 95.1294 154.343C95.1511 154.392 95.1627 154.445 95.1638 154.498C95.1648 154.552 95.1551 154.605 95.1352 154.655C95.0994 154.744 95.0331 154.819 94.9479 154.864C94.8628 154.91 94.7642 154.924 94.6696 154.904L94.3751 154.843C94.101 154.784 93.831 154.708 93.567 154.614L93.0192 154.398C92.824 154.316 92.622 154.214 92.3995 154.111C92.1769 154.009 91.9544 153.879 91.7147 153.769L90.9785 153.342C90.4752 153.038 89.9513 152.696 89.3829 152.316C88.8145 151.937 88.253 151.534 87.6709 151.099C87.0888 150.665 86.4828 150.224 85.8836 149.756L84.0689 148.347L82.2678 146.946C81.6686 146.488 81.09 146.033 80.5148 145.616C79.9395 145.199 79.3848 144.788 78.8473 144.433C78.3097 144.077 77.7995 143.749 77.3167 143.476C76.8862 143.231 76.4401 143.014 75.9814 142.826L75.6903 142.713L75.4164 142.631C75.2597 142.583 75.0994 142.548 74.9371 142.525C74.824 142.504 74.7096 142.492 74.5947 142.488C74.5433 142.488 74.5022 142.488 74.4543 142.488L74.3036 142.512L74.0297 142.553C73.9295 142.565 73.8285 142.539 73.7459 142.482C73.6632 142.424 73.6047 142.338 73.5814 142.24C73.5581 142.142 73.5718 142.039 73.6197 141.95C73.6676 141.862 73.7465 141.794 73.8414 141.76L73.8243 141.729Z" fill="#F26979"/>
<path d="M73.8222 138.86L74.1167 138.765C74.1724 138.745 74.2296 138.73 74.2879 138.72L74.5344 138.686L74.8289 138.655H75.1268C75.2295 138.655 75.3425 138.655 75.4692 138.676L75.8116 138.727C76.0704 138.769 76.3265 138.826 76.5785 138.898C76.8456 138.97 77.123 139.062 77.414 139.165C77.705 139.267 77.9995 139.384 78.2974 139.524C78.9103 139.784 79.5437 140.105 80.2011 140.464C80.8585 140.823 81.5399 141.213 82.2247 141.64C82.9095 142.067 83.6183 142.508 84.3236 142.973L86.4499 144.388L88.5557 145.811L90.6101 147.178C91.2949 147.606 91.9181 148.026 92.5378 148.399C93.1576 148.771 93.7431 149.117 94.2943 149.424C94.8456 149.732 95.3524 149.985 95.8112 150.197C96.0372 150.313 96.2563 150.395 96.4583 150.484C96.639 150.568 96.8242 150.642 97.013 150.706L97.4615 150.87L97.8039 150.973L98.0847 151.058H98.1189C98.2162 151.09 98.298 151.157 98.3484 151.246C98.3988 151.335 98.4141 151.44 98.3914 151.539C98.3687 151.639 98.3096 151.726 98.2257 151.785C98.1417 151.843 98.0389 151.868 97.9375 151.855L97.619 151.807C97.3194 151.766 97.0222 151.709 96.7288 151.636C96.5371 151.592 96.3282 151.54 96.1091 151.469C95.8899 151.397 95.64 151.332 95.39 151.24C94.8798 151.062 94.3183 150.84 93.7225 150.556C92.3734 149.936 91.0621 149.237 89.7952 148.464C89.1104 148.046 88.3879 147.612 87.6826 147.144L85.5289 145.749L83.4231 144.313C82.7383 143.845 82.0535 143.373 81.3927 142.946C80.7319 142.518 80.0916 142.088 79.4787 141.705C78.8658 141.322 78.2803 140.977 77.7324 140.679C77.2429 140.415 76.7388 140.179 76.2224 139.972C75.993 139.893 75.7773 139.801 75.5822 139.756L75.298 139.678C75.2055 139.657 75.1199 139.65 75.0412 139.633L74.8083 139.596H74.6337H74.4796C74.4266 139.598 74.3739 139.604 74.3221 139.616L74.0174 139.667C73.9168 139.681 73.8148 139.656 73.7312 139.599C73.6475 139.542 73.588 139.455 73.5642 139.357C73.5404 139.258 73.5539 139.155 73.6022 139.065C73.6505 138.976 73.7301 138.908 73.8256 138.874L73.8222 138.86Z" fill="#F26979"/>
<path d="M143.418 359.062C164.187 359.062 181.024 342.251 181.024 321.514C181.024 300.778 164.187 283.967 143.418 283.967C122.649 283.967 105.812 300.778 105.812 321.514C105.812 342.251 122.649 359.062 143.418 359.062Z" fill="#FF0162"/>
<path d="M132.344 313.925C132.416 318.178 132.266 324.865 132.149 329.08C132.139 329.49 132.233 329.897 132.422 330.261C132.611 330.625 132.889 330.936 133.231 331.164C133.572 331.393 133.966 331.531 134.376 331.566C134.785 331.602 135.197 331.533 135.573 331.367L153.477 323.319C153.834 323.159 154.138 322.9 154.35 322.571C154.563 322.243 154.676 321.861 154.676 321.47C154.676 321.079 154.563 320.697 154.35 320.368C154.138 320.04 153.834 319.78 153.477 319.62L135.768 311.662C135.394 311.495 134.985 311.426 134.577 311.46C134.169 311.494 133.776 311.63 133.435 311.856C133.093 312.081 132.815 312.389 132.624 312.751C132.433 313.112 132.337 313.516 132.344 313.925Z" fill="#FFFFFC"/>
<path d="M114.474 47.3523C102.436 50.5864 95.7177 112.236 107.897 113.2C116.604 113.884 119.021 101.778 118.333 94.6055C118.308 94.323 118.341 94.0383 118.431 93.7694C118.521 93.5005 118.667 93.2531 118.857 93.043C119.048 92.8329 119.281 92.6646 119.54 92.5487C119.799 92.4328 120.08 92.3718 120.364 92.3697C125.089 92.3116 131.618 90.5168 135.494 88.6091C135.981 88.3677 136.536 88.304 137.065 88.4288C137.593 88.5537 138.061 88.8594 138.388 89.2929C143.27 95.7234 148.009 101.501 153.029 98.5233C161.808 93.2585 126.369 44.1559 114.474 47.3523ZM131.033 75.8916C130.803 78.2847 118.213 81.8196 117.433 80.0145C116.652 78.2095 117.128 63.6595 119.487 62.9211C121.942 62.1177 131.262 73.4882 131.033 75.8916Z" fill="#FCAA24"/>
<path d="M73.1427 236.064C62.946 227.452 47.4182 234.604 41.8952 236.375C41.6806 236.443 41.4519 236.454 41.2319 236.406C41.012 236.358 40.8085 236.253 40.642 236.101C40.4756 235.95 40.3518 235.758 40.2833 235.544C40.2148 235.329 40.2039 235.101 40.2517 234.881C41.3268 229.914 45.4254 216.099 40.0086 211.853C30.1886 204.158 11.2847 219.295 8.90839 226.762C6.03565 235.794 46.7779 278.261 55.8857 278.535C64.9936 278.808 85.9005 246.847 73.1427 236.064ZM21.3135 225.466C21.7039 222.099 26.2852 221.644 29.3018 223.453C32.3183 225.261 31.8115 234.266 29.538 235.681C27.2645 237.097 20.6014 231.562 21.3135 225.453V225.466ZM55.7385 261.021C53.3417 262.022 43.9702 252.426 45.0624 250.341C46.7265 247.178 56.4815 245.869 59.1317 247.383C61.7818 248.898 58.1353 260.022 55.7385 261.021Z" fill="#FF3701"/>
<path d="M477.936 111.73C466.356 107.935 450.482 112.335 442.145 132.782C436.591 146.399 439.748 163.068 454.786 169.198C471.595 176.035 482.719 165.95 479.097 161.417C477.416 159.318 468.996 165.075 460.754 159.708C451.421 153.622 454.108 142.638 456.505 136.543C460.854 125.5 472.126 118.324 480.35 122.471C484.517 124.57 487.688 130.372 489.595 129.951C495.217 128.704 494.036 117.001 477.936 111.73Z" fill="#FF4768"/>
<path d="M543.551 283.036C544.183 280.363 542.524 277.683 539.846 277.052C537.169 276.421 534.485 278.077 533.853 280.751C533.221 283.425 534.88 286.104 537.558 286.735C540.236 287.366 542.919 285.71 543.551 283.036Z" fill="#FCAA24"/>
<path d="M44.3444 157.598C47.6121 157.598 50.2611 154.953 50.2611 151.691C50.2611 148.428 47.6121 145.783 44.3444 145.783C41.0767 145.783 38.4277 148.428 38.4277 151.691C38.4277 154.953 41.0767 157.598 44.3444 157.598Z" fill="#2679FF"/>
<path d="M59.7295 35.3954C60.3815 31.4115 57.6754 27.6542 53.6853 27.0032C49.6952 26.3523 45.9321 29.0542 45.2801 33.0381C44.6281 37.022 47.3342 40.7793 51.3243 41.4303C55.3144 42.0812 59.0776 39.3793 59.7295 35.3954Z" fill="#FCAA24"/>
<path d="M459.106 86.4766C459.571 84.5122 458.352 82.5439 456.385 82.0802C454.417 81.6166 452.446 82.8332 451.981 84.7976C451.517 86.762 452.736 88.7303 454.703 89.194C456.67 89.6576 458.642 88.441 459.106 86.4766Z" fill="#FCAA24"/>
<path d="M416.611 173.758C420.119 173.758 422.963 170.919 422.963 167.417C422.963 163.914 420.119 161.075 416.611 161.075C413.103 161.075 410.26 163.914 410.26 167.417C410.26 170.919 413.103 173.758 416.611 173.758Z" fill="#FF2E74"/>
<path d="M551.365 182.794C551.859 180.705 550.563 178.611 548.47 178.118C546.378 177.625 544.281 178.919 543.787 181.008C543.293 183.098 544.589 185.191 546.682 185.684C548.774 186.177 550.871 184.883 551.365 182.794Z" fill="#2679FF"/>
<path d="M535.768 106.585C538.692 106.585 541.062 104.218 541.062 101.299C541.062 98.3803 538.692 96.014 535.768 96.014C532.845 96.014 530.475 98.3803 530.475 101.299C530.475 104.218 532.845 106.585 535.768 106.585Z" fill="#FF2E74"/>
<path d="M6.22826 304.759C9.66803 304.759 12.4565 301.975 12.4565 298.541C12.4565 295.106 9.66803 292.322 6.22826 292.322C2.78849 292.322 0 295.106 0 298.541C0 301.975 2.78849 304.759 6.22826 304.759Z" fill="#2679FF"/>
<path d="M61.6908 78.1547C65.0171 78.1547 67.7136 75.4624 67.7136 72.1413C67.7136 68.8201 65.0171 66.1278 61.6908 66.1278C58.3645 66.1278 55.668 68.8201 55.668 72.1413C55.668 75.4624 58.3645 78.1547 61.6908 78.1547Z" fill="#FFFFFC"/>
<path d="M177.952 111.22C178.498 108.922 177.076 106.617 174.774 106.071C172.472 105.525 170.163 106.945 169.617 109.244C169.07 111.542 170.493 113.847 172.794 114.393C175.096 114.939 177.405 113.518 177.952 111.22Z" fill="#FF4768"/>
<path d="M414.202 30.8911C414.554 28.7292 413.083 26.6922 410.918 26.3413C408.753 25.9903 406.712 27.4584 406.361 29.6203C406.01 31.7822 407.48 33.8192 409.645 34.1701C411.81 34.5211 413.851 33.053 414.202 30.8911Z" fill="#FF4768"/>
<path d="M403.841 106.896C406.937 106.896 409.447 104.39 409.447 101.299C409.447 98.2085 406.937 95.7029 403.841 95.7029C400.746 95.7029 398.236 98.2085 398.236 101.299C398.236 104.39 400.746 106.896 403.841 106.896Z" fill="#0768E6"/>
</g>
<defs>
<clipPath id="clip0_327_9564">
<rect width="555" height="424" fill="white"/>
</clipPath>
</defs>
</svg>
