<svg width="164" height="19" viewBox="0 0 164 19" fill="none" xmlns="http://www.w3.org/2000/svg">
<path d="M5.10869 18.35C3.20869 18.35 1.51702 17.9334 0.0336914 17.1V12.925C1.61702 13.9084 3.23369 14.4 4.88369 14.4C5.85036 14.4 6.62536 14.2084 7.20869 13.825C7.80869 13.425 8.10869 12.8334 8.10869 12.05C8.10869 11.3334 7.80869 10.7667 7.20869 10.35C6.62536 9.91669 5.81703 9.70003 4.78369 9.70003C3.55036 9.70003 2.15036 9.96669 0.583691 10.5L1.73369 0.500025H11.4337V4.32502H5.05869L4.83369 6.25002C5.18369 6.18336 5.54202 6.15002 5.90869 6.15002C7.85869 6.15002 9.46703 6.69169 10.7337 7.77503C12.0004 8.84169 12.6337 10.2667 12.6337 12.05C12.6337 14.0667 11.9087 15.625 10.4587 16.725C8.99202 17.8084 7.20869 18.35 5.10869 18.35Z" fill="url(#paint0_linear_561_3218)"/>
<path d="M19.0077 17.575C18.5077 18.0917 17.891 18.35 17.1577 18.35C16.4244 18.35 15.7994 18.0917 15.2827 17.575C14.7827 17.0584 14.5327 16.4334 14.5327 15.7C14.5327 14.9667 14.7827 14.35 15.2827 13.85C15.7994 13.3334 16.4244 13.075 17.1577 13.075C17.891 13.075 18.5077 13.3334 19.0077 13.85C19.5244 14.35 19.7827 14.9667 19.7827 15.7C19.7827 16.4334 19.5244 17.0584 19.0077 17.575Z" fill="url(#paint1_linear_561_3218)"/>
<path d="M32.7136 17.025C31.4969 17.9084 30.0886 18.35 28.4886 18.35C26.8886 18.35 25.4802 17.9084 24.2636 17.025C23.0802 16.1584 22.1969 15.0417 21.6136 13.675C21.0469 12.325 20.7636 10.85 20.7636 9.25002C20.7636 5.80002 21.9302 3.20836 24.2636 1.47503C25.4802 0.591691 26.8886 0.150024 28.4886 0.150024C30.0886 0.150024 31.4969 0.591691 32.7136 1.47503C33.8969 2.34169 34.7802 3.46669 35.3636 4.85003C35.9302 6.18336 36.2136 7.65003 36.2136 9.25002C36.2136 12.7 35.0469 15.2917 32.7136 17.025ZM28.4886 14.225C29.5219 14.225 30.3136 13.7334 30.8636 12.75C31.4302 11.7834 31.7136 10.6167 31.7136 9.25002C31.7136 7.88336 31.4302 6.71669 30.8636 5.75003C30.3136 4.76669 29.5219 4.27503 28.4886 4.27503C27.4886 4.27503 26.6969 4.76669 26.1136 5.75003C25.5469 6.71669 25.2636 7.88336 25.2636 9.25002C25.2636 10.6167 25.5469 11.7834 26.1136 12.75C26.6969 13.7334 27.4886 14.225 28.4886 14.225Z" fill="url(#paint2_linear_561_3218)"/>
<path d="M50.3649 17.025C49.1483 17.9084 47.7399 18.35 46.1399 18.35C44.5399 18.35 43.1316 17.9084 41.9149 17.025C40.7316 16.1584 39.8483 15.0417 39.2649 13.675C38.6983 12.325 38.4149 10.85 38.4149 9.25002C38.4149 5.80002 39.5816 3.20836 41.9149 1.47503C43.1316 0.591691 44.5399 0.150024 46.1399 0.150024C47.7399 0.150024 49.1483 0.591691 50.3649 1.47503C51.5483 2.34169 52.4316 3.46669 53.0149 4.85003C53.5816 6.18336 53.8649 7.65003 53.8649 9.25002C53.8649 12.7 52.6983 15.2917 50.3649 17.025ZM46.1399 14.225C47.1733 14.225 47.9649 13.7334 48.5149 12.75C49.0816 11.7834 49.3649 10.6167 49.3649 9.25002C49.3649 7.88336 49.0816 6.71669 48.5149 5.75003C47.9649 4.76669 47.1733 4.27503 46.1399 4.27503C45.1399 4.27503 44.3483 4.76669 43.7649 5.75003C43.1983 6.71669 42.9149 7.88336 42.9149 9.25002C42.9149 10.6167 43.1983 11.7834 43.7649 12.75C44.3483 13.7334 45.1399 14.225 46.1399 14.225Z" fill="url(#paint3_linear_561_3218)"/>
<g clip-path="url(#clip0_561_3218)">
<path d="M79.9842 6.95233C79.9462 6.83569 79.8453 6.75063 79.7239 6.73291L73.8954 5.88587L71.2888 0.604467C71.2347 0.494277 71.1226 0.424683 71.0002 0.424683C70.8777 0.424683 70.7653 0.494277 70.7115 0.604467L68.1046 5.88619L62.2761 6.73324C62.1546 6.75096 62.0541 6.83569 62.0158 6.95265C61.9781 7.06896 62.0093 7.1972 62.0973 7.28258L66.3151 11.3938L65.3192 17.1991C65.2986 17.3199 65.3482 17.442 65.4471 17.5142C65.5467 17.587 65.6785 17.5963 65.7864 17.5386L71.0002 14.7981L76.2132 17.5386C76.2603 17.5635 76.3122 17.5757 76.3634 17.5757C76.4301 17.5757 76.4965 17.5551 76.5528 17.5142C76.6521 17.442 76.7017 17.3199 76.6807 17.1991L75.6852 11.3941L79.903 7.28258C79.9906 7.19655 80.0222 7.06864 79.9842 6.95233Z" fill="url(#paint4_linear_561_3218)"/>
</g>
<g clip-path="url(#clip1_561_3218)">
<path d="M121.984 6.95233C121.946 6.83569 121.845 6.75063 121.724 6.73291L115.895 5.88587L113.289 0.604467C113.235 0.494277 113.123 0.424683 113 0.424683C112.878 0.424683 112.765 0.494277 112.711 0.604467L110.105 5.88619L104.276 6.73324C104.155 6.75096 104.054 6.83569 104.016 6.95265C103.978 7.06896 104.009 7.1972 104.097 7.28258L108.315 11.3938L107.319 17.1991C107.299 17.3199 107.348 17.442 107.447 17.5142C107.547 17.587 107.678 17.5963 107.786 17.5386L113 14.7981L118.213 17.5386C118.26 17.5635 118.312 17.5757 118.363 17.5757C118.43 17.5757 118.496 17.5551 118.553 17.5142C118.652 17.442 118.702 17.3199 118.681 17.1991L117.685 11.3941L121.903 7.28258C121.991 7.19655 122.022 7.06864 121.984 6.95233Z" fill="url(#paint5_linear_561_3218)"/>
</g>
<g clip-path="url(#clip2_561_3218)">
<path d="M100.984 6.95233C100.946 6.83569 100.845 6.75063 100.724 6.73291L94.8954 5.88587L92.2888 0.604467C92.2347 0.494277 92.1226 0.424683 92.0002 0.424683C91.8777 0.424683 91.7653 0.494277 91.7115 0.604467L89.1046 5.88619L83.2761 6.73324C83.1546 6.75096 83.0541 6.83569 83.0158 6.95265C82.9781 7.06896 83.0093 7.1972 83.0973 7.28258L87.3151 11.3938L86.3192 17.1991C86.2986 17.3199 86.3482 17.442 86.4471 17.5142C86.5467 17.587 86.6785 17.5963 86.7864 17.5386L92.0002 14.7981L97.2132 17.5386C97.2603 17.5635 97.3122 17.5757 97.3634 17.5757C97.4301 17.5757 97.4965 17.5551 97.5528 17.5142C97.6521 17.442 97.7017 17.3199 97.6807 17.1991L96.6852 11.3941L100.903 7.28258C100.991 7.19655 101.022 7.06864 100.984 6.95233Z" fill="url(#paint6_linear_561_3218)"/>
</g>
<g clip-path="url(#clip3_561_3218)">
<path d="M142.984 6.95233C142.946 6.83569 142.845 6.75063 142.724 6.73291L136.895 5.88587L134.289 0.604467C134.235 0.494277 134.123 0.424683 134 0.424683C133.878 0.424683 133.765 0.494277 133.711 0.604467L131.105 5.88619L125.276 6.73324C125.155 6.75096 125.054 6.83569 125.016 6.95265C124.978 7.06896 125.009 7.1972 125.097 7.28258L129.315 11.3938L128.319 17.1991C128.299 17.3199 128.348 17.442 128.447 17.5142C128.547 17.587 128.678 17.5963 128.786 17.5386L134 14.7981L139.213 17.5386C139.26 17.5635 139.312 17.5757 139.363 17.5757C139.43 17.5757 139.496 17.5551 139.553 17.5142C139.652 17.442 139.702 17.3199 139.681 17.1991L138.685 11.3941L142.903 7.28258C142.991 7.19655 143.022 7.06864 142.984 6.95233Z" fill="url(#paint7_linear_561_3218)"/>
</g>
<g clip-path="url(#clip4_561_3218)">
<path d="M163.984 6.95233C163.946 6.83569 163.845 6.75063 163.724 6.73291L157.895 5.88587L155.289 0.604467C155.235 0.494277 155.123 0.424683 155 0.424683C154.878 0.424683 154.765 0.494277 154.711 0.604467L152.105 5.88619L146.276 6.73324C146.155 6.75096 146.054 6.83569 146.016 6.95265C145.978 7.06896 146.009 7.1972 146.097 7.28258L150.315 11.3938L149.319 17.1991C149.299 17.3199 149.348 17.442 149.447 17.5142C149.547 17.587 149.678 17.5963 149.786 17.5386L155 14.7981L160.213 17.5386C160.26 17.5635 160.312 17.5757 160.363 17.5757C160.43 17.5757 160.496 17.5551 160.553 17.5142C160.652 17.442 160.702 17.3199 160.681 17.1991L159.685 11.3941L163.903 7.28258C163.991 7.19655 164.022 7.06864 163.984 6.95233Z" fill="url(#paint8_linear_561_3218)"/>
</g>
<defs>
<linearGradient id="paint0_linear_561_3218" x1="0.191295" y1="20.6461" x2="36.8212" y2="46.5937" gradientUnits="userSpaceOnUse">
<stop offset="0.000302188" stop-color="#FF0844"/>
<stop offset="1" stop-color="#FF8B67"/>
</linearGradient>
<linearGradient id="paint1_linear_561_3218" x1="0.191295" y1="20.6461" x2="36.8212" y2="46.5937" gradientUnits="userSpaceOnUse">
<stop offset="0.000302188" stop-color="#FF0844"/>
<stop offset="1" stop-color="#FF8B67"/>
</linearGradient>
<linearGradient id="paint2_linear_561_3218" x1="0.191295" y1="20.6461" x2="36.8212" y2="46.5937" gradientUnits="userSpaceOnUse">
<stop offset="0.000302188" stop-color="#FF0844"/>
<stop offset="1" stop-color="#FF8B67"/>
</linearGradient>
<linearGradient id="paint3_linear_561_3218" x1="0.191295" y1="20.6461" x2="36.8212" y2="46.5937" gradientUnits="userSpaceOnUse">
<stop offset="0.000302188" stop-color="#FF0844"/>
<stop offset="1" stop-color="#FF8B67"/>
</linearGradient>
<linearGradient id="paint4_linear_561_3218" x1="62.383" y1="14.614" x2="77.504" y2="20.8368" gradientUnits="userSpaceOnUse">
<stop offset="0.000302188" stop-color="#FF0844"/>
<stop offset="1" stop-color="#FF8B67"/>
</linearGradient>
<linearGradient id="paint5_linear_561_3218" x1="104.383" y1="14.614" x2="119.504" y2="20.8368" gradientUnits="userSpaceOnUse">
<stop offset="0.000302188" stop-color="#FF0844"/>
<stop offset="1" stop-color="#FF8B67"/>
</linearGradient>
<linearGradient id="paint6_linear_561_3218" x1="83.383" y1="14.614" x2="98.504" y2="20.8368" gradientUnits="userSpaceOnUse">
<stop offset="0.000302188" stop-color="#FF0844"/>
<stop offset="1" stop-color="#FF8B67"/>
</linearGradient>
<linearGradient id="paint7_linear_561_3218" x1="125.383" y1="14.614" x2="140.504" y2="20.8368" gradientUnits="userSpaceOnUse">
<stop offset="0.000302188" stop-color="#FF0844"/>
<stop offset="1" stop-color="#FF8B67"/>
</linearGradient>
<linearGradient id="paint8_linear_561_3218" x1="146.383" y1="14.614" x2="161.504" y2="20.8368" gradientUnits="userSpaceOnUse">
<stop offset="0.000302188" stop-color="#FF0844"/>
<stop offset="1" stop-color="#FF8B67"/>
</linearGradient>
<clipPath id="clip0_561_3218">
<rect width="18" height="18" fill="white" transform="translate(62)"/>
</clipPath>
<clipPath id="clip1_561_3218">
<rect width="18" height="18" fill="white" transform="translate(104)"/>
</clipPath>
<clipPath id="clip2_561_3218">
<rect width="18" height="18" fill="white" transform="translate(83)"/>
</clipPath>
<clipPath id="clip3_561_3218">
<rect width="18" height="18" fill="white" transform="translate(125)"/>
</clipPath>
<clipPath id="clip4_561_3218">
<rect width="18" height="18" fill="white" transform="translate(146)"/>
</clipPath>
</defs>
</svg>
