<svg width="116" height="39" viewBox="0 0 116 39" fill="none" xmlns="http://www.w3.org/2000/svg">
<path d="M49.6411 20.0948C49.6411 25.5885 45.3434 29.6367 40.0691 29.6367C34.7948 29.6367 30.4971 25.5885 30.4971 20.0948C30.4971 14.5623 34.7948 10.5529 40.0691 10.5529C45.3434 10.5529 49.6411 14.5623 49.6411 20.0948ZM45.4509 20.0948C45.4509 16.6617 42.9601 14.3128 40.0691 14.3128C37.1781 14.3128 34.6872 16.6617 34.6872 20.0948C34.6872 23.4934 37.1781 25.8767 40.0691 25.8767C42.9601 25.8767 45.4509 23.4891 45.4509 20.0948Z" fill="#EA4335"/>
<path d="M70.2909 20.0948C70.2909 25.5885 65.9932 29.6367 60.7189 29.6367C55.4446 29.6367 51.1469 25.5885 51.1469 20.0948C51.1469 14.5667 55.4446 10.5529 60.7189 10.5529C65.9932 10.5529 70.2909 14.5623 70.2909 20.0948ZM66.1007 20.0948C66.1007 16.6617 63.6098 14.3128 60.7189 14.3128C57.8279 14.3128 55.337 16.6617 55.337 20.0948C55.337 23.4934 57.8279 25.8767 60.7189 25.8767C63.6098 25.8767 66.1007 23.4891 66.1007 20.0948Z" fill="#FBBC05"/>
<path d="M90.0803 11.1293V28.26C90.0803 35.3067 85.9245 38.1848 81.0116 38.1848C76.3869 38.1848 73.6035 35.0916 72.5538 32.5621L76.2019 31.0434C76.8515 32.5965 78.4433 34.4291 81.0073 34.4291C84.1521 34.4291 86.1009 32.4889 86.1009 28.8365V27.4641H85.9546C85.0168 28.6214 83.2099 29.6324 80.9298 29.6324C76.1589 29.6324 71.788 25.4766 71.788 20.1292C71.788 14.743 76.1589 10.5529 80.9298 10.5529C83.2056 10.5529 85.0125 11.5638 85.9546 12.6867H86.1009V11.1336H90.0803V11.1293ZM86.3977 20.1292C86.3977 16.7693 84.1564 14.3128 81.3041 14.3128C78.4132 14.3128 75.9911 16.7693 75.9911 20.1292C75.9911 23.4547 78.4132 25.8767 81.3041 25.8767C84.1564 25.8767 86.3977 23.4547 86.3977 20.1292Z" fill="#4285F4"/>
<path d="M96.6408 1.08838V29.0516H92.5539V1.08838H96.6408Z" fill="#34A853"/>
<path d="M112.567 23.2353L115.819 25.4035C114.77 26.9565 112.24 29.6324 107.869 29.6324C102.449 29.6324 98.4004 25.4422 98.4004 20.0905C98.4004 14.4161 102.483 10.5486 107.4 10.5486C112.352 10.5486 114.774 14.4892 115.566 16.6188L116 17.7029L103.244 22.9858C104.221 24.9002 105.74 25.8767 107.869 25.8767C110.003 25.8767 111.483 24.827 112.567 23.2353ZM102.556 19.8023L111.083 16.2617C110.614 15.07 109.203 14.2397 107.542 14.2397C105.413 14.2397 102.449 16.1197 102.556 19.8023Z" fill="#EA4335"/>
<path d="M15.027 17.6125V13.5643H28.6687C28.8021 14.2698 28.8709 15.1044 28.8709 16.0079C28.8709 19.0451 28.0406 22.8008 25.3648 25.4766C22.7621 28.1869 19.4366 29.6324 15.0313 29.6324C6.86604 29.6324 0 22.9815 0 14.8162C0 6.65094 6.86604 0 15.0313 0C19.5484 0 22.7664 1.77244 25.1841 4.08263L22.3275 6.93918C20.5938 5.31301 18.2449 4.04821 15.027 4.04821C9.06438 4.04821 4.40098 8.85358 4.40098 14.8162C4.40098 20.7788 9.06438 25.5842 15.027 25.5842C18.8945 25.5842 21.0972 24.0312 22.5082 22.6201C23.6526 21.4757 24.4054 19.841 24.7023 17.6082L15.027 17.6125Z" fill="#4285F4"/>
</svg>
