<svg width="472" height="50" viewBox="0 0 472 50" fill="none" xmlns="http://www.w3.org/2000/svg">
<g clip-path="url(#clip0_674_3210)">
<path d="M38.0724 24.9826L17.5801 13.1323V36.8329L38.0724 24.9826Z" fill="url(#paint0_linear_674_3210)"/>
<path d="M25.0005 49.9653C20.0575 49.9585 15.2274 48.4874 11.1207 45.7381C7.01406 42.9888 3.81508 39.0847 1.92821 34.5191C0.0413306 29.9535 -0.448759 24.9314 0.519783 20.0875C1.48833 15.2437 3.87204 10.7954 7.36973 7.30501C10.8674 3.81458 15.3222 1.43868 20.1708 0.477521C25.0194 -0.483636 30.0442 0.0131116 34.6104 1.905C39.1765 3.7969 43.0789 6.99897 45.8244 11.1066C48.5699 15.2142 50.0353 20.043 50.0353 24.9826C50.017 31.6088 47.3723 37.9579 42.6804 42.64C37.9885 47.3222 31.6313 49.9562 25.0005 49.9653ZM25.0005 1.45528C20.3166 1.45528 15.7378 2.84326 11.8432 5.44371C7.9487 8.04416 4.91344 11.7403 3.12097 16.0646C1.32851 20.389 0.8595 25.1475 1.77329 29.7382C2.68708 34.329 4.94253 38.5458 8.25457 41.8556C11.5666 45.1653 15.7864 47.4193 20.3803 48.3325C24.9743 49.2456 29.7361 48.777 34.0635 46.9857C38.3909 45.1945 42.0895 42.1612 44.6918 38.2694C47.294 34.3775 48.683 29.8019 48.683 25.1213C48.6966 22.003 48.0943 18.9127 46.9107 16.0275C45.7271 13.1422 43.9856 10.5188 41.7856 8.3074C39.5856 6.09603 36.9705 4.34022 34.0902 3.14062C31.2099 1.94102 28.1209 1.32118 25.0005 1.31665V1.45528Z" fill="url(#paint1_linear_674_3210)"/>
</g>
<g clip-path="url(#clip1_674_3210)">
<path d="M419.001 40.9778C415.838 40.9734 412.746 40.0319 410.118 38.2724C407.49 36.5128 405.443 34.0142 404.235 31.0922C403.027 28.1703 402.714 24.9561 403.334 21.856C403.953 18.7559 405.479 15.9091 407.718 13.6752C409.956 11.4413 412.807 9.92075 415.91 9.30561C419.013 8.69047 422.229 9.00839 425.152 10.2192C428.074 11.43 430.571 13.4793 432.329 16.1082C434.086 18.7371 435.024 21.8275 435.024 24.9889C435.012 29.2296 433.319 33.293 430.316 36.2896C427.314 39.2862 423.245 40.972 419.001 40.9778ZM419.001 9.88705C419.001 9.91153 418.981 9.93137 418.957 9.93144C415.975 9.94016 413.061 10.8279 410.581 12.484C408.088 14.1483 406.146 16.5138 404.998 19.2814C403.851 22.049 403.551 25.0944 404.136 28.0325C404.721 30.9705 406.164 33.6693 408.284 35.7876C410.404 37.9058 413.104 39.3484 416.044 39.9328C418.984 40.5172 422.032 40.2173 424.802 39.0709C427.571 37.9245 429.938 35.9832 431.604 33.4924C433.269 31.0016 434.158 28.0732 434.158 25.0776C434.167 23.0819 433.781 21.1041 433.024 19.2576C432.266 17.411 431.152 15.732 429.744 14.3167C428.336 12.9015 426.662 11.7777 424.819 11.01C422.989 10.2479 421.028 9.85145 419.046 9.84278C419.021 9.84268 419.001 9.86254 419.001 9.88705Z" fill="url(#paint2_linear_674_3210)"/>
<path d="M416.051 27.6797H414.641V22.2197L413.161 22.9697V21.5597L414.801 20.6797H416.051V27.6797ZM417.337 20.6797H419.017L420.487 22.7697L421.977 20.6797H423.637L421.327 23.8997L424.047 27.6797H422.367L420.467 25.0697L418.577 27.6797H416.917L419.647 23.9097L417.337 20.6797Z" fill="#2B3543"/>
</g>
<path d="M455.978 41C452.814 40.9956 449.723 40.0535 447.095 38.2927C444.466 36.5319 442.419 34.0316 441.212 31.1076C440.004 28.1836 439.69 24.9672 440.31 21.865C440.93 18.7627 442.456 15.9139 444.694 13.6784C446.933 11.443 449.784 9.92139 452.887 9.30583C455.99 8.69026 459.206 9.0084 462.128 10.22C465.05 11.4317 467.548 13.4824 469.305 16.1132C471.062 18.7439 472 21.8364 472 25C471.988 29.2437 470.296 33.3099 467.293 36.3086C464.29 39.3072 460.221 40.9941 455.978 41ZM455.978 9.88766C455.978 9.91216 455.958 9.93202 455.933 9.93209C452.951 9.94082 450.037 10.8292 447.557 12.4864C445.065 14.1518 443.122 16.519 441.975 19.2885C440.828 22.058 440.528 25.1056 441.112 28.0457C441.697 30.9858 443.141 33.6865 445.26 35.8062C447.38 37.9259 450.081 39.3694 453.021 39.9543C455.961 40.5391 459.009 40.2389 461.778 39.0917C464.548 37.9446 466.915 36.0019 468.58 33.5094C470.246 31.0169 471.135 28.0865 471.135 25.0888C471.143 23.0917 470.758 21.1125 470 19.2647C469.243 17.4169 468.128 15.7367 466.72 14.3204C465.312 12.9042 463.639 11.7797 461.795 11.0114C459.965 10.2488 458.004 9.85205 456.022 9.84337C455.998 9.84326 455.978 9.86314 455.978 9.88766Z" fill="url(#paint3_linear_674_3210)"/>
<path d="M447.53 28.14C446.91 28.14 446.367 27.9667 445.9 27.62C445.447 27.28 445.1 26.84 444.86 26.3C444.627 25.76 444.51 25.16 444.51 24.5C444.51 23.8467 444.623 23.2533 444.85 22.72C445.09 22.16 445.443 21.71 445.91 21.37C446.383 21.03 446.923 20.86 447.53 20.86C448.45 20.86 449.18 21.2167 449.72 21.93C450.267 22.6367 450.54 23.4933 450.54 24.5C450.54 25.5067 450.267 26.3633 449.72 27.07C449.18 27.7833 448.45 28.14 447.53 28.14ZM446.38 26.13C446.673 26.57 447.057 26.79 447.53 26.79C448.01 26.79 448.39 26.57 448.67 26.13C448.957 25.6833 449.1 25.14 449.1 24.5C449.1 23.8533 448.957 23.3133 448.67 22.88C448.39 22.4333 448.01 22.21 447.53 22.21C447.05 22.21 446.667 22.4333 446.38 22.88C446.093 23.3133 445.95 23.8533 445.95 24.5C445.95 25.14 446.093 25.6833 446.38 26.13ZM451.97 28.11C451.724 28.11 451.517 28.0267 451.35 27.86C451.184 27.6867 451.1 27.4767 451.1 27.23C451.1 26.99 451.184 26.7867 451.35 26.62C451.517 26.4533 451.724 26.37 451.97 26.37C452.21 26.37 452.414 26.4533 452.58 26.62C452.754 26.7867 452.84 26.99 452.84 27.23C452.84 27.4767 452.754 27.6867 452.58 27.86C452.414 28.0267 452.21 28.11 451.97 28.11ZM456.04 28.14C455.307 28.14 454.643 27.9733 454.05 27.64V26.29C454.643 26.6633 455.287 26.85 455.98 26.85C456.433 26.85 456.803 26.7467 457.09 26.54C457.383 26.3333 457.53 26.0467 457.53 25.68C457.53 25.3333 457.387 25.0533 457.1 24.84C456.82 24.6267 456.443 24.52 455.97 24.52C455.417 24.52 454.857 24.62 454.29 24.82L454.75 21H458.49V22.24H455.81L455.66 23.43C455.867 23.3833 456.09 23.36 456.33 23.36C457.103 23.36 457.733 23.5733 458.22 24C458.72 24.4267 458.97 24.9867 458.97 25.68C458.97 26.4467 458.687 27.05 458.12 27.49C457.553 27.9233 456.86 28.14 456.04 28.14ZM459.929 21H461.609L463.079 23.09L464.569 21H466.229L463.919 24.22L466.639 28H464.959L463.059 25.39L461.169 28H459.509L462.239 24.23L459.929 21Z" fill="#2B3543"/>
<rect x="69" y="19" width="315" height="13" rx="6.5" fill="#4A40E2" fill-opacity="0.1"/>
<rect x="69" y="19" width="179" height="13" rx="6.5" fill="url(#paint4_linear_674_3210)"/>
<defs>
<linearGradient id="paint0_linear_674_3210" x1="12.5371" y1="29.8114" x2="32.1806" y2="46.0542" gradientUnits="userSpaceOnUse">
<stop offset="0.000302188" stop-color="#6A11CB"/>
<stop offset="1" stop-color="#2575FC"/>
</linearGradient>
<linearGradient id="paint1_linear_674_3210" x1="-12.2694" y1="35.1627" x2="29.8526" y2="75.4733" gradientUnits="userSpaceOnUse">
<stop offset="0.000302188" stop-color="#6A11CB"/>
<stop offset="1" stop-color="#2575FC"/>
</linearGradient>
<linearGradient id="paint2_linear_674_3210" x1="395.149" y1="31.5041" x2="422.107" y2="57.3029" gradientUnits="userSpaceOnUse">
<stop offset="0.000302188" stop-color="#6A11CB"/>
<stop offset="1" stop-color="#2575FC"/>
</linearGradient>
<linearGradient id="paint3_linear_674_3210" x1="432.125" y1="31.5197" x2="459.101" y2="57.3177" gradientUnits="userSpaceOnUse">
<stop offset="0.000302188" stop-color="#6A11CB"/>
<stop offset="1" stop-color="#2575FC"/>
</linearGradient>
<linearGradient id="paint4_linear_674_3210" x1="24.9498" y1="28.1486" x2="26.6064" y2="49.9626" gradientUnits="userSpaceOnUse">
<stop offset="0.000302188" stop-color="#6A11CB"/>
<stop offset="1" stop-color="#2575FC"/>
</linearGradient>
<clipPath id="clip0_674_3210">
<rect width="50" height="50" fill="white"/>
</clipPath>
<clipPath id="clip1_674_3210">
<rect width="32" height="32" fill="white" transform="translate(403 9)"/>
</clipPath>
</defs>
</svg>
